M48
; DRILL file {KiCad 7.0.4} date Sun 28 May 2023 10:47:31 AM CEST
; FORMAT={-:-/ absolute / inch / decimal}
; #@! TF.CreationDate,2023-05-28T10:47:31+02:00
; #@! TF.GenerationSoftware,Kicad,Pcbnew,7.0.4
; #@! TF.FileFunction,Plated,1,2,PTH
FMAT,2
INCH
; #@! TA.AperFunction,Plated,PTH,ViaDrill
T1C0.0157
; #@! TA.AperFunction,Plated,PTH,ComponentDrill
T2C0.0591
; #@! TA.AperFunction,Plated,PTH,ComponentDrill
T3C0.0669
%
G90
G05
T1
X4.5276Y-2.4606
X4.5276Y-2.815
X4.5492Y-2.6161
X4.5492Y-2.6654
X4.5866Y-2.4803
X4.5866Y-2.7953
X4.5965Y-2.5709
X4.5965Y-2.7067
X4.6654Y-2.4803
X4.6654Y-2.5787
X4.6654Y-2.6929
X4.7244Y-2.4606
X4.7244Y-2.815
X4.7835Y-2.4803
X4.7835Y-2.5886
X4.7835Y-2.687
X4.7933Y-2.7953
X4.8031Y-2.5394
X4.8031Y-2.7362
X4.8425Y-2.5787
X4.8425Y-2.6969
X4.9016Y-2.5787
X4.9016Y-2.6969
X4.9409Y-2.7362
X4.9606Y-2.5787
X4.9803Y-2.7461
X5.0197Y-2.5787
X5.0197Y-2.7362
X5.0394Y-2.6969
X5.0787Y-2.5787
X5.0886Y-2.6969
X5.1378Y-2.5787
X5.1378Y-2.6969
X5.1575Y-2.7362
X5.1969Y-2.5787
X5.1969Y-2.7461
X5.2382Y-2.7362
X5.2559Y-2.4902
X5.2559Y-2.5787
X5.2559Y-2.6969
X5.2638Y-2.4409
X5.2638Y-2.7736
X5.2638Y-2.8169
X5.2854Y-2.5394
X5.2953Y-2.7264
X5.2953Y-2.8602
X5.315Y-2.4075
X5.315Y-2.6673
X5.3346Y-2.7264
X5.3642Y-2.628
X5.374Y-2.7264
X5.3937Y-2.4075
X5.3937Y-2.5787
X5.4134Y-2.7264
X5.4232Y-2.5394
X5.4252Y-2.8563
X5.4469Y-2.4409
X5.4469Y-2.4921
X5.8268Y-2.4016
X5.8268Y-2.6378
X5.8268Y-2.874
X5.8465Y-2.3622
X5.8465Y-2.4409
X5.8465Y-2.5984
X5.8465Y-2.6772
X5.8465Y-2.8346
X5.8465Y-2.9134
X5.9646Y-2.3622
X5.9646Y-2.4409
X5.9646Y-2.5984
X5.9646Y-2.6772
X5.9646Y-2.8346
X5.9646Y-2.9134
X5.9843Y-2.4016
X5.9843Y-2.6378
X5.9843Y-2.874
X6.3642Y-2.4409
X6.3642Y-2.4921
X6.3858Y-2.8563
X6.3878Y-2.5394
X6.3976Y-2.7264
X6.4173Y-2.4075
X6.4173Y-2.5787
X6.437Y-2.7264
X6.4469Y-2.628
X6.4764Y-2.7264
X6.4961Y-2.4075
X6.4961Y-2.6673
X6.5157Y-2.7264
X6.5157Y-2.8602
X6.5256Y-2.5394
X6.5472Y-2.4409
X6.5472Y-2.7736
X6.5472Y-2.8169
X6.5551Y-2.4902
X6.5551Y-2.5787
X6.5551Y-2.6969
X6.5728Y-2.7362
X6.6142Y-2.5787
X6.6142Y-2.7461
X6.6535Y-2.7362
X6.6732Y-2.5787
X6.6732Y-2.6969
X6.7224Y-2.6969
X6.7323Y-2.5787
X6.7717Y-2.6969
X6.7913Y-2.5787
X6.7913Y-2.7362
X6.8307Y-2.7461
X6.8504Y-2.5787
X6.8701Y-2.7362
X6.9094Y-2.5787
X6.9094Y-2.6969
X6.9685Y-2.5787
X6.9685Y-2.6969
X7.0079Y-2.5394
X7.0079Y-2.7362
X7.0177Y-2.7953
X7.0276Y-2.4803
X7.0276Y-2.5886
X7.0276Y-2.687
X7.0866Y-2.4606
X7.0866Y-2.815
X7.1457Y-2.4803
X7.1457Y-2.5827
X7.1457Y-2.6929
X7.2146Y-2.5709
X7.2146Y-2.7067
X7.2244Y-2.4803
X7.2244Y-2.7953
X7.2618Y-2.6161
X7.2618Y-2.6654
X7.2835Y-2.4606
X7.2835Y-2.815
T2
X4.626Y-2.6378
X7.185Y-2.6378
T3
X4.526Y-2.5378
X4.526Y-2.7378
X4.726Y-2.5378
X4.726Y-2.7378
X7.085Y-2.5378
X7.085Y-2.7378
X7.285Y-2.5378
X7.285Y-2.7378
T0
M30
