%TF.GenerationSoftware,KiCad,Pcbnew,7.0.4*%
%TF.CreationDate,2023-05-28T10:47:35+02:00*%
%TF.ProjectId,saw_carrier,7361775f-6361-4727-9269-65722e6b6963,rev?*%
%TF.SameCoordinates,Original*%
%TF.FileFunction,Copper,L2,Bot*%
%TF.FilePolarity,Positive*%
%FSLAX46Y46*%
G04 Gerber Fmt 4.6, Leading zero omitted, Abs format (unit mm)*
G04 Created by KiCad (PCBNEW 7.0.4) date 2023-05-28 10:47:35*
%MOMM*%
%LPD*%
G01*
G04 APERTURE LIST*
G04 Aperture macros list*
%AMRoundRect*
0 Rectangle with rounded corners*
0 $1 Rounding radius*
0 $2 $3 $4 $5 $6 $7 $8 $9 X,Y pos of 4 corners*
0 Add a 4 corners polygon primitive as box body*
4,1,4,$2,$3,$4,$5,$6,$7,$8,$9,$2,$3,0*
0 Add four circle primitives for the rounded corners*
1,1,$1+$1,$2,$3*
1,1,$1+$1,$4,$5*
1,1,$1+$1,$6,$7*
1,1,$1+$1,$8,$9*
0 Add four rect primitives between the rounded corners*
20,1,$1+$1,$2,$3,$4,$5,0*
20,1,$1+$1,$4,$5,$6,$7,0*
20,1,$1+$1,$6,$7,$8,$9,0*
20,1,$1+$1,$8,$9,$2,$3,0*%
G04 Aperture macros list end*
%TA.AperFunction,ComponentPad*%
%ADD10C,2.050000*%
%TD*%
%TA.AperFunction,ComponentPad*%
%ADD11C,2.250000*%
%TD*%
%TA.AperFunction,SMDPad,CuDef*%
%ADD12RoundRect,0.225000X-0.225000X-0.250000X0.225000X-0.250000X0.225000X0.250000X-0.225000X0.250000X0*%
%TD*%
%TA.AperFunction,ViaPad*%
%ADD13C,0.800000*%
%TD*%
G04 APERTURE END LIST*
D10*
%TO.P,J2,1,In*%
%TO.N,/OUT_2*%
X182500000Y-67000000D03*
D11*
%TO.P,J2,2,Ext*%
%TO.N,GND2*%
X179960000Y-64460000D03*
X179960000Y-69540000D03*
X185040000Y-64460000D03*
X185040000Y-69540000D03*
%TD*%
D10*
%TO.P,J1,1,In*%
%TO.N,/IN_2*%
X117500000Y-67000000D03*
D11*
%TO.P,J1,2,Ext*%
%TO.N,GND1*%
X114960000Y-64460000D03*
X114960000Y-69540000D03*
X120040000Y-64460000D03*
X120040000Y-69540000D03*
%TD*%
D12*
%TO.P,C1,1*%
%TO.N,GND1*%
X149225000Y-67000000D03*
%TO.P,C1,2*%
%TO.N,GND2*%
X150775000Y-67000000D03*
%TD*%
%TO.P,C2,1*%
%TO.N,GND1*%
X149225000Y-61000000D03*
%TO.P,C2,2*%
%TO.N,GND2*%
X150775000Y-61000000D03*
%TD*%
%TO.P,C3,1*%
%TO.N,GND1*%
X149225000Y-73000000D03*
%TO.P,C3,2*%
%TO.N,GND2*%
X150775000Y-73000000D03*
%TD*%
D13*
%TO.N,GND2*%
X166300000Y-62000000D03*
X181500000Y-68400000D03*
X178500000Y-65750000D03*
X178500000Y-68250000D03*
X183250000Y-68750000D03*
X163750000Y-66750000D03*
X162250000Y-64500000D03*
X163000000Y-61150000D03*
X161650000Y-62000000D03*
X177000000Y-65500000D03*
X181500000Y-63000000D03*
X166500000Y-63250000D03*
X166300000Y-70450000D03*
X184450000Y-67700000D03*
X175500000Y-65500000D03*
X162200000Y-72550000D03*
X165000000Y-67750000D03*
X185000000Y-62500000D03*
X178000000Y-64500000D03*
X180000000Y-71500000D03*
X161650000Y-63300000D03*
X184450000Y-66450000D03*
X178500000Y-63000000D03*
X178250000Y-71000000D03*
X166500000Y-65500000D03*
X165000000Y-61150000D03*
X171000000Y-65500000D03*
X185000000Y-71500000D03*
X165500000Y-72650000D03*
X172500000Y-69500000D03*
X163000000Y-65500000D03*
X164500000Y-69250000D03*
X178000000Y-69500000D03*
X175500000Y-68500000D03*
X183250000Y-65300000D03*
X183500000Y-71000000D03*
X166300000Y-71550000D03*
X165750000Y-64500000D03*
X162500000Y-69250000D03*
X181500000Y-65600000D03*
X177000000Y-68500000D03*
X183500000Y-63000000D03*
X169000000Y-69500000D03*
X168000000Y-65500000D03*
X168000000Y-69750000D03*
X180000000Y-62500000D03*
X166950000Y-69500000D03*
X172000000Y-68500000D03*
X165500000Y-69250000D03*
X170750000Y-68500000D03*
X163500000Y-69250000D03*
X173500000Y-69750000D03*
X169500000Y-68500000D03*
X174000000Y-65500000D03*
X174500000Y-69500000D03*
X172500000Y-65500000D03*
X166500000Y-68500000D03*
X169500000Y-65500000D03*
X151500000Y-66000000D03*
X152000000Y-67000000D03*
X151500000Y-62000000D03*
X151500000Y-74000000D03*
X151500000Y-68000000D03*
X151500000Y-60000000D03*
X152000000Y-73000000D03*
X151500000Y-72000000D03*
X152000000Y-61000000D03*
%TO.N,GND1*%
X130500000Y-65500000D03*
X133500000Y-68500000D03*
X127500000Y-65500000D03*
X148500000Y-60000000D03*
X125500000Y-69500000D03*
X126000000Y-65500000D03*
X148500000Y-62000000D03*
X130500000Y-68500000D03*
X126500000Y-69750000D03*
X136500000Y-69250000D03*
X129250000Y-68500000D03*
X134500000Y-69250000D03*
X128000000Y-68500000D03*
X133050000Y-69500000D03*
X120000000Y-62500000D03*
X132000000Y-69750000D03*
X132000000Y-65500000D03*
X148000000Y-67000000D03*
X148500000Y-66000000D03*
X131000000Y-69500000D03*
X148500000Y-74000000D03*
X116500000Y-63000000D03*
X123000000Y-68500000D03*
X118500000Y-65500000D03*
X137500000Y-69250000D03*
X148000000Y-73000000D03*
X134250000Y-64500000D03*
X133700000Y-71550000D03*
X116500000Y-71000000D03*
X116750000Y-65300000D03*
X124500000Y-68500000D03*
X122000000Y-69500000D03*
X135500000Y-69250000D03*
X137000000Y-65500000D03*
X127500000Y-69500000D03*
X134500000Y-72650000D03*
X148000000Y-61000000D03*
X115000000Y-71500000D03*
X129000000Y-65500000D03*
X135000000Y-61150000D03*
X133500000Y-65500000D03*
X121750000Y-71000000D03*
X121500000Y-63000000D03*
X115550000Y-66450000D03*
X148500000Y-68000000D03*
X138350000Y-63300000D03*
X120000000Y-71500000D03*
X122000000Y-64500000D03*
X115000000Y-62500000D03*
X135000000Y-67750000D03*
X137800000Y-72550000D03*
X124500000Y-65500000D03*
X115550000Y-67700000D03*
X133700000Y-70450000D03*
X133500000Y-63250000D03*
X118500000Y-63000000D03*
X123000000Y-65500000D03*
X138350000Y-62000000D03*
X137000000Y-61150000D03*
X137750000Y-64500000D03*
X136250000Y-66750000D03*
X116750000Y-68750000D03*
X121500000Y-68250000D03*
X121500000Y-65750000D03*
X148500000Y-72000000D03*
X118500000Y-68400000D03*
X133700000Y-62000000D03*
%TD*%
%TA.AperFunction,Conductor*%
%TO.N,GND1*%
G36*
X149442121Y-55420502D02*
G01*
X149488614Y-55474158D01*
X149500000Y-55526500D01*
X149500000Y-78473500D01*
X149479998Y-78541621D01*
X149426342Y-78588114D01*
X149374000Y-78599500D01*
X116001644Y-78599500D01*
X115998371Y-78599414D01*
X115752834Y-78586546D01*
X115679319Y-78582694D01*
X115672756Y-78582004D01*
X115358840Y-78532284D01*
X115352386Y-78530912D01*
X115045391Y-78448654D01*
X115039115Y-78446615D01*
X114742405Y-78332718D01*
X114736377Y-78330034D01*
X114453191Y-78185744D01*
X114447476Y-78182444D01*
X114180927Y-78009345D01*
X114175600Y-78005475D01*
X113928583Y-77805445D01*
X113923693Y-77801040D01*
X113698959Y-77576306D01*
X113694555Y-77571417D01*
X113494522Y-77324396D01*
X113490654Y-77319072D01*
X113465180Y-77279846D01*
X113317555Y-77052523D01*
X113314255Y-77046808D01*
X113169965Y-76763622D01*
X113167281Y-76757594D01*
X113152448Y-76718953D01*
X113053380Y-76460873D01*
X113051345Y-76454608D01*
X113029026Y-76371313D01*
X112969086Y-76147612D01*
X112967715Y-76141159D01*
X112963615Y-76115276D01*
X112917995Y-75827243D01*
X112917306Y-75820694D01*
X112904147Y-75569596D01*
X114095687Y-75569596D01*
X114126114Y-75846128D01*
X114196480Y-76115278D01*
X114269015Y-76285968D01*
X114305284Y-76371314D01*
X114450208Y-76608781D01*
X114628163Y-76822617D01*
X114835357Y-77008263D01*
X115067373Y-77161763D01*
X115319267Y-77279846D01*
X115585669Y-77359995D01*
X115860895Y-77400499D01*
X115860898Y-77400500D01*
X115860901Y-77400500D01*
X116069463Y-77400500D01*
X116277455Y-77385277D01*
X116548997Y-77324788D01*
X116808838Y-77225408D01*
X117051440Y-77089253D01*
X117271632Y-76919226D01*
X117464722Y-76718951D01*
X117626593Y-76492696D01*
X117753797Y-76245283D01*
X117843621Y-75981986D01*
X117894152Y-75708416D01*
X117904313Y-75430404D01*
X117873886Y-75153876D01*
X117803520Y-74884724D01*
X117694716Y-74628686D01*
X117549792Y-74391219D01*
X117371837Y-74177383D01*
X117164643Y-73991737D01*
X116932627Y-73838237D01*
X116796860Y-73774592D01*
X116680734Y-73720154D01*
X116601263Y-73696244D01*
X116414331Y-73640005D01*
X116414326Y-73640004D01*
X116414322Y-73640003D01*
X116139103Y-73599500D01*
X116139099Y-73599500D01*
X115930537Y-73599500D01*
X115722541Y-73614723D01*
X115451009Y-73675210D01*
X115450997Y-73675214D01*
X115191161Y-73774592D01*
X114948559Y-73910747D01*
X114728366Y-74080775D01*
X114728365Y-74080776D01*
X114535280Y-74281046D01*
X114373404Y-74507307D01*
X114246204Y-74754714D01*
X114156377Y-75018020D01*
X114105847Y-75291587D01*
X114095687Y-75569596D01*
X112904147Y-75569596D01*
X112900585Y-75501628D01*
X112900500Y-75498356D01*
X112900500Y-73350001D01*
X148272225Y-73350001D01*
X148277255Y-73399228D01*
X148277257Y-73399241D01*
X148331152Y-73561884D01*
X148421109Y-73707728D01*
X148421114Y-73707734D01*
X148542265Y-73828885D01*
X148542271Y-73828890D01*
X148688115Y-73918847D01*
X148688114Y-73918847D01*
X148850754Y-73972741D01*
X148850768Y-73972744D01*
X148875000Y-73975218D01*
X148875000Y-73350000D01*
X148272227Y-73350000D01*
X148272225Y-73350001D01*
X112900500Y-73350001D01*
X112900500Y-72649998D01*
X148272225Y-72649998D01*
X148272227Y-72650000D01*
X148875000Y-72650000D01*
X148875000Y-72024780D01*
X148874998Y-72024779D01*
X148850765Y-72027255D01*
X148850764Y-72027256D01*
X148688115Y-72081152D01*
X148542271Y-72171109D01*
X148542265Y-72171114D01*
X148421114Y-72292265D01*
X148421109Y-72292271D01*
X148331152Y-72438115D01*
X148277257Y-72600758D01*
X148277255Y-72600771D01*
X148272225Y-72649998D01*
X112900500Y-72649998D01*
X112900500Y-69540000D01*
X113321950Y-69540000D01*
X113342117Y-69796246D01*
X113402121Y-70046183D01*
X113500486Y-70283657D01*
X113584412Y-70420611D01*
X114161984Y-69843039D01*
X114165714Y-69856473D01*
X114252316Y-70019822D01*
X114372009Y-70160735D01*
X114519195Y-70272623D01*
X114658090Y-70336883D01*
X114079387Y-70915586D01*
X114216342Y-70999513D01*
X114453816Y-71097878D01*
X114703753Y-71157882D01*
X114959999Y-71178049D01*
X115216246Y-71157882D01*
X115466183Y-71097878D01*
X115703662Y-70999511D01*
X115840611Y-70915587D01*
X115840612Y-70915586D01*
X115260670Y-70335644D01*
X115319010Y-70315988D01*
X115477431Y-70220669D01*
X115611658Y-70093523D01*
X115715413Y-69940495D01*
X115755317Y-69840342D01*
X116335587Y-70420612D01*
X116335587Y-70420611D01*
X116419511Y-70283662D01*
X116517878Y-70046183D01*
X116577882Y-69796246D01*
X116598049Y-69540000D01*
X118401950Y-69540000D01*
X118422117Y-69796246D01*
X118482121Y-70046183D01*
X118580486Y-70283657D01*
X118664412Y-70420611D01*
X119241984Y-69843039D01*
X119245714Y-69856473D01*
X119332316Y-70019822D01*
X119452009Y-70160735D01*
X119599195Y-70272623D01*
X119738090Y-70336883D01*
X119159387Y-70915586D01*
X119296342Y-70999513D01*
X119533816Y-71097878D01*
X119783753Y-71157882D01*
X120039999Y-71178049D01*
X120296246Y-71157882D01*
X120546183Y-71097878D01*
X120783662Y-70999511D01*
X120920611Y-70915587D01*
X120920612Y-70915586D01*
X120340670Y-70335644D01*
X120399010Y-70315988D01*
X120557431Y-70220669D01*
X120691658Y-70093523D01*
X120795413Y-69940495D01*
X120835317Y-69840343D01*
X121415586Y-70420612D01*
X121415587Y-70420611D01*
X121499511Y-70283662D01*
X121597878Y-70046183D01*
X121657882Y-69796246D01*
X121678049Y-69540000D01*
X121657882Y-69283753D01*
X121597878Y-69033816D01*
X121499513Y-68796342D01*
X121415586Y-68659387D01*
X120838015Y-69236958D01*
X120834286Y-69223527D01*
X120747684Y-69060178D01*
X120627991Y-68919265D01*
X120480805Y-68807377D01*
X120341908Y-68743116D01*
X120920611Y-68164412D01*
X120783657Y-68080486D01*
X120546183Y-67982121D01*
X120296246Y-67922117D01*
X120039999Y-67901950D01*
X119783753Y-67922117D01*
X119533816Y-67982121D01*
X119296339Y-68080488D01*
X119159387Y-68164411D01*
X119159387Y-68164413D01*
X119739329Y-68744355D01*
X119680990Y-68764012D01*
X119522569Y-68859331D01*
X119388342Y-68986477D01*
X119284587Y-69139505D01*
X119244682Y-69239656D01*
X118664413Y-68659387D01*
X118664411Y-68659387D01*
X118580488Y-68796339D01*
X118482121Y-69033816D01*
X118422117Y-69283753D01*
X118401950Y-69540000D01*
X116598049Y-69540000D01*
X116577882Y-69283753D01*
X116517878Y-69033816D01*
X116419513Y-68796342D01*
X116335586Y-68659386D01*
X115758014Y-69236957D01*
X115754286Y-69223527D01*
X115667684Y-69060178D01*
X115547991Y-68919265D01*
X115400805Y-68807377D01*
X115261908Y-68743116D01*
X115840611Y-68164412D01*
X115703657Y-68080486D01*
X115466183Y-67982121D01*
X115216246Y-67922117D01*
X114959999Y-67901950D01*
X114703753Y-67922117D01*
X114453816Y-67982121D01*
X114216339Y-68080488D01*
X114079387Y-68164411D01*
X114079387Y-68164413D01*
X114659329Y-68744355D01*
X114600990Y-68764012D01*
X114442569Y-68859331D01*
X114308342Y-68986477D01*
X114204587Y-69139505D01*
X114164682Y-69239656D01*
X113584413Y-68659387D01*
X113584411Y-68659387D01*
X113500488Y-68796339D01*
X113402121Y-69033816D01*
X113342117Y-69283753D01*
X113321950Y-69540000D01*
X112900500Y-69540000D01*
X112900500Y-67000000D01*
X116269819Y-67000000D01*
X116288508Y-67213619D01*
X116318249Y-67324617D01*
X116325051Y-67350001D01*
X116344008Y-67420747D01*
X116434632Y-67615091D01*
X116499498Y-67707728D01*
X116557627Y-67790745D01*
X116557630Y-67790749D01*
X116709250Y-67942369D01*
X116709254Y-67942372D01*
X116709255Y-67942373D01*
X116884909Y-68065368D01*
X117079253Y-68155992D01*
X117286381Y-68211492D01*
X117500000Y-68230181D01*
X117713619Y-68211492D01*
X117920747Y-68155992D01*
X118115091Y-68065368D01*
X118290745Y-67942373D01*
X118442373Y-67790745D01*
X118565368Y-67615091D01*
X118655992Y-67420747D01*
X118674948Y-67350001D01*
X148272225Y-67350001D01*
X148277255Y-67399228D01*
X148277257Y-67399241D01*
X148331152Y-67561884D01*
X148421109Y-67707728D01*
X148421114Y-67707734D01*
X148542265Y-67828885D01*
X148542271Y-67828890D01*
X148688115Y-67918847D01*
X148688114Y-67918847D01*
X148850754Y-67972741D01*
X148850768Y-67972744D01*
X148875000Y-67975218D01*
X148875000Y-67350000D01*
X148272227Y-67350000D01*
X148272225Y-67350001D01*
X118674948Y-67350001D01*
X118711492Y-67213619D01*
X118730181Y-67000000D01*
X118711492Y-66786381D01*
X118674948Y-66649998D01*
X148272225Y-66649998D01*
X148272227Y-66650000D01*
X148875000Y-66650000D01*
X148875000Y-66024780D01*
X148874998Y-66024779D01*
X148850765Y-66027255D01*
X148850764Y-66027256D01*
X148688115Y-66081152D01*
X148542271Y-66171109D01*
X148542265Y-66171114D01*
X148421114Y-66292265D01*
X148421109Y-66292271D01*
X148331152Y-66438115D01*
X148277257Y-66600758D01*
X148277255Y-66600771D01*
X148272225Y-66649998D01*
X118674948Y-66649998D01*
X118655992Y-66579253D01*
X118565368Y-66384910D01*
X118442373Y-66209255D01*
X118290745Y-66057627D01*
X118115091Y-65934632D01*
X118115087Y-65934630D01*
X117920750Y-65844009D01*
X117920745Y-65844007D01*
X117824616Y-65818249D01*
X117713619Y-65788508D01*
X117500000Y-65769819D01*
X117286381Y-65788508D01*
X117230882Y-65803378D01*
X117079254Y-65844007D01*
X117079250Y-65844009D01*
X116884909Y-65934632D01*
X116709258Y-66057624D01*
X116709252Y-66057629D01*
X116557629Y-66209252D01*
X116557624Y-66209258D01*
X116434632Y-66384909D01*
X116344009Y-66579250D01*
X116344007Y-66579254D01*
X116325051Y-66650000D01*
X116288508Y-66786381D01*
X116269819Y-67000000D01*
X112900500Y-67000000D01*
X112900500Y-64460000D01*
X113321950Y-64460000D01*
X113342117Y-64716246D01*
X113402121Y-64966183D01*
X113500486Y-65203657D01*
X113584412Y-65340611D01*
X114161984Y-64763039D01*
X114165714Y-64776473D01*
X114252316Y-64939822D01*
X114372009Y-65080735D01*
X114519195Y-65192623D01*
X114658090Y-65256883D01*
X114079387Y-65835586D01*
X114216342Y-65919513D01*
X114453816Y-66017878D01*
X114703753Y-66077882D01*
X114960000Y-66098049D01*
X115216246Y-66077882D01*
X115466183Y-66017878D01*
X115703662Y-65919511D01*
X115840611Y-65835587D01*
X115840612Y-65835586D01*
X115260670Y-65255644D01*
X115319010Y-65235988D01*
X115477431Y-65140669D01*
X115611658Y-65013523D01*
X115715413Y-64860495D01*
X115755317Y-64760343D01*
X116335586Y-65340612D01*
X116335587Y-65340611D01*
X116419511Y-65203662D01*
X116517878Y-64966183D01*
X116577882Y-64716246D01*
X116598049Y-64460000D01*
X118401950Y-64460000D01*
X118422117Y-64716246D01*
X118482121Y-64966183D01*
X118580486Y-65203657D01*
X118664412Y-65340611D01*
X119241984Y-64763039D01*
X119245714Y-64776473D01*
X119332316Y-64939822D01*
X119452009Y-65080735D01*
X119599195Y-65192623D01*
X119738090Y-65256883D01*
X119159387Y-65835586D01*
X119296342Y-65919513D01*
X119533816Y-66017878D01*
X119783753Y-66077882D01*
X120040000Y-66098049D01*
X120296246Y-66077882D01*
X120546183Y-66017878D01*
X120783662Y-65919511D01*
X120920611Y-65835587D01*
X120920612Y-65835586D01*
X120340670Y-65255644D01*
X120399010Y-65235988D01*
X120557431Y-65140669D01*
X120691658Y-65013523D01*
X120795413Y-64860495D01*
X120835317Y-64760342D01*
X121415587Y-65340612D01*
X121415587Y-65340611D01*
X121499511Y-65203662D01*
X121597878Y-64966183D01*
X121657882Y-64716246D01*
X121678049Y-64460000D01*
X121657882Y-64203753D01*
X121597878Y-63953816D01*
X121499513Y-63716342D01*
X121415586Y-63579386D01*
X120838014Y-64156957D01*
X120834286Y-64143527D01*
X120747684Y-63980178D01*
X120627991Y-63839265D01*
X120480805Y-63727377D01*
X120341908Y-63663116D01*
X120920611Y-63084413D01*
X120920611Y-63084412D01*
X120783657Y-63000486D01*
X120546183Y-62902121D01*
X120296246Y-62842117D01*
X120040000Y-62821950D01*
X119783753Y-62842117D01*
X119533816Y-62902121D01*
X119296339Y-63000488D01*
X119159387Y-63084411D01*
X119159387Y-63084412D01*
X119739329Y-63664355D01*
X119680990Y-63684012D01*
X119522569Y-63779331D01*
X119388342Y-63906477D01*
X119284587Y-64059505D01*
X119244682Y-64159656D01*
X118664413Y-63579387D01*
X118664411Y-63579387D01*
X118580488Y-63716339D01*
X118482121Y-63953816D01*
X118422117Y-64203753D01*
X118401950Y-64460000D01*
X116598049Y-64460000D01*
X116577882Y-64203753D01*
X116517878Y-63953816D01*
X116419513Y-63716342D01*
X116335586Y-63579387D01*
X115758015Y-64156958D01*
X115754286Y-64143527D01*
X115667684Y-63980178D01*
X115547991Y-63839265D01*
X115400805Y-63727377D01*
X115261908Y-63663116D01*
X115840611Y-63084412D01*
X115703657Y-63000486D01*
X115466183Y-62902121D01*
X115216246Y-62842117D01*
X114960000Y-62821950D01*
X114703753Y-62842117D01*
X114453816Y-62902121D01*
X114216339Y-63000488D01*
X114079387Y-63084411D01*
X114079387Y-63084413D01*
X114659329Y-63664355D01*
X114600990Y-63684012D01*
X114442569Y-63779331D01*
X114308342Y-63906477D01*
X114204587Y-64059505D01*
X114164682Y-64159656D01*
X113584413Y-63579387D01*
X113584411Y-63579387D01*
X113500488Y-63716339D01*
X113402121Y-63953816D01*
X113342117Y-64203753D01*
X113321950Y-64460000D01*
X112900500Y-64460000D01*
X112900500Y-61350001D01*
X148272225Y-61350001D01*
X148277255Y-61399228D01*
X148277257Y-61399241D01*
X148331152Y-61561884D01*
X148421109Y-61707728D01*
X148421114Y-61707734D01*
X148542265Y-61828885D01*
X148542271Y-61828890D01*
X148688115Y-61918847D01*
X148688114Y-61918847D01*
X148850754Y-61972741D01*
X148850768Y-61972744D01*
X148875000Y-61975218D01*
X148875000Y-61350000D01*
X148272227Y-61350000D01*
X148272225Y-61350001D01*
X112900500Y-61350001D01*
X112900500Y-60649998D01*
X148272225Y-60649998D01*
X148272227Y-60650000D01*
X148875000Y-60650000D01*
X148875000Y-60024780D01*
X148874998Y-60024779D01*
X148850765Y-60027255D01*
X148850764Y-60027256D01*
X148688115Y-60081152D01*
X148542271Y-60171109D01*
X148542265Y-60171114D01*
X148421114Y-60292265D01*
X148421109Y-60292271D01*
X148331152Y-60438115D01*
X148277257Y-60600758D01*
X148277255Y-60600771D01*
X148272225Y-60649998D01*
X112900500Y-60649998D01*
X112900500Y-58569596D01*
X114095687Y-58569596D01*
X114126114Y-58846128D01*
X114196480Y-59115278D01*
X114269015Y-59285967D01*
X114305284Y-59371314D01*
X114450208Y-59608781D01*
X114628163Y-59822617D01*
X114835357Y-60008263D01*
X115067373Y-60161763D01*
X115319267Y-60279846D01*
X115585669Y-60359995D01*
X115860895Y-60400499D01*
X115860898Y-60400500D01*
X115860901Y-60400500D01*
X116069463Y-60400500D01*
X116277455Y-60385277D01*
X116548997Y-60324788D01*
X116808838Y-60225408D01*
X117051440Y-60089253D01*
X117271632Y-59919226D01*
X117464722Y-59718951D01*
X117626593Y-59492696D01*
X117753797Y-59245283D01*
X117843621Y-58981986D01*
X117894152Y-58708416D01*
X117904313Y-58430404D01*
X117873886Y-58153876D01*
X117803520Y-57884724D01*
X117694716Y-57628686D01*
X117549792Y-57391219D01*
X117371837Y-57177383D01*
X117164643Y-56991737D01*
X116932627Y-56838237D01*
X116796860Y-56774592D01*
X116680734Y-56720154D01*
X116601263Y-56696244D01*
X116414331Y-56640005D01*
X116414326Y-56640004D01*
X116414322Y-56640003D01*
X116139103Y-56599500D01*
X116139099Y-56599500D01*
X115930537Y-56599500D01*
X115722541Y-56614723D01*
X115451009Y-56675210D01*
X115450997Y-56675214D01*
X115191161Y-56774592D01*
X114948559Y-56910747D01*
X114728366Y-57080775D01*
X114728365Y-57080776D01*
X114535280Y-57281046D01*
X114373404Y-57507307D01*
X114246204Y-57754714D01*
X114156377Y-58018020D01*
X114105847Y-58291587D01*
X114095687Y-58569596D01*
X112900500Y-58569596D01*
X112900500Y-58501642D01*
X112900585Y-58498371D01*
X112917306Y-58179303D01*
X112917995Y-58172756D01*
X112951606Y-57960546D01*
X112967716Y-57858833D01*
X112969087Y-57852386D01*
X112995258Y-57754714D01*
X113051347Y-57545381D01*
X113053378Y-57539131D01*
X113167286Y-57242392D01*
X113169961Y-57236385D01*
X113314259Y-56953183D01*
X113317555Y-56947476D01*
X113333565Y-56922823D01*
X113490664Y-56680912D01*
X113494514Y-56675612D01*
X113694563Y-56428572D01*
X113698949Y-56423703D01*
X113923703Y-56198949D01*
X113928572Y-56194563D01*
X114175612Y-55994514D01*
X114180912Y-55990664D01*
X114447482Y-55817551D01*
X114453183Y-55814259D01*
X114736385Y-55669961D01*
X114742392Y-55667286D01*
X115039131Y-55553378D01*
X115045381Y-55551347D01*
X115352391Y-55469085D01*
X115358833Y-55467716D01*
X115672756Y-55417994D01*
X115679303Y-55417306D01*
X115998371Y-55400585D01*
X116001644Y-55400500D01*
X116057583Y-55400500D01*
X149374000Y-55400500D01*
X149442121Y-55420502D01*
G37*
%TD.AperFunction*%
%TD*%
%TA.AperFunction,Conductor*%
%TO.N,GND2*%
G36*
X184001628Y-55400585D02*
G01*
X184320694Y-55417306D01*
X184327243Y-55417995D01*
X184459421Y-55438930D01*
X184641162Y-55467715D01*
X184647612Y-55469086D01*
X184954612Y-55551346D01*
X184960873Y-55553380D01*
X185257600Y-55667283D01*
X185263622Y-55669965D01*
X185546808Y-55814255D01*
X185552523Y-55817555D01*
X185819077Y-55990658D01*
X185824396Y-55994522D01*
X186071417Y-56194555D01*
X186076306Y-56198959D01*
X186301040Y-56423693D01*
X186305445Y-56428583D01*
X186505475Y-56675600D01*
X186509345Y-56680927D01*
X186682444Y-56947476D01*
X186685744Y-56953191D01*
X186830034Y-57236377D01*
X186832718Y-57242405D01*
X186946615Y-57539115D01*
X186948654Y-57545391D01*
X187030912Y-57852386D01*
X187032284Y-57858840D01*
X187082004Y-58172756D01*
X187082694Y-58179318D01*
X187099414Y-58498371D01*
X187099500Y-58501642D01*
X187099500Y-75498356D01*
X187099414Y-75501628D01*
X187088578Y-75708412D01*
X187082694Y-75820680D01*
X187082004Y-75827243D01*
X187032284Y-76141159D01*
X187030912Y-76147613D01*
X186948654Y-76454608D01*
X186946615Y-76460884D01*
X186832718Y-76757594D01*
X186830034Y-76763622D01*
X186685744Y-77046808D01*
X186682444Y-77052523D01*
X186509345Y-77319072D01*
X186505468Y-77324408D01*
X186443851Y-77400500D01*
X186305456Y-77571403D01*
X186301040Y-77576306D01*
X186076306Y-77801040D01*
X186071403Y-77805456D01*
X185824410Y-78005467D01*
X185819072Y-78009345D01*
X185552523Y-78182444D01*
X185546808Y-78185744D01*
X185263622Y-78330034D01*
X185257594Y-78332718D01*
X184960884Y-78446615D01*
X184954608Y-78448654D01*
X184647613Y-78530912D01*
X184641159Y-78532284D01*
X184327243Y-78582004D01*
X184320680Y-78582694D01*
X184233428Y-78587266D01*
X184001628Y-78599414D01*
X183998356Y-78599500D01*
X150626000Y-78599500D01*
X150557879Y-78579498D01*
X150511386Y-78525842D01*
X150500000Y-78473500D01*
X150500000Y-75569596D01*
X182095687Y-75569596D01*
X182126114Y-75846128D01*
X182196480Y-76115278D01*
X182269015Y-76285967D01*
X182305284Y-76371314D01*
X182450208Y-76608781D01*
X182628163Y-76822617D01*
X182835357Y-77008263D01*
X183067373Y-77161763D01*
X183319267Y-77279846D01*
X183585669Y-77359995D01*
X183860895Y-77400499D01*
X183860898Y-77400500D01*
X183860901Y-77400500D01*
X184069463Y-77400500D01*
X184277455Y-77385277D01*
X184548997Y-77324788D01*
X184808838Y-77225408D01*
X185051440Y-77089253D01*
X185271632Y-76919226D01*
X185464722Y-76718951D01*
X185626593Y-76492696D01*
X185753797Y-76245283D01*
X185843621Y-75981986D01*
X185894152Y-75708416D01*
X185904313Y-75430404D01*
X185873886Y-75153876D01*
X185803520Y-74884724D01*
X185694716Y-74628686D01*
X185549792Y-74391219D01*
X185371837Y-74177383D01*
X185164643Y-73991737D01*
X184932627Y-73838237D01*
X184796860Y-73774592D01*
X184680734Y-73720154D01*
X184601263Y-73696244D01*
X184414331Y-73640005D01*
X184414326Y-73640004D01*
X184414322Y-73640003D01*
X184139103Y-73599500D01*
X184139099Y-73599500D01*
X183930537Y-73599500D01*
X183722541Y-73614723D01*
X183451009Y-73675210D01*
X183450997Y-73675214D01*
X183191161Y-73774592D01*
X182948559Y-73910747D01*
X182728366Y-74080775D01*
X182728365Y-74080776D01*
X182535280Y-74281046D01*
X182373404Y-74507307D01*
X182246204Y-74754714D01*
X182156377Y-75018020D01*
X182105847Y-75291587D01*
X182095687Y-75569596D01*
X150500000Y-75569596D01*
X150500000Y-73350000D01*
X151125000Y-73350000D01*
X151125000Y-73975218D01*
X151149231Y-73972744D01*
X151149245Y-73972741D01*
X151311884Y-73918847D01*
X151457728Y-73828890D01*
X151457734Y-73828885D01*
X151578885Y-73707734D01*
X151578890Y-73707728D01*
X151668847Y-73561884D01*
X151722742Y-73399241D01*
X151722744Y-73399228D01*
X151727774Y-73350001D01*
X151727773Y-73350000D01*
X151125000Y-73350000D01*
X150500000Y-73350000D01*
X150500000Y-72650000D01*
X151125000Y-72650000D01*
X151727773Y-72650000D01*
X151727774Y-72649998D01*
X151722744Y-72600771D01*
X151722742Y-72600758D01*
X151668847Y-72438115D01*
X151578890Y-72292271D01*
X151578885Y-72292265D01*
X151457734Y-72171114D01*
X151457728Y-72171109D01*
X151311884Y-72081152D01*
X151149235Y-72027256D01*
X151149234Y-72027255D01*
X151125001Y-72024779D01*
X151125000Y-72024780D01*
X151125000Y-72650000D01*
X150500000Y-72650000D01*
X150500000Y-69539999D01*
X178321950Y-69539999D01*
X178342117Y-69796246D01*
X178402121Y-70046183D01*
X178500486Y-70283657D01*
X178584412Y-70420611D01*
X179161984Y-69843039D01*
X179165714Y-69856473D01*
X179252316Y-70019822D01*
X179372009Y-70160735D01*
X179519195Y-70272623D01*
X179658090Y-70336883D01*
X179079387Y-70915586D01*
X179216342Y-70999513D01*
X179453816Y-71097878D01*
X179703753Y-71157882D01*
X179959999Y-71178049D01*
X180216246Y-71157882D01*
X180466183Y-71097878D01*
X180703662Y-70999511D01*
X180840611Y-70915587D01*
X180840612Y-70915586D01*
X180260670Y-70335644D01*
X180319010Y-70315988D01*
X180477431Y-70220669D01*
X180611658Y-70093523D01*
X180715413Y-69940495D01*
X180755317Y-69840343D01*
X181335586Y-70420612D01*
X181335587Y-70420611D01*
X181419511Y-70283662D01*
X181517878Y-70046183D01*
X181577882Y-69796246D01*
X181598049Y-69540000D01*
X181598049Y-69539999D01*
X183401950Y-69539999D01*
X183422117Y-69796246D01*
X183482121Y-70046183D01*
X183580486Y-70283657D01*
X183664412Y-70420611D01*
X184241984Y-69843039D01*
X184245714Y-69856473D01*
X184332316Y-70019822D01*
X184452009Y-70160735D01*
X184599195Y-70272623D01*
X184738090Y-70336883D01*
X184159387Y-70915586D01*
X184296342Y-70999513D01*
X184533816Y-71097878D01*
X184783753Y-71157882D01*
X185039999Y-71178049D01*
X185296246Y-71157882D01*
X185546183Y-71097878D01*
X185783662Y-70999511D01*
X185920611Y-70915587D01*
X185920612Y-70915586D01*
X185340670Y-70335644D01*
X185399010Y-70315988D01*
X185557431Y-70220669D01*
X185691658Y-70093523D01*
X185795413Y-69940495D01*
X185835317Y-69840342D01*
X186415586Y-70420612D01*
X186415587Y-70420611D01*
X186499511Y-70283662D01*
X186597878Y-70046183D01*
X186657882Y-69796246D01*
X186678049Y-69540000D01*
X186657882Y-69283753D01*
X186597878Y-69033816D01*
X186499513Y-68796342D01*
X186415586Y-68659387D01*
X185838015Y-69236958D01*
X185834286Y-69223527D01*
X185747684Y-69060178D01*
X185627991Y-68919265D01*
X185480805Y-68807377D01*
X185341908Y-68743116D01*
X185920611Y-68164412D01*
X185783657Y-68080486D01*
X185546183Y-67982121D01*
X185296246Y-67922117D01*
X185039999Y-67901950D01*
X184783753Y-67922117D01*
X184533816Y-67982121D01*
X184296339Y-68080488D01*
X184159387Y-68164411D01*
X184159387Y-68164413D01*
X184739329Y-68744355D01*
X184680990Y-68764012D01*
X184522569Y-68859331D01*
X184388342Y-68986477D01*
X184284587Y-69139505D01*
X184244682Y-69239656D01*
X183664413Y-68659387D01*
X183664411Y-68659387D01*
X183580488Y-68796339D01*
X183482121Y-69033816D01*
X183422117Y-69283753D01*
X183401950Y-69539999D01*
X181598049Y-69539999D01*
X181577882Y-69283753D01*
X181517878Y-69033816D01*
X181419513Y-68796342D01*
X181335586Y-68659387D01*
X180758015Y-69236958D01*
X180754286Y-69223527D01*
X180667684Y-69060178D01*
X180547991Y-68919265D01*
X180400805Y-68807377D01*
X180261908Y-68743116D01*
X180840611Y-68164412D01*
X180703657Y-68080486D01*
X180466183Y-67982121D01*
X180216246Y-67922117D01*
X179959999Y-67901950D01*
X179703753Y-67922117D01*
X179453816Y-67982121D01*
X179216339Y-68080488D01*
X179079387Y-68164411D01*
X179079387Y-68164413D01*
X179659329Y-68744355D01*
X179600990Y-68764012D01*
X179442569Y-68859331D01*
X179308342Y-68986477D01*
X179204587Y-69139505D01*
X179164682Y-69239656D01*
X178584413Y-68659387D01*
X178584411Y-68659387D01*
X178500488Y-68796339D01*
X178402121Y-69033816D01*
X178342117Y-69283753D01*
X178321950Y-69539999D01*
X150500000Y-69539999D01*
X150500000Y-67350000D01*
X151125000Y-67350000D01*
X151125000Y-67975218D01*
X151149231Y-67972744D01*
X151149245Y-67972741D01*
X151311884Y-67918847D01*
X151457728Y-67828890D01*
X151457734Y-67828885D01*
X151578885Y-67707734D01*
X151578890Y-67707728D01*
X151668847Y-67561884D01*
X151722742Y-67399241D01*
X151722744Y-67399228D01*
X151727774Y-67350001D01*
X151727773Y-67350000D01*
X151125000Y-67350000D01*
X150500000Y-67350000D01*
X150500000Y-67000000D01*
X181269819Y-67000000D01*
X181288508Y-67213619D01*
X181318249Y-67324617D01*
X181325051Y-67350001D01*
X181344008Y-67420747D01*
X181434632Y-67615091D01*
X181499498Y-67707728D01*
X181557627Y-67790745D01*
X181557630Y-67790749D01*
X181709250Y-67942369D01*
X181709254Y-67942372D01*
X181709255Y-67942373D01*
X181884909Y-68065368D01*
X182079253Y-68155992D01*
X182286381Y-68211492D01*
X182500000Y-68230181D01*
X182713619Y-68211492D01*
X182920747Y-68155992D01*
X183115091Y-68065368D01*
X183290745Y-67942373D01*
X183442373Y-67790745D01*
X183565368Y-67615091D01*
X183655992Y-67420747D01*
X183711492Y-67213619D01*
X183730181Y-67000000D01*
X183711492Y-66786381D01*
X183655992Y-66579253D01*
X183565368Y-66384910D01*
X183442373Y-66209255D01*
X183290745Y-66057627D01*
X183115091Y-65934632D01*
X183115087Y-65934630D01*
X182920750Y-65844009D01*
X182920745Y-65844007D01*
X182824617Y-65818249D01*
X182713619Y-65788508D01*
X182500000Y-65769819D01*
X182286381Y-65788508D01*
X182230882Y-65803378D01*
X182079254Y-65844007D01*
X182079250Y-65844009D01*
X181884909Y-65934632D01*
X181709258Y-66057624D01*
X181709252Y-66057629D01*
X181557629Y-66209252D01*
X181557624Y-66209258D01*
X181434632Y-66384909D01*
X181344009Y-66579250D01*
X181344007Y-66579254D01*
X181325051Y-66650000D01*
X181288508Y-66786381D01*
X181269819Y-67000000D01*
X150500000Y-67000000D01*
X150500000Y-66650000D01*
X151125000Y-66650000D01*
X151727773Y-66650000D01*
X151727774Y-66649998D01*
X151722744Y-66600771D01*
X151722742Y-66600758D01*
X151668847Y-66438115D01*
X151578890Y-66292271D01*
X151578885Y-66292265D01*
X151457734Y-66171114D01*
X151457728Y-66171109D01*
X151311884Y-66081152D01*
X151149235Y-66027256D01*
X151149234Y-66027255D01*
X151125001Y-66024779D01*
X151125000Y-66024780D01*
X151125000Y-66650000D01*
X150500000Y-66650000D01*
X150500000Y-64460000D01*
X178321950Y-64460000D01*
X178342117Y-64716246D01*
X178402121Y-64966183D01*
X178500486Y-65203657D01*
X178584412Y-65340611D01*
X179161984Y-64763039D01*
X179165714Y-64776473D01*
X179252316Y-64939822D01*
X179372009Y-65080735D01*
X179519195Y-65192623D01*
X179658090Y-65256883D01*
X179079387Y-65835586D01*
X179216342Y-65919513D01*
X179453816Y-66017878D01*
X179703753Y-66077882D01*
X179960000Y-66098049D01*
X180216246Y-66077882D01*
X180466183Y-66017878D01*
X180703662Y-65919511D01*
X180840611Y-65835587D01*
X180840612Y-65835586D01*
X180260670Y-65255644D01*
X180319010Y-65235988D01*
X180477431Y-65140669D01*
X180611658Y-65013523D01*
X180715413Y-64860495D01*
X180755317Y-64760343D01*
X181335586Y-65340612D01*
X181335587Y-65340611D01*
X181419511Y-65203662D01*
X181517878Y-64966183D01*
X181577882Y-64716246D01*
X181598049Y-64460000D01*
X183401950Y-64460000D01*
X183422117Y-64716246D01*
X183482121Y-64966183D01*
X183580486Y-65203657D01*
X183664413Y-65340611D01*
X184241984Y-64763040D01*
X184245714Y-64776473D01*
X184332316Y-64939822D01*
X184452009Y-65080735D01*
X184599195Y-65192623D01*
X184738090Y-65256883D01*
X184159387Y-65835586D01*
X184296342Y-65919513D01*
X184533816Y-66017878D01*
X184783753Y-66077882D01*
X185040000Y-66098049D01*
X185296246Y-66077882D01*
X185546183Y-66017878D01*
X185783662Y-65919511D01*
X185920611Y-65835587D01*
X185920612Y-65835586D01*
X185340670Y-65255644D01*
X185399010Y-65235988D01*
X185557431Y-65140669D01*
X185691658Y-65013523D01*
X185795413Y-64860495D01*
X185835317Y-64760342D01*
X186415586Y-65340612D01*
X186415587Y-65340611D01*
X186499511Y-65203662D01*
X186597878Y-64966183D01*
X186657882Y-64716246D01*
X186678049Y-64459999D01*
X186657882Y-64203753D01*
X186597878Y-63953816D01*
X186499513Y-63716342D01*
X186415586Y-63579387D01*
X185838015Y-64156958D01*
X185834286Y-64143527D01*
X185747684Y-63980178D01*
X185627991Y-63839265D01*
X185480805Y-63727377D01*
X185341908Y-63663116D01*
X185920611Y-63084413D01*
X185920611Y-63084412D01*
X185783657Y-63000486D01*
X185546183Y-62902121D01*
X185296246Y-62842117D01*
X185040000Y-62821950D01*
X184783753Y-62842117D01*
X184533816Y-62902121D01*
X184296339Y-63000488D01*
X184159387Y-63084411D01*
X184159387Y-63084412D01*
X184739330Y-63664354D01*
X184680990Y-63684012D01*
X184522569Y-63779331D01*
X184388342Y-63906477D01*
X184284587Y-64059505D01*
X184244682Y-64159656D01*
X183664412Y-63579387D01*
X183664411Y-63579387D01*
X183580488Y-63716339D01*
X183482121Y-63953816D01*
X183422117Y-64203753D01*
X183401950Y-64460000D01*
X181598049Y-64460000D01*
X181598049Y-64459999D01*
X181577882Y-64203753D01*
X181517878Y-63953816D01*
X181419513Y-63716342D01*
X181335586Y-63579387D01*
X180758015Y-64156958D01*
X180754286Y-64143527D01*
X180667684Y-63980178D01*
X180547991Y-63839265D01*
X180400805Y-63727377D01*
X180261908Y-63663116D01*
X180840611Y-63084412D01*
X180703657Y-63000486D01*
X180466183Y-62902121D01*
X180216246Y-62842117D01*
X179960000Y-62821950D01*
X179703753Y-62842117D01*
X179453816Y-62902121D01*
X179216339Y-63000488D01*
X179079387Y-63084411D01*
X179079387Y-63084413D01*
X179659329Y-63664355D01*
X179600990Y-63684012D01*
X179442569Y-63779331D01*
X179308342Y-63906477D01*
X179204587Y-64059505D01*
X179164682Y-64159656D01*
X178584413Y-63579387D01*
X178584411Y-63579387D01*
X178500488Y-63716339D01*
X178402121Y-63953816D01*
X178342117Y-64203753D01*
X178321950Y-64460000D01*
X150500000Y-64460000D01*
X150500000Y-61350000D01*
X151125000Y-61350000D01*
X151125000Y-61975218D01*
X151149231Y-61972744D01*
X151149245Y-61972741D01*
X151311884Y-61918847D01*
X151457728Y-61828890D01*
X151457734Y-61828885D01*
X151578885Y-61707734D01*
X151578890Y-61707728D01*
X151668847Y-61561884D01*
X151722742Y-61399241D01*
X151722744Y-61399228D01*
X151727774Y-61350001D01*
X151727773Y-61350000D01*
X151125000Y-61350000D01*
X150500000Y-61350000D01*
X150500000Y-60650000D01*
X151125000Y-60650000D01*
X151727773Y-60650000D01*
X151727774Y-60649998D01*
X151722744Y-60600771D01*
X151722742Y-60600758D01*
X151668847Y-60438115D01*
X151578890Y-60292271D01*
X151578885Y-60292265D01*
X151457734Y-60171114D01*
X151457728Y-60171109D01*
X151311884Y-60081152D01*
X151149235Y-60027256D01*
X151149234Y-60027255D01*
X151125001Y-60024779D01*
X151125000Y-60024780D01*
X151125000Y-60650000D01*
X150500000Y-60650000D01*
X150500000Y-58569596D01*
X182095687Y-58569596D01*
X182126114Y-58846128D01*
X182196480Y-59115278D01*
X182269015Y-59285967D01*
X182305284Y-59371314D01*
X182450208Y-59608781D01*
X182628163Y-59822617D01*
X182835357Y-60008263D01*
X183067373Y-60161763D01*
X183319267Y-60279846D01*
X183585669Y-60359995D01*
X183860895Y-60400499D01*
X183860898Y-60400500D01*
X183860901Y-60400500D01*
X184069463Y-60400500D01*
X184277455Y-60385277D01*
X184548997Y-60324788D01*
X184808838Y-60225408D01*
X185051440Y-60089253D01*
X185271632Y-59919226D01*
X185464722Y-59718951D01*
X185626593Y-59492696D01*
X185753797Y-59245283D01*
X185843621Y-58981986D01*
X185894152Y-58708416D01*
X185904313Y-58430404D01*
X185873886Y-58153876D01*
X185803520Y-57884724D01*
X185694716Y-57628686D01*
X185549792Y-57391219D01*
X185371837Y-57177383D01*
X185164643Y-56991737D01*
X184932627Y-56838237D01*
X184796860Y-56774592D01*
X184680734Y-56720154D01*
X184601263Y-56696244D01*
X184414331Y-56640005D01*
X184414326Y-56640004D01*
X184414322Y-56640003D01*
X184139103Y-56599500D01*
X184139099Y-56599500D01*
X183930537Y-56599500D01*
X183722541Y-56614723D01*
X183451009Y-56675210D01*
X183450997Y-56675214D01*
X183191161Y-56774592D01*
X182948559Y-56910747D01*
X182728366Y-57080775D01*
X182728365Y-57080776D01*
X182535280Y-57281046D01*
X182373404Y-57507307D01*
X182246204Y-57754714D01*
X182156377Y-58018020D01*
X182105847Y-58291587D01*
X182095687Y-58569596D01*
X150500000Y-58569596D01*
X150500000Y-55526500D01*
X150520002Y-55458379D01*
X150573658Y-55411886D01*
X150626000Y-55400500D01*
X183942417Y-55400500D01*
X183998356Y-55400500D01*
X184001628Y-55400585D01*
G37*
%TD.AperFunction*%
%TD*%
M02*
