%TF.GenerationSoftware,KiCad,Pcbnew,6.0.10*%
%TF.CreationDate,2023-05-25T16:41:47+02:00*%
%TF.ProjectId,saw_carrier,7361775f-6361-4727-9269-65722e6b6963,rev?*%
%TF.SameCoordinates,Original*%
%TF.FileFunction,Legend,Bot*%
%TF.FilePolarity,Positive*%
%FSLAX46Y46*%
G04 Gerber Fmt 4.6, Leading zero omitted, Abs format (unit mm)*
G04 Created by KiCad (PCBNEW 6.0.10) date 2023-05-25 16:41:47*
%MOMM*%
%LPD*%
G01*
G04 APERTURE LIST*
%ADD10C,0.150000*%
%ADD11C,0.120000*%
G04 APERTURE END LIST*
D10*
%TO.C,C6*%
X121416666Y-116722142D02*
X121464285Y-116769761D01*
X121607142Y-116817380D01*
X121702380Y-116817380D01*
X121845238Y-116769761D01*
X121940476Y-116674523D01*
X121988095Y-116579285D01*
X122035714Y-116388809D01*
X122035714Y-116245952D01*
X121988095Y-116055476D01*
X121940476Y-115960238D01*
X121845238Y-115865000D01*
X121702380Y-115817380D01*
X121607142Y-115817380D01*
X121464285Y-115865000D01*
X121416666Y-115912619D01*
X120559523Y-115817380D02*
X120750000Y-115817380D01*
X120845238Y-115865000D01*
X120892857Y-115912619D01*
X120988095Y-116055476D01*
X121035714Y-116245952D01*
X121035714Y-116626904D01*
X120988095Y-116722142D01*
X120940476Y-116769761D01*
X120845238Y-116817380D01*
X120654761Y-116817380D01*
X120559523Y-116769761D01*
X120511904Y-116722142D01*
X120464285Y-116626904D01*
X120464285Y-116388809D01*
X120511904Y-116293571D01*
X120559523Y-116245952D01*
X120654761Y-116198333D01*
X120845238Y-116198333D01*
X120940476Y-116245952D01*
X120988095Y-116293571D01*
X121035714Y-116388809D01*
%TO.C,C7*%
X121416666Y-109102142D02*
X121464285Y-109149761D01*
X121607142Y-109197380D01*
X121702380Y-109197380D01*
X121845238Y-109149761D01*
X121940476Y-109054523D01*
X121988095Y-108959285D01*
X122035714Y-108768809D01*
X122035714Y-108625952D01*
X121988095Y-108435476D01*
X121940476Y-108340238D01*
X121845238Y-108245000D01*
X121702380Y-108197380D01*
X121607142Y-108197380D01*
X121464285Y-108245000D01*
X121416666Y-108292619D01*
X121083333Y-108197380D02*
X120416666Y-108197380D01*
X120845238Y-109197380D01*
%TO.C,C5*%
X121416666Y-101482142D02*
X121464285Y-101529761D01*
X121607142Y-101577380D01*
X121702380Y-101577380D01*
X121845238Y-101529761D01*
X121940476Y-101434523D01*
X121988095Y-101339285D01*
X122035714Y-101148809D01*
X122035714Y-101005952D01*
X121988095Y-100815476D01*
X121940476Y-100720238D01*
X121845238Y-100625000D01*
X121702380Y-100577380D01*
X121607142Y-100577380D01*
X121464285Y-100625000D01*
X121416666Y-100672619D01*
X120511904Y-100577380D02*
X120988095Y-100577380D01*
X121035714Y-101053571D01*
X120988095Y-101005952D01*
X120892857Y-100958333D01*
X120654761Y-100958333D01*
X120559523Y-101005952D01*
X120511904Y-101053571D01*
X120464285Y-101148809D01*
X120464285Y-101386904D01*
X120511904Y-101482142D01*
X120559523Y-101529761D01*
X120654761Y-101577380D01*
X120892857Y-101577380D01*
X120988095Y-101529761D01*
X121035714Y-101482142D01*
D11*
%TO.C,C6*%
X121109420Y-114425000D02*
X121390580Y-114425000D01*
X121109420Y-115445000D02*
X121390580Y-115445000D01*
%TO.C,C7*%
X121109420Y-106805000D02*
X121390580Y-106805000D01*
X121109420Y-107825000D02*
X121390580Y-107825000D01*
%TO.C,C5*%
X121109420Y-100205000D02*
X121390580Y-100205000D01*
X121109420Y-99185000D02*
X121390580Y-99185000D01*
%TD*%
M02*
