%TF.GenerationSoftware,KiCad,Pcbnew,7.0.4*%
%TF.CreationDate,2023-05-28T10:47:35+02:00*%
%TF.ProjectId,saw_carrier,7361775f-6361-4727-9269-65722e6b6963,rev?*%
%TF.SameCoordinates,Original*%
%TF.FileFunction,Legend,Bot*%
%TF.FilePolarity,Positive*%
%FSLAX46Y46*%
G04 Gerber Fmt 4.6, Leading zero omitted, Abs format (unit mm)*
G04 Created by KiCad (PCBNEW 7.0.4) date 2023-05-28 10:47:35*
%MOMM*%
%LPD*%
G01*
G04 APERTURE LIST*
%ADD10C,0.150000*%
%ADD11C,0.120000*%
G04 APERTURE END LIST*
D10*
%TO.C,C1*%
X150166666Y-68789580D02*
X150214285Y-68837200D01*
X150214285Y-68837200D02*
X150357142Y-68884819D01*
X150357142Y-68884819D02*
X150452380Y-68884819D01*
X150452380Y-68884819D02*
X150595237Y-68837200D01*
X150595237Y-68837200D02*
X150690475Y-68741961D01*
X150690475Y-68741961D02*
X150738094Y-68646723D01*
X150738094Y-68646723D02*
X150785713Y-68456247D01*
X150785713Y-68456247D02*
X150785713Y-68313390D01*
X150785713Y-68313390D02*
X150738094Y-68122914D01*
X150738094Y-68122914D02*
X150690475Y-68027676D01*
X150690475Y-68027676D02*
X150595237Y-67932438D01*
X150595237Y-67932438D02*
X150452380Y-67884819D01*
X150452380Y-67884819D02*
X150357142Y-67884819D01*
X150357142Y-67884819D02*
X150214285Y-67932438D01*
X150214285Y-67932438D02*
X150166666Y-67980057D01*
X149214285Y-68884819D02*
X149785713Y-68884819D01*
X149499999Y-68884819D02*
X149499999Y-67884819D01*
X149499999Y-67884819D02*
X149595237Y-68027676D01*
X149595237Y-68027676D02*
X149690475Y-68122914D01*
X149690475Y-68122914D02*
X149785713Y-68170533D01*
%TO.C,C2*%
X150166666Y-62789580D02*
X150214285Y-62837200D01*
X150214285Y-62837200D02*
X150357142Y-62884819D01*
X150357142Y-62884819D02*
X150452380Y-62884819D01*
X150452380Y-62884819D02*
X150595237Y-62837200D01*
X150595237Y-62837200D02*
X150690475Y-62741961D01*
X150690475Y-62741961D02*
X150738094Y-62646723D01*
X150738094Y-62646723D02*
X150785713Y-62456247D01*
X150785713Y-62456247D02*
X150785713Y-62313390D01*
X150785713Y-62313390D02*
X150738094Y-62122914D01*
X150738094Y-62122914D02*
X150690475Y-62027676D01*
X150690475Y-62027676D02*
X150595237Y-61932438D01*
X150595237Y-61932438D02*
X150452380Y-61884819D01*
X150452380Y-61884819D02*
X150357142Y-61884819D01*
X150357142Y-61884819D02*
X150214285Y-61932438D01*
X150214285Y-61932438D02*
X150166666Y-61980057D01*
X149785713Y-61980057D02*
X149738094Y-61932438D01*
X149738094Y-61932438D02*
X149642856Y-61884819D01*
X149642856Y-61884819D02*
X149404761Y-61884819D01*
X149404761Y-61884819D02*
X149309523Y-61932438D01*
X149309523Y-61932438D02*
X149261904Y-61980057D01*
X149261904Y-61980057D02*
X149214285Y-62075295D01*
X149214285Y-62075295D02*
X149214285Y-62170533D01*
X149214285Y-62170533D02*
X149261904Y-62313390D01*
X149261904Y-62313390D02*
X149833332Y-62884819D01*
X149833332Y-62884819D02*
X149214285Y-62884819D01*
%TO.C,C3*%
X150166666Y-74789580D02*
X150214285Y-74837200D01*
X150214285Y-74837200D02*
X150357142Y-74884819D01*
X150357142Y-74884819D02*
X150452380Y-74884819D01*
X150452380Y-74884819D02*
X150595237Y-74837200D01*
X150595237Y-74837200D02*
X150690475Y-74741961D01*
X150690475Y-74741961D02*
X150738094Y-74646723D01*
X150738094Y-74646723D02*
X150785713Y-74456247D01*
X150785713Y-74456247D02*
X150785713Y-74313390D01*
X150785713Y-74313390D02*
X150738094Y-74122914D01*
X150738094Y-74122914D02*
X150690475Y-74027676D01*
X150690475Y-74027676D02*
X150595237Y-73932438D01*
X150595237Y-73932438D02*
X150452380Y-73884819D01*
X150452380Y-73884819D02*
X150357142Y-73884819D01*
X150357142Y-73884819D02*
X150214285Y-73932438D01*
X150214285Y-73932438D02*
X150166666Y-73980057D01*
X149833332Y-73884819D02*
X149214285Y-73884819D01*
X149214285Y-73884819D02*
X149547618Y-74265771D01*
X149547618Y-74265771D02*
X149404761Y-74265771D01*
X149404761Y-74265771D02*
X149309523Y-74313390D01*
X149309523Y-74313390D02*
X149261904Y-74361009D01*
X149261904Y-74361009D02*
X149214285Y-74456247D01*
X149214285Y-74456247D02*
X149214285Y-74694342D01*
X149214285Y-74694342D02*
X149261904Y-74789580D01*
X149261904Y-74789580D02*
X149309523Y-74837200D01*
X149309523Y-74837200D02*
X149404761Y-74884819D01*
X149404761Y-74884819D02*
X149690475Y-74884819D01*
X149690475Y-74884819D02*
X149785713Y-74837200D01*
X149785713Y-74837200D02*
X149833332Y-74789580D01*
D11*
%TO.C,C1*%
X149859420Y-66490000D02*
X150140580Y-66490000D01*
X149859420Y-67510000D02*
X150140580Y-67510000D01*
%TO.C,C2*%
X149859420Y-60490000D02*
X150140580Y-60490000D01*
X149859420Y-61510000D02*
X150140580Y-61510000D01*
%TO.C,C3*%
X149859420Y-72490000D02*
X150140580Y-72490000D01*
X149859420Y-73510000D02*
X150140580Y-73510000D01*
%TO.C,G1*%
G36*
X140344611Y-57120596D02*
G01*
X140349010Y-57122705D01*
X140371697Y-57133479D01*
X140406648Y-57149987D01*
X140452478Y-57171578D01*
X140507800Y-57197600D01*
X140571228Y-57227402D01*
X140641376Y-57260333D01*
X140716858Y-57295742D01*
X140796287Y-57332976D01*
X140878279Y-57371385D01*
X141345842Y-57590340D01*
X142656549Y-57592307D01*
X143967257Y-57594274D01*
X142813492Y-58639351D01*
X141659728Y-59684428D01*
X141681908Y-59728145D01*
X141688658Y-59741279D01*
X141702143Y-59767342D01*
X141721605Y-59804864D01*
X141746422Y-59852654D01*
X141775978Y-59909523D01*
X141809652Y-59974279D01*
X141846826Y-60045732D01*
X141886880Y-60122691D01*
X141929197Y-60203965D01*
X141973156Y-60288364D01*
X141975367Y-60292609D01*
X142018555Y-60375551D01*
X142059560Y-60454366D01*
X142097826Y-60527982D01*
X142132796Y-60595324D01*
X142163913Y-60655318D01*
X142190620Y-60706890D01*
X142212361Y-60748967D01*
X142228580Y-60780475D01*
X142238719Y-60800339D01*
X142242223Y-60807485D01*
X142239001Y-60807723D01*
X142221868Y-60808078D01*
X142190892Y-60808416D01*
X142147112Y-60808733D01*
X142091568Y-60809026D01*
X142025297Y-60809291D01*
X141949338Y-60809525D01*
X141864729Y-60809724D01*
X141772510Y-60809885D01*
X141673719Y-60810004D01*
X141569394Y-60810078D01*
X141460574Y-60810104D01*
X140678924Y-60810104D01*
X140642376Y-60736528D01*
X140630804Y-60712692D01*
X140618725Y-60686273D01*
X140611151Y-60667703D01*
X140609374Y-60659979D01*
X140611658Y-60658664D01*
X140625780Y-60651095D01*
X140651499Y-60637522D01*
X140687367Y-60618702D01*
X140731935Y-60595393D01*
X140783757Y-60568353D01*
X140841382Y-60538341D01*
X140903364Y-60506114D01*
X140914172Y-60500493D01*
X140981801Y-60465017D01*
X141042542Y-60432632D01*
X141095227Y-60403987D01*
X141138689Y-60379732D01*
X141171759Y-60360518D01*
X141193270Y-60346995D01*
X141202054Y-60339812D01*
X141203581Y-60334831D01*
X141202900Y-60325039D01*
X141198435Y-60310107D01*
X141189467Y-60288326D01*
X141175274Y-60257986D01*
X141155137Y-60217377D01*
X141128336Y-60164788D01*
X141046371Y-60005174D01*
X140872455Y-59923068D01*
X140698539Y-59840962D01*
X140259098Y-58995852D01*
X139819657Y-58150742D01*
X139333459Y-58150539D01*
X138847260Y-58150336D01*
X138665358Y-57621412D01*
X138639996Y-57547498D01*
X138611573Y-57464241D01*
X138585118Y-57386302D01*
X138561023Y-57314852D01*
X138539677Y-57251064D01*
X138521471Y-57196110D01*
X138506795Y-57151164D01*
X138496039Y-57117398D01*
X138489594Y-57095983D01*
X138487850Y-57088094D01*
X138491611Y-57086155D01*
X138507803Y-57080148D01*
X138533386Y-57071698D01*
X138564891Y-57061982D01*
X138584599Y-57055831D01*
X138611862Y-57046302D01*
X138630582Y-57038404D01*
X138637538Y-57033404D01*
X138637396Y-57030300D01*
X138635442Y-57012922D01*
X138631654Y-56986172D01*
X138626619Y-56953586D01*
X138620972Y-56918994D01*
X138918877Y-56918994D01*
X139041662Y-57155532D01*
X139064454Y-57199355D01*
X139091999Y-57252078D01*
X139116745Y-57299180D01*
X139137824Y-57339022D01*
X139154368Y-57369963D01*
X139165509Y-57390366D01*
X139170378Y-57398589D01*
X139171816Y-57398460D01*
X139182851Y-57391301D01*
X139203294Y-57375274D01*
X139231696Y-57351603D01*
X139266608Y-57321508D01*
X139306581Y-57286211D01*
X139350167Y-57246936D01*
X139524024Y-57088763D01*
X139393006Y-57084874D01*
X139261987Y-57080985D01*
X139181660Y-56926620D01*
X139170298Y-56904824D01*
X139147850Y-56862004D01*
X139128224Y-56824885D01*
X139112502Y-56795495D01*
X139101765Y-56775862D01*
X139097094Y-56768016D01*
X139090383Y-56771059D01*
X139074629Y-56782848D01*
X139052266Y-56801522D01*
X139025684Y-56825168D01*
X139001256Y-56847376D01*
X138974301Y-56871612D01*
X138952379Y-56891032D01*
X138938694Y-56902776D01*
X138918877Y-56918994D01*
X138620972Y-56918994D01*
X138620924Y-56918701D01*
X138615156Y-56885055D01*
X138609902Y-56856184D01*
X138605748Y-56835627D01*
X138603281Y-56826919D01*
X138601962Y-56826616D01*
X138588739Y-56826547D01*
X138563456Y-56827487D01*
X138528647Y-56829269D01*
X138486847Y-56831727D01*
X138440591Y-56834695D01*
X138392414Y-56838005D01*
X138344850Y-56841492D01*
X138300434Y-56844989D01*
X138261701Y-56848330D01*
X138231185Y-56851348D01*
X138230304Y-56852719D01*
X138229241Y-56863227D01*
X138228996Y-56865075D01*
X138224997Y-56869246D01*
X138214363Y-56872074D01*
X138194864Y-56873799D01*
X138164273Y-56874659D01*
X138120361Y-56874892D01*
X138011482Y-56874892D01*
X138011482Y-56629914D01*
X138011482Y-56384935D01*
X138120361Y-56384935D01*
X138132542Y-56384949D01*
X138173175Y-56385338D01*
X138200978Y-56386437D01*
X138218135Y-56388470D01*
X138226828Y-56391665D01*
X138229241Y-56396249D01*
X138236158Y-56405524D01*
X138254516Y-56411690D01*
X138266904Y-56413091D01*
X138293070Y-56415499D01*
X138330701Y-56418715D01*
X138377729Y-56422580D01*
X138432084Y-56426937D01*
X138491696Y-56431627D01*
X138554497Y-56436492D01*
X138618417Y-56441375D01*
X138681386Y-56446117D01*
X138741335Y-56450560D01*
X138796194Y-56454547D01*
X138843894Y-56457919D01*
X138882366Y-56460518D01*
X138909540Y-56462186D01*
X138923347Y-56462765D01*
X138944734Y-56462706D01*
X138944734Y-56245241D01*
X138944734Y-56027776D01*
X139036115Y-56071039D01*
X139066740Y-56085530D01*
X139104982Y-56103371D01*
X139132759Y-56115523D01*
X139152286Y-56122547D01*
X139165777Y-56125003D01*
X139175448Y-56123453D01*
X139183514Y-56118458D01*
X139192188Y-56110580D01*
X139196538Y-56106602D01*
X139237615Y-56075884D01*
X139287567Y-56047759D01*
X139340521Y-56025591D01*
X139341257Y-56025338D01*
X139370178Y-56016707D01*
X139399068Y-56011370D01*
X139433105Y-56008658D01*
X139477465Y-56007902D01*
X139481729Y-56007913D01*
X139548407Y-56011585D01*
X139605885Y-56022780D01*
X139658988Y-56042835D01*
X139712541Y-56073087D01*
X139722190Y-56079471D01*
X139752218Y-56101800D01*
X139779737Y-56127001D01*
X139806178Y-56156982D01*
X139832972Y-56193650D01*
X139861548Y-56238914D01*
X139893337Y-56294681D01*
X139929769Y-56362860D01*
X140016550Y-56528812D01*
X140605248Y-56804899D01*
X141193945Y-57080985D01*
X140736225Y-57084874D01*
X140278506Y-57088763D01*
X140344611Y-57120596D01*
G37*
G36*
X144325630Y-64825420D02*
G01*
X144332141Y-64834103D01*
X144343686Y-64853123D01*
X144358717Y-64879579D01*
X144375684Y-64910569D01*
X144393039Y-64943191D01*
X144409233Y-64974543D01*
X144422718Y-65001725D01*
X144431945Y-65021834D01*
X144435364Y-65031969D01*
X144432454Y-65036669D01*
X144419203Y-65050729D01*
X144396749Y-65072168D01*
X144366754Y-65099542D01*
X144330884Y-65131405D01*
X144290800Y-65166314D01*
X144248166Y-65202824D01*
X144204646Y-65239489D01*
X144161901Y-65274865D01*
X144121597Y-65307507D01*
X144085395Y-65335970D01*
X144058574Y-65356670D01*
X144026300Y-65381657D01*
X143999749Y-65402305D01*
X143981124Y-65416902D01*
X143972627Y-65423731D01*
X143972437Y-65423918D01*
X143977130Y-65423773D01*
X143993747Y-65419078D01*
X144019796Y-65410599D01*
X144052785Y-65399102D01*
X144062132Y-65395877D01*
X144090932Y-65386624D01*
X144129331Y-65374878D01*
X144175100Y-65361269D01*
X144226013Y-65346424D01*
X144279840Y-65330973D01*
X144334352Y-65315543D01*
X144387323Y-65300763D01*
X144436522Y-65287261D01*
X144479722Y-65275666D01*
X144514694Y-65266606D01*
X144539210Y-65260709D01*
X144551041Y-65258603D01*
X144553472Y-65260908D01*
X144562407Y-65274499D01*
X144576212Y-65298239D01*
X144593538Y-65329775D01*
X144613036Y-65366751D01*
X144668992Y-65474898D01*
X144521136Y-65605504D01*
X144496500Y-65627131D01*
X144450544Y-65666842D01*
X144405343Y-65705172D01*
X144363598Y-65739863D01*
X144328009Y-65768658D01*
X144301276Y-65789298D01*
X144275831Y-65808095D01*
X144247052Y-65829357D01*
X144223905Y-65846461D01*
X144209829Y-65856866D01*
X144209018Y-65857486D01*
X144208110Y-65861023D01*
X144221514Y-65858771D01*
X144249129Y-65850757D01*
X144290851Y-65837006D01*
X144317613Y-65828378D01*
X144357070Y-65816599D01*
X144403770Y-65803348D01*
X144455492Y-65789190D01*
X144510013Y-65774694D01*
X144565112Y-65760425D01*
X144618566Y-65746951D01*
X144668152Y-65734839D01*
X144711650Y-65724656D01*
X144746837Y-65716968D01*
X144771490Y-65712343D01*
X144783388Y-65711348D01*
X144785887Y-65713698D01*
X144794904Y-65726764D01*
X144808457Y-65748820D01*
X144824990Y-65777068D01*
X144842945Y-65808713D01*
X144860766Y-65840956D01*
X144876894Y-65871001D01*
X144889773Y-65896051D01*
X144897845Y-65913309D01*
X144899553Y-65919979D01*
X144899497Y-65919991D01*
X144890850Y-65921930D01*
X144868424Y-65926958D01*
X144833526Y-65934784D01*
X144787460Y-65945115D01*
X144731535Y-65957656D01*
X144667056Y-65972116D01*
X144595331Y-65988201D01*
X144517664Y-66005619D01*
X144435364Y-66024076D01*
X144429978Y-66025284D01*
X144347835Y-66043705D01*
X144270337Y-66061083D01*
X144198800Y-66077124D01*
X144134540Y-66091531D01*
X144078874Y-66104011D01*
X144033118Y-66114267D01*
X143998590Y-66122005D01*
X143976606Y-66126929D01*
X143968482Y-66128745D01*
X143966533Y-66126615D01*
X143958489Y-66113607D01*
X143945782Y-66091217D01*
X143929910Y-66062269D01*
X143912370Y-66029590D01*
X143894661Y-65996007D01*
X143878279Y-65964343D01*
X143864724Y-65937427D01*
X143855492Y-65918083D01*
X143852082Y-65909137D01*
X143854738Y-65905769D01*
X143867729Y-65893534D01*
X143890029Y-65873901D01*
X143919950Y-65848269D01*
X143955806Y-65818036D01*
X143995908Y-65784599D01*
X144038570Y-65749357D01*
X144082105Y-65713708D01*
X144124824Y-65679050D01*
X144165040Y-65646781D01*
X144201066Y-65618299D01*
X144231216Y-65595003D01*
X144243024Y-65586021D01*
X144272817Y-65563222D01*
X144296837Y-65544642D01*
X144312872Y-65532000D01*
X144318708Y-65527015D01*
X144314932Y-65527856D01*
X144299260Y-65532787D01*
X144274225Y-65541164D01*
X144242881Y-65551983D01*
X144227205Y-65557288D01*
X144194602Y-65567481D01*
X144154444Y-65579081D01*
X144105460Y-65592422D01*
X144046381Y-65607839D01*
X143975936Y-65625667D01*
X143892858Y-65646242D01*
X143795874Y-65669898D01*
X143785484Y-65672360D01*
X143755598Y-65678280D01*
X143737483Y-65679323D01*
X143728847Y-65675687D01*
X143727891Y-65674299D01*
X143720374Y-65661195D01*
X143707787Y-65637762D01*
X143691630Y-65606828D01*
X143673402Y-65571216D01*
X143666520Y-65557632D01*
X143649391Y-65523376D01*
X143638326Y-65499643D01*
X143632556Y-65483912D01*
X143631312Y-65473663D01*
X143633826Y-65466373D01*
X143639327Y-65459523D01*
X143642714Y-65456067D01*
X143656927Y-65442370D01*
X143680405Y-65420168D01*
X143711935Y-65390585D01*
X143750301Y-65354743D01*
X143794288Y-65313768D01*
X143842683Y-65268782D01*
X143894270Y-65220909D01*
X143947834Y-65171274D01*
X144002161Y-65121000D01*
X144056036Y-65071210D01*
X144108244Y-65023029D01*
X144157571Y-64977580D01*
X144202802Y-64935987D01*
X144242722Y-64899374D01*
X144276117Y-64868864D01*
X144301771Y-64845581D01*
X144318471Y-64830650D01*
X144325001Y-64825193D01*
X144325630Y-64825420D01*
G37*
G36*
X143228716Y-62707729D02*
G01*
X143246465Y-62742253D01*
X143264701Y-62778552D01*
X143279165Y-62808282D01*
X143288696Y-62829046D01*
X143292131Y-62838448D01*
X143290865Y-62840873D01*
X143280556Y-62853085D01*
X143261148Y-62873724D01*
X143234171Y-62901301D01*
X143201155Y-62934331D01*
X143163630Y-62971325D01*
X143123127Y-63010797D01*
X143081176Y-63051258D01*
X143039309Y-63091221D01*
X142999055Y-63129200D01*
X142961944Y-63163706D01*
X142929508Y-63193253D01*
X142903276Y-63216353D01*
X142901136Y-63218188D01*
X142883272Y-63233851D01*
X142876333Y-63241561D01*
X142879414Y-63243206D01*
X142891611Y-63240669D01*
X142909318Y-63236560D01*
X142938970Y-63229928D01*
X142978071Y-63221321D01*
X143024566Y-63211180D01*
X143076402Y-63199944D01*
X143131524Y-63188055D01*
X143187879Y-63175952D01*
X143243412Y-63164075D01*
X143296071Y-63152864D01*
X143343800Y-63142760D01*
X143384547Y-63134203D01*
X143416256Y-63127632D01*
X143436875Y-63123489D01*
X143444350Y-63122213D01*
X143444465Y-63122380D01*
X143449959Y-63132109D01*
X143460774Y-63152440D01*
X143475520Y-63180662D01*
X143492808Y-63214065D01*
X143511249Y-63249938D01*
X143529452Y-63285569D01*
X143546029Y-63318248D01*
X143559590Y-63345264D01*
X143568746Y-63363907D01*
X143572107Y-63371465D01*
X143567134Y-63375593D01*
X143550291Y-63387689D01*
X143522629Y-63406932D01*
X143485284Y-63432550D01*
X143439388Y-63463772D01*
X143386077Y-63499827D01*
X143326483Y-63539944D01*
X143261741Y-63583351D01*
X143192986Y-63629277D01*
X143131945Y-63669928D01*
X143066407Y-63713463D01*
X143005732Y-63753649D01*
X142951072Y-63789730D01*
X142903580Y-63820949D01*
X142864408Y-63846548D01*
X142834708Y-63865770D01*
X142815632Y-63877859D01*
X142808332Y-63882057D01*
X142807715Y-63881838D01*
X142800901Y-63873113D01*
X142789497Y-63853863D01*
X142775005Y-63827114D01*
X142758925Y-63795890D01*
X142742760Y-63763214D01*
X142728011Y-63732111D01*
X142716178Y-63705605D01*
X142708764Y-63686720D01*
X142707269Y-63678481D01*
X142707283Y-63678467D01*
X142715276Y-63673083D01*
X142734716Y-63660803D01*
X142763750Y-63642758D01*
X142800523Y-63620078D01*
X142843180Y-63593892D01*
X142889868Y-63565329D01*
X142938731Y-63535521D01*
X142987916Y-63505596D01*
X143035567Y-63476685D01*
X143079830Y-63449917D01*
X143118852Y-63426421D01*
X143150777Y-63407329D01*
X143173750Y-63393769D01*
X143185919Y-63386871D01*
X143199197Y-63379109D01*
X143204232Y-63373023D01*
X143195396Y-63372192D01*
X143173276Y-63377072D01*
X143160171Y-63380313D01*
X143133435Y-63386390D01*
X143096373Y-63394525D01*
X143051114Y-63404274D01*
X142999784Y-63415194D01*
X142944513Y-63426843D01*
X142887427Y-63438777D01*
X142830656Y-63450554D01*
X142776326Y-63461731D01*
X142726566Y-63471864D01*
X142683503Y-63480512D01*
X142649266Y-63487231D01*
X142625983Y-63491578D01*
X142615780Y-63493110D01*
X142609647Y-63489121D01*
X142596799Y-63472747D01*
X142579634Y-63445389D01*
X142559359Y-63408849D01*
X142514860Y-63324680D01*
X142731997Y-63109523D01*
X142746071Y-63095573D01*
X142792793Y-63049193D01*
X142835446Y-63006747D01*
X142872867Y-62969402D01*
X142903888Y-62938324D01*
X142927346Y-62914681D01*
X142942073Y-62899639D01*
X142946904Y-62894366D01*
X142945331Y-62894855D01*
X142931680Y-62900366D01*
X142904644Y-62911795D01*
X142864831Y-62928880D01*
X142812846Y-62951360D01*
X142749294Y-62978972D01*
X142674781Y-63011456D01*
X142589914Y-63048549D01*
X142557256Y-63062830D01*
X142509825Y-63083447D01*
X142473902Y-63098704D01*
X142447740Y-63109167D01*
X142429593Y-63115403D01*
X142417713Y-63117978D01*
X142410356Y-63117457D01*
X142405773Y-63114408D01*
X142402218Y-63109396D01*
X142395362Y-63097305D01*
X142382937Y-63074080D01*
X142367052Y-63043630D01*
X142349527Y-63009410D01*
X142307268Y-62926138D01*
X142614993Y-62804222D01*
X142631908Y-62797520D01*
X142703305Y-62769223D01*
X142774484Y-62741000D01*
X142843070Y-62713792D01*
X142906689Y-62688542D01*
X142962968Y-62666192D01*
X143009533Y-62647684D01*
X143044009Y-62633960D01*
X143165300Y-62585614D01*
X143228716Y-62707729D01*
G37*
G36*
X142615398Y-61523106D02*
G01*
X142212996Y-61733463D01*
X142149566Y-61766580D01*
X142079670Y-61802972D01*
X142014885Y-61836597D01*
X141956450Y-61866817D01*
X141905600Y-61892997D01*
X141863575Y-61914498D01*
X141831611Y-61930683D01*
X141810946Y-61940917D01*
X141802817Y-61944562D01*
X141802499Y-61944520D01*
X141795973Y-61937082D01*
X141784489Y-61918994D01*
X141769636Y-61893272D01*
X141753006Y-61862930D01*
X141736189Y-61830986D01*
X141720776Y-61800455D01*
X141708358Y-61774352D01*
X141700526Y-61755694D01*
X141698870Y-61747496D01*
X141701042Y-61746100D01*
X141714760Y-61738425D01*
X141739273Y-61725167D01*
X141772568Y-61707403D01*
X141812634Y-61686208D01*
X141857457Y-61662659D01*
X141879738Y-61650923D01*
X141922434Y-61628021D01*
X141959308Y-61607697D01*
X141988357Y-61591085D01*
X142007578Y-61579318D01*
X142014968Y-61573528D01*
X142013366Y-61562836D01*
X141999108Y-61553112D01*
X141971242Y-61545043D01*
X141929133Y-61538448D01*
X141872145Y-61533148D01*
X141827390Y-61529799D01*
X141770493Y-61525372D01*
X141714301Y-61520850D01*
X141666221Y-61516819D01*
X141568510Y-61508381D01*
X141507900Y-61392094D01*
X141492576Y-61362255D01*
X141475199Y-61327153D01*
X141469806Y-61315638D01*
X142098944Y-61315638D01*
X142101211Y-61345771D01*
X142112644Y-61383641D01*
X142133417Y-61431532D01*
X142143456Y-61452201D01*
X142156649Y-61477842D01*
X142166557Y-61495240D01*
X142171574Y-61501450D01*
X142171770Y-61501398D01*
X142180991Y-61497086D01*
X142200901Y-61486960D01*
X142228720Y-61472454D01*
X142261666Y-61455002D01*
X142264048Y-61453732D01*
X142297019Y-61436244D01*
X142324917Y-61421609D01*
X142344864Y-61411328D01*
X142353983Y-61406899D01*
X142354483Y-61399736D01*
X142348389Y-61382509D01*
X142337179Y-61358495D01*
X142322482Y-61330930D01*
X142305924Y-61303045D01*
X142289135Y-61278075D01*
X142280721Y-61267683D01*
X142258372Y-61246477D01*
X142236662Y-61232755D01*
X142233654Y-61231514D01*
X142214938Y-61225572D01*
X142198521Y-61226198D01*
X142176250Y-61233492D01*
X142170789Y-61235769D01*
X142143705Y-61251171D01*
X142121056Y-61269605D01*
X142105668Y-61290957D01*
X142098944Y-61315638D01*
X141469806Y-61315638D01*
X141461885Y-61298727D01*
X141453722Y-61279326D01*
X141451801Y-61271296D01*
X141454184Y-61270739D01*
X141469444Y-61270627D01*
X141496495Y-61271813D01*
X141532828Y-61274088D01*
X141575939Y-61277245D01*
X141623320Y-61281077D01*
X141672464Y-61285377D01*
X141720864Y-61289938D01*
X141766013Y-61294551D01*
X141805406Y-61299011D01*
X141836534Y-61303109D01*
X141901360Y-61312644D01*
X141897651Y-61288854D01*
X141896764Y-61260699D01*
X141902275Y-61220650D01*
X141913581Y-61179080D01*
X141929322Y-61142276D01*
X141932182Y-61137173D01*
X141965957Y-61092023D01*
X142010618Y-61052141D01*
X142061988Y-61021333D01*
X142063481Y-61020635D01*
X142088224Y-61010346D01*
X142111463Y-61004270D01*
X142138870Y-61001378D01*
X142176118Y-61000643D01*
X142183831Y-61000691D01*
X142235390Y-61004642D01*
X142277685Y-61016205D01*
X142315368Y-61037184D01*
X142353086Y-61069386D01*
X142366623Y-61083254D01*
X142383608Y-61102942D01*
X142400848Y-61126083D01*
X142419426Y-61154438D01*
X142440424Y-61189767D01*
X142464923Y-61233830D01*
X142494006Y-61288388D01*
X142528754Y-61355199D01*
X142551736Y-61399736D01*
X142615398Y-61523106D01*
G37*
G36*
X145208792Y-64015974D02*
G01*
X145215073Y-64026979D01*
X145226155Y-64047805D01*
X145240541Y-64075501D01*
X145256733Y-64107112D01*
X145273234Y-64139688D01*
X145288548Y-64170274D01*
X145301176Y-64195918D01*
X145309623Y-64213668D01*
X145312390Y-64220570D01*
X145312308Y-64220630D01*
X145304171Y-64225049D01*
X145284516Y-64235372D01*
X145255507Y-64250472D01*
X145219306Y-64269223D01*
X145178077Y-64290498D01*
X145177817Y-64290632D01*
X145135351Y-64312593D01*
X145096754Y-64332711D01*
X145064519Y-64349675D01*
X145041141Y-64362171D01*
X145029112Y-64368889D01*
X145024834Y-64371662D01*
X145020438Y-64376399D01*
X145019538Y-64383588D01*
X145022864Y-64395504D01*
X145031143Y-64414418D01*
X145045105Y-64442606D01*
X145065478Y-64482338D01*
X145074498Y-64499684D01*
X145092848Y-64533888D01*
X145108520Y-64561672D01*
X145120083Y-64580542D01*
X145126105Y-64588003D01*
X145127191Y-64587961D01*
X145139304Y-64583527D01*
X145162425Y-64573106D01*
X145194392Y-64557731D01*
X145233041Y-64538437D01*
X145276210Y-64516257D01*
X145287964Y-64510146D01*
X145329982Y-64488465D01*
X145366748Y-64469743D01*
X145396132Y-64455047D01*
X145416004Y-64445446D01*
X145424234Y-64442008D01*
X145424773Y-64442141D01*
X145431911Y-64450380D01*
X145443655Y-64469248D01*
X145458478Y-64495721D01*
X145474855Y-64526773D01*
X145491259Y-64559380D01*
X145506163Y-64590518D01*
X145518041Y-64617162D01*
X145525366Y-64636287D01*
X145526612Y-64644869D01*
X145521427Y-64648050D01*
X145503452Y-64657985D01*
X145473897Y-64673897D01*
X145434010Y-64695128D01*
X145385042Y-64721018D01*
X145328240Y-64750906D01*
X145264854Y-64784132D01*
X145196132Y-64820037D01*
X145123325Y-64857961D01*
X145065137Y-64888197D01*
X144995657Y-64924230D01*
X144931306Y-64957522D01*
X144873321Y-64987439D01*
X144822941Y-65013345D01*
X144781402Y-65034603D01*
X144749942Y-65050577D01*
X144729799Y-65060631D01*
X144722210Y-65064130D01*
X144720842Y-65062923D01*
X144713231Y-65051256D01*
X144700573Y-65029173D01*
X144684242Y-64999117D01*
X144665611Y-64963527D01*
X144613808Y-64862879D01*
X144647076Y-64844027D01*
X144663107Y-64835256D01*
X144690988Y-64820413D01*
X144727118Y-64801422D01*
X144768605Y-64779803D01*
X144812554Y-64757075D01*
X144814666Y-64755987D01*
X144856103Y-64734504D01*
X144892734Y-64715268D01*
X144922299Y-64699488D01*
X144942536Y-64688369D01*
X144951183Y-64683118D01*
X144951905Y-64681500D01*
X144949230Y-64668023D01*
X144939357Y-64643090D01*
X144922941Y-64608121D01*
X144900634Y-64564533D01*
X144873092Y-64513744D01*
X144845985Y-64464935D01*
X144672172Y-64554723D01*
X144498359Y-64644512D01*
X144447542Y-64545204D01*
X144440491Y-64531295D01*
X144423585Y-64496756D01*
X144410326Y-64467924D01*
X144401915Y-64447484D01*
X144399557Y-64438120D01*
X144402917Y-64435660D01*
X144418449Y-64426591D01*
X144445268Y-64411737D01*
X144481902Y-64391869D01*
X144526880Y-64367754D01*
X144578729Y-64340164D01*
X144635977Y-64309866D01*
X144697153Y-64277632D01*
X144760784Y-64244230D01*
X144825399Y-64210431D01*
X144889525Y-64177003D01*
X144951691Y-64144716D01*
X145010424Y-64114340D01*
X145064253Y-64086644D01*
X145111706Y-64062397D01*
X145151311Y-64042370D01*
X145181595Y-64027332D01*
X145201087Y-64018052D01*
X145208315Y-64015300D01*
X145208792Y-64015974D01*
G37*
G36*
X143961153Y-61627748D02*
G01*
X143968356Y-61638588D01*
X143980351Y-61659211D01*
X143995592Y-61686697D01*
X144012533Y-61718123D01*
X144029629Y-61750570D01*
X144045335Y-61781115D01*
X144058104Y-61806838D01*
X144066391Y-61824817D01*
X144068650Y-61832131D01*
X144067313Y-61832909D01*
X144055105Y-61839420D01*
X144031900Y-61851578D01*
X143999738Y-61868319D01*
X143960661Y-61888579D01*
X143916709Y-61911295D01*
X143767465Y-61988317D01*
X143822799Y-62095261D01*
X143826759Y-62102900D01*
X143848422Y-62143796D01*
X143864847Y-62172441D01*
X143877277Y-62190389D01*
X143886954Y-62199196D01*
X143895122Y-62200414D01*
X143903022Y-62195598D01*
X143903468Y-62195247D01*
X143914087Y-62188912D01*
X143936010Y-62176844D01*
X143967000Y-62160244D01*
X144004820Y-62140311D01*
X144047234Y-62118245D01*
X144184057Y-62047498D01*
X144236634Y-62148673D01*
X144244975Y-62164925D01*
X144261784Y-62199091D01*
X144274630Y-62227229D01*
X144282381Y-62246781D01*
X144283901Y-62255190D01*
X144278653Y-62258314D01*
X144260673Y-62268151D01*
X144231140Y-62283988D01*
X144191291Y-62305169D01*
X144142364Y-62331040D01*
X144085598Y-62360949D01*
X144022228Y-62394239D01*
X143953493Y-62430258D01*
X143880631Y-62468350D01*
X143820660Y-62499645D01*
X143751212Y-62535827D01*
X143686937Y-62569250D01*
X143629064Y-62599279D01*
X143578824Y-62625278D01*
X143537445Y-62646609D01*
X143506159Y-62662637D01*
X143486195Y-62672725D01*
X143478781Y-62676238D01*
X143477731Y-62675324D01*
X143470772Y-62664537D01*
X143459009Y-62643927D01*
X143443978Y-62616425D01*
X143427215Y-62584965D01*
X143410257Y-62552477D01*
X143394640Y-62521895D01*
X143381900Y-62496151D01*
X143373574Y-62478176D01*
X143371198Y-62470903D01*
X143375372Y-62468572D01*
X143391680Y-62459941D01*
X143418502Y-62445921D01*
X143453927Y-62427508D01*
X143496044Y-62405695D01*
X143542942Y-62381479D01*
X143577952Y-62363318D01*
X143621234Y-62340532D01*
X143658168Y-62320703D01*
X143686875Y-62304855D01*
X143705476Y-62294014D01*
X143712094Y-62289203D01*
X143711818Y-62287685D01*
X143706633Y-62274780D01*
X143696057Y-62252468D01*
X143681631Y-62223665D01*
X143664896Y-62191288D01*
X143647391Y-62158253D01*
X143630657Y-62127476D01*
X143616234Y-62101874D01*
X143605662Y-62084363D01*
X143600482Y-62077860D01*
X143592674Y-62080685D01*
X143573707Y-62089522D01*
X143546790Y-62102943D01*
X143514934Y-62119483D01*
X143484827Y-62135381D01*
X143438408Y-62159859D01*
X143389938Y-62185390D01*
X143346046Y-62208480D01*
X143256084Y-62255764D01*
X143202170Y-62151911D01*
X143192535Y-62133179D01*
X143175522Y-62099108D01*
X143162351Y-62071380D01*
X143154175Y-62052462D01*
X143152143Y-62044815D01*
X143154823Y-62043215D01*
X143169563Y-62035227D01*
X143195751Y-62021360D01*
X143231903Y-62002381D01*
X143276533Y-61979059D01*
X143328157Y-61952161D01*
X143385290Y-61922458D01*
X143446446Y-61890716D01*
X143510141Y-61857705D01*
X143574889Y-61824192D01*
X143639206Y-61790946D01*
X143701606Y-61758736D01*
X143760605Y-61728330D01*
X143814717Y-61700496D01*
X143862458Y-61676002D01*
X143902343Y-61655618D01*
X143932886Y-61640110D01*
X143952602Y-61630249D01*
X143960008Y-61626802D01*
X143961153Y-61627748D01*
G37*
G36*
X143504839Y-60749842D02*
G01*
X143508231Y-60753076D01*
X143508961Y-60754085D01*
X143517598Y-60768325D01*
X143530428Y-60791724D01*
X143545804Y-60821015D01*
X143562079Y-60852930D01*
X143577605Y-60884203D01*
X143590734Y-60911564D01*
X143599820Y-60931746D01*
X143603215Y-60941482D01*
X143602043Y-60942750D01*
X143590058Y-60950499D01*
X143566296Y-60964246D01*
X143532206Y-60983196D01*
X143489241Y-61006560D01*
X143438849Y-61033545D01*
X143382483Y-61063359D01*
X143321592Y-61095210D01*
X143270974Y-61121689D01*
X143202677Y-61157944D01*
X143143237Y-61190162D01*
X143093670Y-61217774D01*
X143054996Y-61240209D01*
X143028232Y-61256897D01*
X143014397Y-61267267D01*
X143006752Y-61275182D01*
X142995107Y-61291081D01*
X142989974Y-61308962D01*
X142988824Y-61335576D01*
X142988826Y-61336419D01*
X142994947Y-61381268D01*
X143011421Y-61423030D01*
X143036114Y-61458616D01*
X143066891Y-61484934D01*
X143101619Y-61498895D01*
X143109214Y-61500090D01*
X143117463Y-61500388D01*
X143127130Y-61499135D01*
X143139451Y-61495762D01*
X143155662Y-61489704D01*
X143176999Y-61480393D01*
X143204698Y-61467263D01*
X143239994Y-61449747D01*
X143284123Y-61427277D01*
X143338321Y-61399288D01*
X143403825Y-61365211D01*
X143481869Y-61324481D01*
X143486477Y-61322075D01*
X143544082Y-61292078D01*
X143597057Y-61264634D01*
X143643880Y-61240522D01*
X143683027Y-61220521D01*
X143712972Y-61205410D01*
X143732192Y-61195967D01*
X143739164Y-61192972D01*
X143744346Y-61201200D01*
X143756268Y-61222601D01*
X143771008Y-61250965D01*
X143787144Y-61283323D01*
X143803254Y-61316706D01*
X143817913Y-61348147D01*
X143829699Y-61374677D01*
X143837188Y-61393327D01*
X143838957Y-61401128D01*
X143836207Y-61403046D01*
X143820779Y-61411981D01*
X143793994Y-61426577D01*
X143757615Y-61445932D01*
X143713409Y-61469140D01*
X143663139Y-61495300D01*
X143608570Y-61523508D01*
X143551467Y-61552860D01*
X143493596Y-61582453D01*
X143436719Y-61611383D01*
X143382603Y-61638747D01*
X143333011Y-61663642D01*
X143289710Y-61685163D01*
X143254463Y-61702409D01*
X143229034Y-61714475D01*
X143215190Y-61720457D01*
X143203006Y-61724373D01*
X143147537Y-61733475D01*
X143092002Y-61729648D01*
X143041038Y-61713088D01*
X143003984Y-61691041D01*
X142954856Y-61649736D01*
X142908399Y-61597646D01*
X142866460Y-61537503D01*
X142830888Y-61472042D01*
X142803529Y-61403995D01*
X142786230Y-61336096D01*
X142786182Y-61335820D01*
X142781178Y-61270954D01*
X142788503Y-61209403D01*
X142807544Y-61153889D01*
X142837691Y-61107134D01*
X142840769Y-61103585D01*
X142850321Y-61093351D01*
X142861214Y-61083295D01*
X142874698Y-61072689D01*
X142892020Y-61060801D01*
X142914429Y-61046902D01*
X142943175Y-61030263D01*
X142979506Y-61010153D01*
X143024671Y-60985844D01*
X143079919Y-60956604D01*
X143146499Y-60921705D01*
X143225659Y-60880416D01*
X143239709Y-60873099D01*
X143305755Y-60838770D01*
X143359594Y-60810978D01*
X143402539Y-60789133D01*
X143435901Y-60772642D01*
X143460989Y-60760917D01*
X143479116Y-60753365D01*
X143491593Y-60749395D01*
X143499730Y-60748418D01*
X143504839Y-60749842D01*
G37*
G36*
X142778094Y-59339304D02*
G01*
X142788238Y-59357505D01*
X142803426Y-59385933D01*
X142822722Y-59422740D01*
X142845185Y-59466077D01*
X142869877Y-59514094D01*
X142895860Y-59564943D01*
X142922194Y-59616775D01*
X142947941Y-59667740D01*
X142972162Y-59715990D01*
X142993918Y-59759677D01*
X143012270Y-59796950D01*
X143026281Y-59825960D01*
X143035010Y-59844860D01*
X143037520Y-59851800D01*
X143031806Y-59854653D01*
X143013349Y-59864151D01*
X142983386Y-59879677D01*
X142943150Y-59900587D01*
X142893876Y-59926239D01*
X142836798Y-59955991D01*
X142773149Y-59989199D01*
X142704165Y-60025222D01*
X142631078Y-60063417D01*
X142568812Y-60095947D01*
X142499263Y-60132225D01*
X142434916Y-60165731D01*
X142376995Y-60195830D01*
X142326725Y-60221885D01*
X142285332Y-60243264D01*
X142254042Y-60259329D01*
X142234079Y-60269448D01*
X142226669Y-60272983D01*
X142226663Y-60272984D01*
X142221607Y-60266359D01*
X142210676Y-60247641D01*
X142194806Y-60218679D01*
X142174930Y-60181320D01*
X142151985Y-60137412D01*
X142126905Y-60088804D01*
X142100626Y-60037342D01*
X142074081Y-59984876D01*
X142048207Y-59933253D01*
X142023938Y-59884322D01*
X142002209Y-59839930D01*
X141983955Y-59801925D01*
X141970112Y-59772156D01*
X141961613Y-59752470D01*
X141959395Y-59744716D01*
X141965872Y-59740340D01*
X141983930Y-59729764D01*
X142010127Y-59715175D01*
X142041325Y-59698349D01*
X142116514Y-59658388D01*
X142199360Y-59818171D01*
X142213399Y-59845148D01*
X142235835Y-59887819D01*
X142255338Y-59924362D01*
X142270864Y-59952851D01*
X142281372Y-59971357D01*
X142285818Y-59977954D01*
X142287201Y-59977473D01*
X142299055Y-59971812D01*
X142320178Y-59961127D01*
X142347323Y-59947121D01*
X142377243Y-59931496D01*
X142406690Y-59915952D01*
X142432416Y-59902192D01*
X142451174Y-59891917D01*
X142459718Y-59886829D01*
X142458703Y-59882396D01*
X142451776Y-59866146D01*
X142439488Y-59840214D01*
X142422948Y-59806924D01*
X142403265Y-59768598D01*
X142397900Y-59758275D01*
X142376437Y-59716040D01*
X142361890Y-59685298D01*
X142353583Y-59664389D01*
X142350838Y-59651655D01*
X142352978Y-59645435D01*
X142358359Y-59641922D01*
X142376160Y-59631900D01*
X142402200Y-59618113D01*
X142432956Y-59602453D01*
X142503144Y-59567370D01*
X142565070Y-59686258D01*
X142626995Y-59805146D01*
X142703383Y-59766813D01*
X142779771Y-59728479D01*
X142745311Y-59664622D01*
X142742879Y-59660110D01*
X142718738Y-59614802D01*
X142695606Y-59570517D01*
X142674542Y-59529370D01*
X142656602Y-59493475D01*
X142642844Y-59464944D01*
X142634326Y-59445891D01*
X142632106Y-59438430D01*
X142637389Y-59434371D01*
X142652794Y-59422494D01*
X142675662Y-59404846D01*
X142703381Y-59383440D01*
X142727666Y-59364995D01*
X142751166Y-59347868D01*
X142767584Y-59336757D01*
X142774354Y-59333469D01*
X142778094Y-59339304D01*
G37*
G36*
X146503503Y-66525090D02*
G01*
X146512340Y-66534126D01*
X146526474Y-66554818D01*
X146544715Y-66585322D01*
X146565877Y-66623791D01*
X146619750Y-66725201D01*
X146478307Y-66798035D01*
X146468918Y-66802875D01*
X146426327Y-66824972D01*
X146388616Y-66844762D01*
X146358026Y-66861051D01*
X146336802Y-66872648D01*
X146327185Y-66878360D01*
X146325057Y-66884125D01*
X146327715Y-66897066D01*
X146336149Y-66918587D01*
X146351006Y-66950327D01*
X146372938Y-66993927D01*
X146428370Y-67102003D01*
X146499274Y-67064065D01*
X146541628Y-67041554D01*
X146591897Y-67015247D01*
X146637122Y-66992026D01*
X146675578Y-66972753D01*
X146705535Y-66958293D01*
X146725268Y-66949508D01*
X146733047Y-66947261D01*
X146733931Y-66948630D01*
X146740681Y-66960726D01*
X146752756Y-66983114D01*
X146768797Y-67013256D01*
X146787440Y-67048615D01*
X146802699Y-67078093D01*
X146818881Y-67111215D01*
X146828240Y-67133710D01*
X146831428Y-67147220D01*
X146829099Y-67153386D01*
X146823997Y-67156184D01*
X146806007Y-67165728D01*
X146776421Y-67181291D01*
X146736503Y-67202212D01*
X146687523Y-67227827D01*
X146630745Y-67257474D01*
X146567438Y-67290491D01*
X146498868Y-67326216D01*
X146426301Y-67363987D01*
X146371279Y-67392585D01*
X146301922Y-67428552D01*
X146237637Y-67461799D01*
X146179668Y-67491687D01*
X146129260Y-67517575D01*
X146087660Y-67538826D01*
X146056112Y-67554799D01*
X146035864Y-67564855D01*
X146028159Y-67568355D01*
X146026856Y-67567357D01*
X146019106Y-67556202D01*
X146006186Y-67534629D01*
X145989530Y-67505086D01*
X145970569Y-67470021D01*
X145964437Y-67458449D01*
X145945918Y-67423070D01*
X145933783Y-67398431D01*
X145927239Y-67382209D01*
X145925490Y-67372080D01*
X145927740Y-67365720D01*
X145933194Y-67360805D01*
X145935882Y-67359053D01*
X145951628Y-67350026D01*
X145978127Y-67335577D01*
X146013130Y-67316908D01*
X146054392Y-67295221D01*
X146099663Y-67271720D01*
X146118661Y-67261900D01*
X146161526Y-67239604D01*
X146198861Y-67219994D01*
X146228589Y-67204173D01*
X146248630Y-67193243D01*
X146256907Y-67188306D01*
X146256923Y-67185169D01*
X146251852Y-67170231D01*
X146241182Y-67145436D01*
X146226008Y-67113265D01*
X146207425Y-67076199D01*
X146152353Y-66969255D01*
X145978968Y-67058823D01*
X145805583Y-67148390D01*
X145786353Y-67115361D01*
X145781045Y-67105984D01*
X145766578Y-67079218D01*
X145749265Y-67046107D01*
X145731784Y-67011737D01*
X145696446Y-66941141D01*
X146094426Y-66734262D01*
X146153290Y-66703692D01*
X146223205Y-66667458D01*
X146288118Y-66633902D01*
X146346771Y-66603667D01*
X146397910Y-66577399D01*
X146440278Y-66555741D01*
X146472621Y-66539340D01*
X146493682Y-66528838D01*
X146502205Y-66524882D01*
X146503503Y-66525090D01*
G37*
G36*
X144760484Y-63245735D02*
G01*
X144774171Y-63255582D01*
X144822033Y-63297064D01*
X144870199Y-63348384D01*
X144915496Y-63405628D01*
X144954749Y-63464885D01*
X144984784Y-63522242D01*
X145000684Y-63562490D01*
X145019757Y-63635292D01*
X145025788Y-63705039D01*
X145019116Y-63770411D01*
X145000080Y-63830083D01*
X144969019Y-63882735D01*
X144926272Y-63927043D01*
X144872177Y-63961685D01*
X144864963Y-63965202D01*
X144838589Y-63976780D01*
X144815568Y-63983376D01*
X144789608Y-63986343D01*
X144754414Y-63987036D01*
X144728203Y-63986655D01*
X144698074Y-63984173D01*
X144674160Y-63978522D01*
X144650897Y-63968719D01*
X144624259Y-63953190D01*
X144580060Y-63918784D01*
X144530285Y-63870686D01*
X144474620Y-63808610D01*
X144442157Y-63772595D01*
X144407736Y-63741156D01*
X144377326Y-63722250D01*
X144349499Y-63715034D01*
X144322829Y-63718661D01*
X144311326Y-63723082D01*
X144283757Y-63742244D01*
X144268861Y-63769680D01*
X144266611Y-63805616D01*
X144276979Y-63850274D01*
X144299937Y-63903879D01*
X144304276Y-63912303D01*
X144321887Y-63942331D01*
X144343340Y-63971889D01*
X144371339Y-64004450D01*
X144408589Y-64043489D01*
X144487150Y-64123261D01*
X144429763Y-64193198D01*
X144407872Y-64219152D01*
X144387371Y-64241983D01*
X144372024Y-64257446D01*
X144364092Y-64263135D01*
X144355662Y-64259327D01*
X144338198Y-64245544D01*
X144314960Y-64223908D01*
X144288163Y-64196750D01*
X144260022Y-64166400D01*
X144232749Y-64135190D01*
X144208559Y-64105450D01*
X144189666Y-64079511D01*
X144163406Y-64037743D01*
X144120505Y-63954456D01*
X144091062Y-63873024D01*
X144075223Y-63794354D01*
X144073131Y-63719355D01*
X144084932Y-63648932D01*
X144110769Y-63583992D01*
X144140206Y-63539819D01*
X144184114Y-63498157D01*
X144240647Y-63464235D01*
X144249716Y-63460003D01*
X144277213Y-63449828D01*
X144305562Y-63444807D01*
X144342039Y-63443449D01*
X144369046Y-63444617D01*
X144410649Y-63452075D01*
X144450851Y-63467419D01*
X144491436Y-63491793D01*
X144534188Y-63526346D01*
X144580891Y-63572222D01*
X144633330Y-63630567D01*
X144640731Y-63639133D01*
X144674106Y-63676421D01*
X144700528Y-63702690D01*
X144721921Y-63719188D01*
X144740208Y-63727162D01*
X144757313Y-63727860D01*
X144775160Y-63722530D01*
X144797129Y-63709333D01*
X144817230Y-63682969D01*
X144824143Y-63648958D01*
X144821965Y-63629243D01*
X144808874Y-63590123D01*
X144785598Y-63547207D01*
X144754037Y-63503331D01*
X144716086Y-63461330D01*
X144673645Y-63424041D01*
X144630104Y-63390449D01*
X144648304Y-63358222D01*
X144661362Y-63334869D01*
X144678244Y-63304366D01*
X144695237Y-63273419D01*
X144723969Y-63220842D01*
X144760484Y-63245735D01*
G37*
G36*
X143654940Y-63649743D02*
G01*
X143674381Y-63662217D01*
X143699219Y-63681514D01*
X143727162Y-63705678D01*
X143755916Y-63732753D01*
X143783189Y-63760783D01*
X143806686Y-63787813D01*
X143841673Y-63834257D01*
X143889802Y-63913407D01*
X143922699Y-63991837D01*
X143940531Y-64069982D01*
X143943462Y-64148275D01*
X143938602Y-64190910D01*
X143920557Y-64253273D01*
X143889974Y-64306434D01*
X143846841Y-64350414D01*
X143791145Y-64385231D01*
X143786679Y-64387386D01*
X143762994Y-64397434D01*
X143740564Y-64403323D01*
X143713796Y-64406114D01*
X143677097Y-64406868D01*
X143642233Y-64406307D01*
X143614320Y-64403684D01*
X143591938Y-64398103D01*
X143569881Y-64388683D01*
X143543242Y-64373154D01*
X143499043Y-64338747D01*
X143449268Y-64290649D01*
X143393603Y-64228574D01*
X143358481Y-64189748D01*
X143325897Y-64160422D01*
X143296953Y-64142941D01*
X143269881Y-64136258D01*
X143242913Y-64139326D01*
X143221662Y-64148496D01*
X143197977Y-64172231D01*
X143194423Y-64178463D01*
X143186457Y-64204770D01*
X143187865Y-64236279D01*
X143198960Y-64275137D01*
X143220056Y-64323492D01*
X143228843Y-64340693D01*
X143245412Y-64368337D01*
X143265797Y-64395868D01*
X143292645Y-64426717D01*
X143328603Y-64464318D01*
X143407848Y-64544956D01*
X143348644Y-64617487D01*
X143289439Y-64690017D01*
X143268513Y-64675117D01*
X143262390Y-64670506D01*
X143235549Y-64646597D01*
X143203832Y-64614107D01*
X143170199Y-64576447D01*
X143137612Y-64537026D01*
X143109031Y-64499255D01*
X143087417Y-64466544D01*
X143057423Y-64411004D01*
X143023935Y-64330886D01*
X143002784Y-64253134D01*
X142993984Y-64178919D01*
X142997543Y-64109410D01*
X143013474Y-64045777D01*
X143041787Y-63989190D01*
X143082492Y-63940817D01*
X143110201Y-63917572D01*
X143165075Y-63885187D01*
X143222980Y-63867390D01*
X143282636Y-63864495D01*
X143342760Y-63876818D01*
X143357355Y-63882501D01*
X143401027Y-63907247D01*
X143449500Y-63944760D01*
X143501557Y-63994031D01*
X143555984Y-64054049D01*
X143562548Y-64061713D01*
X143589742Y-64092024D01*
X143614775Y-64117824D01*
X143635106Y-64136585D01*
X143648195Y-64145782D01*
X143670677Y-64150158D01*
X143697711Y-64143619D01*
X143720898Y-64126208D01*
X143737105Y-64100458D01*
X143743203Y-64068901D01*
X143738210Y-64038402D01*
X143721896Y-63998636D01*
X143696045Y-63955513D01*
X143662519Y-63911721D01*
X143623178Y-63869950D01*
X143579884Y-63832887D01*
X143552664Y-63812275D01*
X143594598Y-63732454D01*
X143610305Y-63702821D01*
X143625155Y-63675360D01*
X143636102Y-63655738D01*
X143641512Y-63646937D01*
X143643189Y-63646048D01*
X143654940Y-63649743D01*
G37*
G36*
X142594024Y-62476352D02*
G01*
X142262675Y-62839936D01*
X142236348Y-62791324D01*
X142235698Y-62790123D01*
X142218428Y-62757719D01*
X142198549Y-62719740D01*
X142180236Y-62684156D01*
X142150449Y-62625599D01*
X142200846Y-62571388D01*
X142211332Y-62560117D01*
X142235692Y-62533989D01*
X142256792Y-62511432D01*
X142270973Y-62496360D01*
X142290702Y-62475544D01*
X142242185Y-62379704D01*
X142238507Y-62372451D01*
X142219533Y-62335414D01*
X142202143Y-62302048D01*
X142188130Y-62275767D01*
X142179287Y-62259981D01*
X142164906Y-62236099D01*
X142065521Y-62249752D01*
X142059508Y-62250567D01*
X142022540Y-62255074D01*
X141991763Y-62257991D01*
X141970239Y-62259075D01*
X141961031Y-62258080D01*
X141960444Y-62257382D01*
X141953467Y-62246186D01*
X141941765Y-62225198D01*
X141930532Y-62204234D01*
X142344189Y-62204234D01*
X142378832Y-62273213D01*
X142388834Y-62292646D01*
X142402821Y-62318100D01*
X142413536Y-62335479D01*
X142419230Y-62341819D01*
X142419384Y-62341785D01*
X142427201Y-62336176D01*
X142444081Y-62322247D01*
X142467941Y-62301846D01*
X142496701Y-62276825D01*
X142528276Y-62249034D01*
X142560585Y-62220322D01*
X142591545Y-62192539D01*
X142619073Y-62167535D01*
X142641089Y-62147161D01*
X142655508Y-62133266D01*
X142660249Y-62127700D01*
X142659419Y-62127687D01*
X142647617Y-62129935D01*
X142623651Y-62135318D01*
X142589767Y-62143308D01*
X142548216Y-62153378D01*
X142501243Y-62165002D01*
X142344189Y-62204234D01*
X141930532Y-62204234D01*
X141926847Y-62197356D01*
X141910225Y-62165597D01*
X141893409Y-62132857D01*
X141877909Y-62102073D01*
X141865237Y-62076182D01*
X141856903Y-62058120D01*
X141854418Y-62050825D01*
X141855006Y-62050537D01*
X141866610Y-62047974D01*
X141891618Y-62043582D01*
X141928431Y-62037591D01*
X141975450Y-62030231D01*
X142031075Y-62021733D01*
X142093708Y-62012326D01*
X142161749Y-62002241D01*
X142233600Y-61991709D01*
X142307660Y-61980958D01*
X142382331Y-61970220D01*
X142456014Y-61959725D01*
X142527109Y-61949702D01*
X142594017Y-61940383D01*
X142655139Y-61931997D01*
X142708876Y-61924774D01*
X142753629Y-61918945D01*
X142787798Y-61914740D01*
X142809785Y-61912389D01*
X142817990Y-61912122D01*
X142819077Y-61913625D01*
X142826603Y-61926401D01*
X142839330Y-61949435D01*
X142855794Y-61980045D01*
X142874531Y-62015554D01*
X142925373Y-62112767D01*
X142911764Y-62127700D01*
X142594024Y-62476352D01*
G37*
G36*
X142025584Y-65353139D02*
G01*
X142026360Y-65354373D01*
X142034318Y-65368481D01*
X142047514Y-65393087D01*
X142064817Y-65425982D01*
X142085098Y-65464960D01*
X142107225Y-65507811D01*
X142130070Y-65552329D01*
X142152500Y-65596304D01*
X142173387Y-65637529D01*
X142191600Y-65673797D01*
X142206009Y-65702898D01*
X142215483Y-65722625D01*
X142218892Y-65730770D01*
X142218439Y-65732285D01*
X142209224Y-65740837D01*
X142191870Y-65750788D01*
X142164849Y-65763674D01*
X142117341Y-65674458D01*
X142113982Y-65668168D01*
X142096319Y-65635735D01*
X142081414Y-65609393D01*
X142070748Y-65591707D01*
X142065802Y-65585241D01*
X142064409Y-65585582D01*
X142052385Y-65590998D01*
X142031435Y-65601640D01*
X142004805Y-65615734D01*
X141975740Y-65631505D01*
X141947485Y-65647178D01*
X141923285Y-65660981D01*
X141906385Y-65671138D01*
X141900031Y-65675875D01*
X141900094Y-65676197D01*
X141904413Y-65685742D01*
X141914530Y-65705909D01*
X141929058Y-65733976D01*
X141946610Y-65767225D01*
X141993189Y-65854697D01*
X141967997Y-65867237D01*
X141965134Y-65868640D01*
X141946707Y-65876676D01*
X141935028Y-65880161D01*
X141934474Y-65879773D01*
X141928087Y-65870266D01*
X141915941Y-65849623D01*
X141899187Y-65819980D01*
X141878974Y-65783476D01*
X141856453Y-65742245D01*
X141832775Y-65698425D01*
X141809089Y-65654154D01*
X141786545Y-65611566D01*
X141766295Y-65572799D01*
X141749488Y-65539991D01*
X141737274Y-65515276D01*
X141730804Y-65500793D01*
X141730948Y-65499186D01*
X141738747Y-65490957D01*
X141753556Y-65480820D01*
X141769883Y-65472217D01*
X141782236Y-65468585D01*
X141784581Y-65469887D01*
X141793921Y-65481478D01*
X141807144Y-65502487D01*
X141822189Y-65529758D01*
X141838526Y-65561531D01*
X141853132Y-65588230D01*
X141865418Y-65603786D01*
X141878564Y-65609338D01*
X141895749Y-65606026D01*
X141920152Y-65594992D01*
X141954954Y-65577375D01*
X141985567Y-65561971D01*
X142012632Y-65548148D01*
X142031521Y-65538266D01*
X142039356Y-65533811D01*
X142037712Y-65527339D01*
X142030069Y-65509704D01*
X142017602Y-65483816D01*
X142001635Y-65452529D01*
X141986917Y-65423862D01*
X141973986Y-65397520D01*
X141965704Y-65379237D01*
X141963411Y-65371844D01*
X141964249Y-65371250D01*
X141974766Y-65365308D01*
X141992444Y-65356073D01*
X142006424Y-65349575D01*
X142018461Y-65347406D01*
X142025584Y-65353139D01*
G37*
G36*
X146295288Y-66131205D02*
G01*
X146301868Y-66196605D01*
X146299492Y-66240124D01*
X146283709Y-66314160D01*
X146253460Y-66383546D01*
X146209136Y-66447765D01*
X146151125Y-66506299D01*
X146079816Y-66558630D01*
X145995597Y-66604242D01*
X145987865Y-66607756D01*
X145952251Y-66622368D01*
X145917331Y-66634588D01*
X145889682Y-66642068D01*
X145872427Y-66645488D01*
X145847599Y-66650404D01*
X145831353Y-66653614D01*
X145809120Y-66656367D01*
X145763037Y-66655793D01*
X145711820Y-66649187D01*
X145660902Y-66637368D01*
X145615720Y-66621154D01*
X145607364Y-66617270D01*
X145545549Y-66579249D01*
X145488817Y-66527741D01*
X145438570Y-66464223D01*
X145396213Y-66390171D01*
X145380869Y-66357092D01*
X145363356Y-66312919D01*
X145352452Y-66273046D01*
X145352224Y-66271386D01*
X145527426Y-66271386D01*
X145529156Y-66280545D01*
X145543529Y-66323382D01*
X145566280Y-66364028D01*
X145594494Y-66398030D01*
X145625260Y-66420934D01*
X145642607Y-66428097D01*
X145686894Y-66435681D01*
X145736563Y-66431793D01*
X145741508Y-66430790D01*
X145787171Y-66417420D01*
X145839320Y-66396308D01*
X145894377Y-66369452D01*
X145948769Y-66338845D01*
X145998919Y-66306484D01*
X146041252Y-66274364D01*
X146072193Y-66244480D01*
X146089358Y-66220622D01*
X146107583Y-66182984D01*
X146117631Y-66144911D01*
X146117690Y-66111688D01*
X146116181Y-66104509D01*
X146099158Y-66057451D01*
X146072291Y-66016556D01*
X146038073Y-65984892D01*
X145998999Y-65965532D01*
X145989205Y-65963094D01*
X145945548Y-65960818D01*
X145893040Y-65969382D01*
X145833079Y-65988367D01*
X145767065Y-66017354D01*
X145696398Y-66055926D01*
X145679088Y-66066543D01*
X145620896Y-66107869D01*
X145576138Y-66149649D01*
X145545311Y-66191249D01*
X145528908Y-66232038D01*
X145527426Y-66271386D01*
X145352224Y-66271386D01*
X145346860Y-66232259D01*
X145345285Y-66185342D01*
X145346337Y-66156074D01*
X145359276Y-66081965D01*
X145386924Y-66012828D01*
X145429244Y-65948713D01*
X145486199Y-65889670D01*
X145557751Y-65835749D01*
X145643862Y-65787001D01*
X145722772Y-65753775D01*
X145804472Y-65732535D01*
X145882649Y-65726415D01*
X145957271Y-65735415D01*
X146028300Y-65759534D01*
X146095704Y-65798771D01*
X146119089Y-65817202D01*
X146167426Y-65866672D01*
X146211017Y-65926287D01*
X146248060Y-65992567D01*
X146276751Y-66062033D01*
X146290058Y-66111688D01*
X146295288Y-66131205D01*
G37*
G36*
X143391345Y-65525002D02*
G01*
X143483505Y-65702186D01*
X143493338Y-65721090D01*
X143421899Y-65758553D01*
X143403399Y-65768144D01*
X143368769Y-65785593D01*
X143337780Y-65800617D01*
X143315462Y-65810749D01*
X143279764Y-65822325D01*
X143239736Y-65824533D01*
X143198863Y-65813781D01*
X143179032Y-65803687D01*
X143150832Y-65777662D01*
X143134989Y-65744500D01*
X143132470Y-65706799D01*
X143138854Y-65685301D01*
X143199811Y-65685301D01*
X143203040Y-65714081D01*
X143221539Y-65741382D01*
X143226049Y-65745574D01*
X143245584Y-65758789D01*
X143262780Y-65764115D01*
X143267717Y-65763500D01*
X143287360Y-65757676D01*
X143314669Y-65747018D01*
X143345318Y-65733151D01*
X143409348Y-65702186D01*
X143376632Y-65641770D01*
X143369916Y-65629386D01*
X143356245Y-65604294D01*
X143346396Y-65586384D01*
X143342151Y-65578909D01*
X143335213Y-65579538D01*
X143318493Y-65586668D01*
X143295698Y-65598526D01*
X143270398Y-65613054D01*
X143246163Y-65628195D01*
X143226563Y-65641892D01*
X143215168Y-65652087D01*
X143211950Y-65656424D01*
X143199811Y-65685301D01*
X143138854Y-65685301D01*
X143144242Y-65667157D01*
X143150748Y-65654672D01*
X143161231Y-65638310D01*
X143168391Y-65631904D01*
X143169922Y-65631726D01*
X143175475Y-65624371D01*
X143173708Y-65621121D01*
X143163516Y-65621427D01*
X143158255Y-65622189D01*
X143139790Y-65619714D01*
X143116688Y-65612699D01*
X143114549Y-65611863D01*
X143083245Y-65592638D01*
X143064839Y-65564871D01*
X143058818Y-65527806D01*
X143058818Y-65527516D01*
X143060601Y-65508697D01*
X143130297Y-65508697D01*
X143131350Y-65533783D01*
X143147901Y-65558375D01*
X143170048Y-65573040D01*
X143200028Y-65576363D01*
X143233803Y-65565060D01*
X143237063Y-65563343D01*
X143261202Y-65550730D01*
X143286526Y-65537614D01*
X143315917Y-65522477D01*
X143287153Y-65470255D01*
X143284254Y-65464997D01*
X143270775Y-65440690D01*
X143260819Y-65422962D01*
X143256365Y-65415341D01*
X143256275Y-65415268D01*
X143248275Y-65417689D01*
X143230514Y-65425847D01*
X143206635Y-65438076D01*
X143174517Y-65457404D01*
X143144701Y-65483208D01*
X143130297Y-65508697D01*
X143060601Y-65508697D01*
X143061541Y-65498778D01*
X143070714Y-65473577D01*
X143087983Y-65450174D01*
X143114991Y-65426828D01*
X143153384Y-65401801D01*
X143204806Y-65373352D01*
X143289351Y-65328915D01*
X143390032Y-65522477D01*
X143391345Y-65525002D01*
G37*
G36*
X140866589Y-64910130D02*
G01*
X140891995Y-64958457D01*
X140913184Y-64998687D01*
X140958630Y-65084852D01*
X140928351Y-65101870D01*
X140898072Y-65118888D01*
X140853128Y-65033379D01*
X140837670Y-65004170D01*
X140823406Y-64978407D01*
X140813459Y-64963074D01*
X140806285Y-64956270D01*
X140800339Y-64956091D01*
X140794079Y-64960636D01*
X140782089Y-64977375D01*
X140769209Y-65011494D01*
X140757968Y-65060828D01*
X140748402Y-65125236D01*
X140739081Y-65202147D01*
X140707109Y-65217795D01*
X140697280Y-65222444D01*
X140680436Y-65229464D01*
X140672664Y-65231236D01*
X140672506Y-65230767D01*
X140673313Y-65220159D01*
X140676407Y-65198293D01*
X140681200Y-65168529D01*
X140687101Y-65134225D01*
X140693521Y-65098741D01*
X140699868Y-65065435D01*
X140705553Y-65037667D01*
X140709985Y-65018796D01*
X140713591Y-65003279D01*
X140712160Y-64996495D01*
X140703858Y-64998268D01*
X140669252Y-65007726D01*
X140627794Y-65006100D01*
X140590226Y-64989991D01*
X140558512Y-64959916D01*
X140541478Y-64929812D01*
X140533307Y-64890292D01*
X140534599Y-64880940D01*
X140601255Y-64880940D01*
X140601501Y-64884149D01*
X140608262Y-64903434D01*
X140621389Y-64923591D01*
X140628429Y-64931380D01*
X140646760Y-64944093D01*
X140669996Y-64947443D01*
X140681480Y-64946359D01*
X140705500Y-64940534D01*
X140731685Y-64931261D01*
X140755725Y-64920361D01*
X140773309Y-64909653D01*
X140780129Y-64900956D01*
X140779988Y-64899672D01*
X140775286Y-64886183D01*
X140765514Y-64864431D01*
X140752841Y-64838833D01*
X140739439Y-64813805D01*
X140727475Y-64793767D01*
X140715920Y-64776113D01*
X140679975Y-64796450D01*
X140657328Y-64810669D01*
X140627685Y-64835064D01*
X140608240Y-64859297D01*
X140601255Y-64880940D01*
X140534599Y-64880940D01*
X140538744Y-64850938D01*
X140557259Y-64814849D01*
X140588324Y-64785125D01*
X140591123Y-64783255D01*
X140610177Y-64771658D01*
X140636263Y-64756885D01*
X140665953Y-64740743D01*
X140695821Y-64725040D01*
X140722439Y-64711586D01*
X140742381Y-64702187D01*
X140752220Y-64698652D01*
X140754071Y-64700829D01*
X140762183Y-64714179D01*
X140775374Y-64737657D01*
X140792333Y-64768911D01*
X140811751Y-64805587D01*
X140815073Y-64811931D01*
X140839953Y-64859392D01*
X140861773Y-64900956D01*
X140866589Y-64910130D01*
G37*
G36*
X141203774Y-64704113D02*
G01*
X141205629Y-64707678D01*
X141231220Y-64757357D01*
X141254050Y-64802550D01*
X141273215Y-64841404D01*
X141287815Y-64872066D01*
X141296950Y-64892683D01*
X141299717Y-64901401D01*
X141295221Y-64905425D01*
X141278846Y-64915993D01*
X141252723Y-64931301D01*
X141219179Y-64949996D01*
X141180536Y-64970727D01*
X141150574Y-64986454D01*
X141115434Y-65004724D01*
X141086994Y-65019306D01*
X141067600Y-65028999D01*
X141059600Y-65032604D01*
X141058493Y-65032171D01*
X141051514Y-65023088D01*
X141042226Y-65005845D01*
X141029245Y-64978623D01*
X141123124Y-64931563D01*
X141123205Y-64931522D01*
X141161995Y-64911663D01*
X141188437Y-64896951D01*
X141204361Y-64886147D01*
X141211597Y-64878007D01*
X141211973Y-64871293D01*
X141211600Y-64870330D01*
X141203084Y-64851851D01*
X141190716Y-64828632D01*
X141176708Y-64804378D01*
X141163273Y-64782792D01*
X141152623Y-64767579D01*
X141146970Y-64762444D01*
X141144056Y-64763894D01*
X141129577Y-64771266D01*
X141106357Y-64783172D01*
X141077775Y-64797880D01*
X141062650Y-64805621D01*
X141036752Y-64818582D01*
X141018084Y-64827527D01*
X141009925Y-64830863D01*
X141007629Y-64829248D01*
X141000202Y-64818498D01*
X140991640Y-64802758D01*
X140985092Y-64788074D01*
X140983704Y-64780493D01*
X140986473Y-64778861D01*
X141000524Y-64771476D01*
X141023538Y-64759750D01*
X141052327Y-64745315D01*
X141068927Y-64737004D01*
X141095100Y-64723686D01*
X141113809Y-64713883D01*
X141121812Y-64709275D01*
X141121157Y-64703572D01*
X141115210Y-64687687D01*
X141105475Y-64665800D01*
X141093933Y-64641971D01*
X141082563Y-64620262D01*
X141073346Y-64604733D01*
X141068262Y-64599446D01*
X141061183Y-64603058D01*
X141042843Y-64612438D01*
X141016278Y-64626035D01*
X140984419Y-64642347D01*
X140955052Y-64657140D01*
X140927264Y-64670606D01*
X140907172Y-64679736D01*
X140897821Y-64683098D01*
X140897639Y-64683092D01*
X140888730Y-64676884D01*
X140877322Y-64662532D01*
X140874880Y-64658985D01*
X140870224Y-64652380D01*
X140868154Y-64646898D01*
X140870258Y-64641327D01*
X140878125Y-64634457D01*
X140893343Y-64625076D01*
X140917502Y-64611972D01*
X140952188Y-64593936D01*
X140998990Y-64569754D01*
X141105194Y-64514739D01*
X141203774Y-64704113D01*
G37*
G36*
X141470678Y-66290177D02*
G01*
X141480262Y-66306802D01*
X141494668Y-66333387D01*
X141512805Y-66367773D01*
X141533577Y-66407802D01*
X141555891Y-66451316D01*
X141578654Y-66496156D01*
X141600772Y-66540164D01*
X141621151Y-66581180D01*
X141638697Y-66617047D01*
X141652317Y-66645606D01*
X141660916Y-66664698D01*
X141663402Y-66672166D01*
X141658847Y-66675122D01*
X141642273Y-66684517D01*
X141615998Y-66698843D01*
X141582425Y-66716794D01*
X141543959Y-66737064D01*
X141516136Y-66751561D01*
X141480866Y-66769732D01*
X141452129Y-66784292D01*
X141432332Y-66794025D01*
X141423883Y-66797715D01*
X141423103Y-66797573D01*
X141415936Y-66790052D01*
X141406410Y-66775457D01*
X141398085Y-66759720D01*
X141394519Y-66748772D01*
X141394996Y-66748142D01*
X141404750Y-66741757D01*
X141425175Y-66730114D01*
X141453742Y-66714621D01*
X141487919Y-66696690D01*
X141581319Y-66648414D01*
X141549112Y-66589286D01*
X141542960Y-66578017D01*
X141529229Y-66553056D01*
X141519251Y-66535200D01*
X141514856Y-66527734D01*
X141511994Y-66528351D01*
X141498109Y-66534519D01*
X141475488Y-66545829D01*
X141447191Y-66560786D01*
X141430478Y-66569682D01*
X141403592Y-66583349D01*
X141383434Y-66592760D01*
X141373437Y-66596264D01*
X141371411Y-66595562D01*
X141363232Y-66586136D01*
X141354658Y-66570608D01*
X141348797Y-66555258D01*
X141348754Y-66546368D01*
X141351617Y-66544630D01*
X141365839Y-66537069D01*
X141388989Y-66525211D01*
X141417851Y-66510716D01*
X141434585Y-66502352D01*
X141460495Y-66489258D01*
X141478827Y-66479802D01*
X141486399Y-66475612D01*
X141486476Y-66474817D01*
X141482708Y-66464232D01*
X141473721Y-66444214D01*
X141461035Y-66418206D01*
X141433228Y-66362988D01*
X141345297Y-66409571D01*
X141257366Y-66456154D01*
X141239710Y-66432272D01*
X141236380Y-66427664D01*
X141227101Y-66413177D01*
X141224683Y-66406298D01*
X141232982Y-66401276D01*
X141252388Y-66390855D01*
X141279849Y-66376666D01*
X141312626Y-66360065D01*
X141347983Y-66342411D01*
X141383182Y-66325060D01*
X141415485Y-66309369D01*
X141442157Y-66296697D01*
X141460458Y-66288399D01*
X141467652Y-66285833D01*
X141470678Y-66290177D01*
G37*
G36*
X142714376Y-64991724D02*
G01*
X142723725Y-65008709D01*
X142737982Y-65035538D01*
X142756048Y-65070062D01*
X142776824Y-65110133D01*
X142799211Y-65153601D01*
X142822107Y-65198318D01*
X142844416Y-65242133D01*
X142865036Y-65282899D01*
X142882868Y-65318466D01*
X142896813Y-65346686D01*
X142905771Y-65365408D01*
X142908644Y-65372485D01*
X142904127Y-65375203D01*
X142887787Y-65384241D01*
X142861759Y-65398337D01*
X142828356Y-65416238D01*
X142789891Y-65436695D01*
X142760643Y-65452077D01*
X142724852Y-65470547D01*
X142695410Y-65485332D01*
X142674769Y-65495205D01*
X142665379Y-65498943D01*
X142660360Y-65496618D01*
X142650810Y-65484672D01*
X142642443Y-65468059D01*
X142638855Y-65453006D01*
X142643470Y-65448217D01*
X142659483Y-65437583D01*
X142684250Y-65423223D01*
X142714945Y-65406852D01*
X142731081Y-65398599D01*
X142767240Y-65380043D01*
X142791804Y-65366153D01*
X142806194Y-65354716D01*
X142811830Y-65343517D01*
X142810133Y-65330343D01*
X142802524Y-65312980D01*
X142790422Y-65289212D01*
X142785756Y-65279922D01*
X142772883Y-65254624D01*
X142763340Y-65236358D01*
X142758920Y-65228574D01*
X142755871Y-65229121D01*
X142741740Y-65235237D01*
X142718954Y-65246568D01*
X142690585Y-65261627D01*
X142673520Y-65270804D01*
X142646981Y-65284529D01*
X142627343Y-65293974D01*
X142617948Y-65297489D01*
X142617212Y-65297378D01*
X142608430Y-65289934D01*
X142597458Y-65274395D01*
X142583816Y-65251301D01*
X142648277Y-65219063D01*
X142662544Y-65211858D01*
X142690215Y-65197464D01*
X142711337Y-65185912D01*
X142722201Y-65179201D01*
X142724381Y-65176472D01*
X142724567Y-65166005D01*
X142717622Y-65147526D01*
X142702763Y-65118594D01*
X142673862Y-65065610D01*
X142587082Y-65111820D01*
X142500303Y-65158030D01*
X142483182Y-65133987D01*
X142480034Y-65129457D01*
X142471064Y-65114761D01*
X142468855Y-65107727D01*
X142477151Y-65102669D01*
X142496561Y-65092171D01*
X142523997Y-65077902D01*
X142556729Y-65061226D01*
X142592025Y-65043502D01*
X142627152Y-65026094D01*
X142659380Y-65010363D01*
X142685976Y-64997670D01*
X142704208Y-64989377D01*
X142711345Y-64986847D01*
X142714376Y-64991724D01*
G37*
G36*
X140829396Y-67302894D02*
G01*
X140877607Y-67314638D01*
X140919651Y-67339132D01*
X140956782Y-67377248D01*
X140990253Y-67429859D01*
X140993120Y-67435419D01*
X141012374Y-67487386D01*
X141021059Y-67542229D01*
X141018156Y-67593954D01*
X141012402Y-67614276D01*
X140990812Y-67653845D01*
X140957707Y-67691056D01*
X140915699Y-67723244D01*
X140867399Y-67747746D01*
X140857431Y-67751231D01*
X140824801Y-67759136D01*
X140794389Y-67762465D01*
X140758098Y-67762829D01*
X140710561Y-67672321D01*
X140706672Y-67664898D01*
X140689800Y-67632214D01*
X140676413Y-67605498D01*
X140667785Y-67587336D01*
X140665192Y-67580317D01*
X140666774Y-67579278D01*
X140681123Y-67571020D01*
X140703635Y-67558941D01*
X140730661Y-67544897D01*
X140758553Y-67530744D01*
X140783663Y-67518337D01*
X140802341Y-67509532D01*
X140810941Y-67506185D01*
X140811647Y-67506285D01*
X140818743Y-67514374D01*
X140825336Y-67531460D01*
X140826055Y-67534167D01*
X140828462Y-67547550D01*
X140825164Y-67556913D01*
X140813431Y-67565927D01*
X140790534Y-67578261D01*
X140748964Y-67599787D01*
X140776365Y-67654198D01*
X140784519Y-67670210D01*
X140796173Y-67691067D01*
X140805095Y-67701860D01*
X140813848Y-67705197D01*
X140825000Y-67703690D01*
X140845249Y-67696936D01*
X140876679Y-67681133D01*
X140906053Y-67661442D01*
X140926882Y-67641803D01*
X140943948Y-67614954D01*
X140955371Y-67574786D01*
X140951634Y-67531809D01*
X140945828Y-67511558D01*
X140924865Y-67461691D01*
X140897374Y-67419470D01*
X140865152Y-67386869D01*
X140829998Y-67365861D01*
X140793707Y-67358420D01*
X140790238Y-67358507D01*
X140757099Y-67365628D01*
X140721486Y-67381903D01*
X140689183Y-67404134D01*
X140665970Y-67429120D01*
X140657012Y-67442334D01*
X140647313Y-67452827D01*
X140637860Y-67453806D01*
X140623718Y-67447407D01*
X140622523Y-67446779D01*
X140607462Y-67436828D01*
X140601255Y-67428818D01*
X140603293Y-67423424D01*
X140612594Y-67408143D01*
X140626876Y-67388188D01*
X140660857Y-67354262D01*
X140705810Y-67326262D01*
X140755805Y-67307891D01*
X140805904Y-67301541D01*
X140829396Y-67302894D01*
G37*
G36*
X141044970Y-65672159D02*
G01*
X141047550Y-65680004D01*
X141047411Y-65680201D01*
X141038215Y-65686758D01*
X141018036Y-65698371D01*
X140989742Y-65713459D01*
X140956200Y-65730438D01*
X140927236Y-65744630D01*
X140898538Y-65757903D01*
X140877253Y-65765974D01*
X140859721Y-65769905D01*
X140842280Y-65770759D01*
X140821268Y-65769600D01*
X140800914Y-65767161D01*
X140750487Y-65751660D01*
X140706661Y-65722800D01*
X140668830Y-65680101D01*
X140636387Y-65623082D01*
X140636259Y-65622807D01*
X140619864Y-65571910D01*
X140616283Y-65520299D01*
X140619941Y-65499579D01*
X140688837Y-65499579D01*
X140690134Y-65540707D01*
X140700911Y-65583857D01*
X140720120Y-65625693D01*
X140746712Y-65662877D01*
X140779639Y-65692072D01*
X140810054Y-65705272D01*
X140849960Y-65707619D01*
X140894182Y-65697056D01*
X140940766Y-65673806D01*
X140942632Y-65672637D01*
X140957632Y-65663287D01*
X140964858Y-65658862D01*
X140963146Y-65654080D01*
X140955407Y-65637794D01*
X140942693Y-65612367D01*
X140926314Y-65580299D01*
X140907577Y-65544092D01*
X140887791Y-65506247D01*
X140868265Y-65469263D01*
X140850307Y-65435643D01*
X140835226Y-65407886D01*
X140824329Y-65388493D01*
X140818927Y-65379966D01*
X140818173Y-65379381D01*
X140806554Y-65380070D01*
X140787225Y-65388388D01*
X140763764Y-65402065D01*
X140739752Y-65418834D01*
X140718767Y-65436424D01*
X140704388Y-65452569D01*
X140698069Y-65463812D01*
X140688837Y-65499579D01*
X140619941Y-65499579D01*
X140624990Y-65470974D01*
X140645456Y-65426934D01*
X140677154Y-65391179D01*
X140678269Y-65390283D01*
X140693640Y-65379629D01*
X140716985Y-65365090D01*
X140745263Y-65348373D01*
X140775436Y-65331183D01*
X140804463Y-65315225D01*
X140829304Y-65302205D01*
X140846919Y-65293830D01*
X140854269Y-65291804D01*
X140856005Y-65294457D01*
X140865519Y-65311042D01*
X140879811Y-65337695D01*
X140897799Y-65372242D01*
X140918401Y-65412513D01*
X140940536Y-65456333D01*
X140963123Y-65501532D01*
X140985079Y-65545936D01*
X141005324Y-65587373D01*
X141022775Y-65623671D01*
X141036351Y-65652657D01*
X141039093Y-65658862D01*
X141044970Y-65672159D01*
G37*
G36*
X141110372Y-66497400D02*
G01*
X141146398Y-66510563D01*
X141174771Y-66533066D01*
X141193368Y-66564039D01*
X141200063Y-66602608D01*
X141200062Y-66603967D01*
X141199097Y-66623799D01*
X141195213Y-66640993D01*
X141186758Y-66658239D01*
X141172079Y-66678227D01*
X141149524Y-66703649D01*
X141117443Y-66737195D01*
X141093331Y-66762698D01*
X141069336Y-66791284D01*
X141055931Y-66813625D01*
X141052332Y-66831896D01*
X141057755Y-66848272D01*
X141071416Y-66864927D01*
X141077097Y-66870001D01*
X141105138Y-66883013D01*
X141138845Y-66883287D01*
X141176391Y-66871338D01*
X141215946Y-66847683D01*
X141255685Y-66812839D01*
X141269127Y-66799201D01*
X141285384Y-66785106D01*
X141298173Y-66780737D01*
X141312054Y-66785170D01*
X141331587Y-66797482D01*
X141335467Y-66803004D01*
X141332293Y-66817164D01*
X141319034Y-66835953D01*
X141297840Y-66857483D01*
X141270864Y-66879869D01*
X141240258Y-66901221D01*
X141208173Y-66919654D01*
X141176761Y-66933280D01*
X141157712Y-66938957D01*
X141111124Y-66944699D01*
X141068577Y-66939098D01*
X141031939Y-66923535D01*
X141003079Y-66899390D01*
X140983863Y-66868044D01*
X140976161Y-66830876D01*
X140981841Y-66789268D01*
X140984575Y-66781698D01*
X140997329Y-66759543D01*
X141019391Y-66732773D01*
X141052463Y-66699216D01*
X141064511Y-66687497D01*
X141095405Y-66655433D01*
X141115312Y-66630309D01*
X141125283Y-66610222D01*
X141126369Y-66593268D01*
X141119620Y-66577543D01*
X141106882Y-66564271D01*
X141081656Y-66554611D01*
X141050812Y-66555827D01*
X141016933Y-66567294D01*
X140982604Y-66588387D01*
X140950408Y-66618481D01*
X140947504Y-66621776D01*
X140930927Y-66639725D01*
X140919933Y-66647950D01*
X140910556Y-66648313D01*
X140898829Y-66642673D01*
X140884020Y-66632182D01*
X140875443Y-66621748D01*
X140875411Y-66621647D01*
X140879047Y-66610114D01*
X140892688Y-66592620D01*
X140913453Y-66571825D01*
X140938462Y-66550389D01*
X140964836Y-66530972D01*
X140989693Y-66516234D01*
X141023858Y-66502588D01*
X141068817Y-66494451D01*
X141110372Y-66497400D01*
G37*
G36*
X138256834Y-66663961D02*
G01*
X138267587Y-66681245D01*
X138282955Y-66708258D01*
X138301844Y-66742870D01*
X138323165Y-66782952D01*
X138345824Y-66826378D01*
X138368732Y-66871018D01*
X138390796Y-66914743D01*
X138410925Y-66955425D01*
X138428027Y-66990936D01*
X138441011Y-67019148D01*
X138448785Y-67037931D01*
X138450259Y-67045158D01*
X138444625Y-67047839D01*
X138426897Y-67056876D01*
X138399682Y-67071014D01*
X138365396Y-67088996D01*
X138326454Y-67109564D01*
X138296074Y-67125638D01*
X138261430Y-67143898D01*
X138233695Y-67158436D01*
X138215144Y-67168059D01*
X138208053Y-67171576D01*
X138207676Y-67171353D01*
X138202358Y-67163246D01*
X138193530Y-67147057D01*
X138188233Y-67136389D01*
X138185855Y-67127292D01*
X138188584Y-67119039D01*
X138198161Y-67110027D01*
X138216323Y-67098653D01*
X138244810Y-67083314D01*
X138285361Y-67062406D01*
X138311368Y-67048586D01*
X138337305Y-67033657D01*
X138354943Y-67022114D01*
X138361451Y-67015692D01*
X138359792Y-67009556D01*
X138352744Y-66992698D01*
X138342017Y-66969891D01*
X138329638Y-66945155D01*
X138317635Y-66922510D01*
X138308036Y-66905976D01*
X138302870Y-66899571D01*
X138298563Y-66901151D01*
X138282681Y-66908405D01*
X138258210Y-66920202D01*
X138228274Y-66935053D01*
X138207033Y-66945562D01*
X138181069Y-66957896D01*
X138162921Y-66965867D01*
X138155601Y-66968106D01*
X138153925Y-66965809D01*
X138146360Y-66952023D01*
X138139137Y-66935666D01*
X138135916Y-66924792D01*
X138139025Y-66921117D01*
X138153308Y-66911071D01*
X138176535Y-66897103D01*
X138205776Y-66881047D01*
X138275636Y-66844213D01*
X138248446Y-66790220D01*
X138221255Y-66736226D01*
X138134212Y-66779880D01*
X138047168Y-66823534D01*
X138028767Y-66802142D01*
X138010366Y-66780750D01*
X138051754Y-66757852D01*
X138054534Y-66756318D01*
X138086967Y-66738835D01*
X138122733Y-66720167D01*
X138158988Y-66701727D01*
X138192884Y-66684925D01*
X138221577Y-66671175D01*
X138242221Y-66661890D01*
X138251970Y-66658481D01*
X138256834Y-66663961D01*
G37*
G36*
X139468456Y-66256953D02*
G01*
X139470341Y-66260585D01*
X139495991Y-66310263D01*
X139519043Y-66355380D01*
X139538574Y-66394091D01*
X139553660Y-66424554D01*
X139563378Y-66444923D01*
X139566804Y-66453356D01*
X139561641Y-66457978D01*
X139544655Y-66468749D01*
X139517965Y-66484173D01*
X139483781Y-66502977D01*
X139444315Y-66523887D01*
X139321923Y-66587610D01*
X139308782Y-66562773D01*
X139303357Y-66552139D01*
X139300724Y-66542887D01*
X139303235Y-66534572D01*
X139312627Y-66525581D01*
X139330633Y-66514297D01*
X139358989Y-66499106D01*
X139399430Y-66478393D01*
X139427368Y-66464088D01*
X139453943Y-66450365D01*
X139472417Y-66440689D01*
X139479908Y-66436558D01*
X139478959Y-66431294D01*
X139472395Y-66415695D01*
X139461788Y-66393715D01*
X139449175Y-66369279D01*
X139436593Y-66346316D01*
X139426081Y-66328751D01*
X139419677Y-66320511D01*
X139412000Y-66321363D01*
X139392951Y-66328052D01*
X139365941Y-66339657D01*
X139334076Y-66354929D01*
X139306406Y-66368603D01*
X139278710Y-66381794D01*
X139258689Y-66390756D01*
X139249430Y-66394060D01*
X139241989Y-66387986D01*
X139233160Y-66372989D01*
X139231535Y-66369327D01*
X139228432Y-66359266D01*
X139229990Y-66350542D01*
X139238066Y-66341509D01*
X139254519Y-66330525D01*
X139281204Y-66315944D01*
X139319979Y-66296123D01*
X139338700Y-66286494D01*
X139364111Y-66272825D01*
X139381551Y-66262650D01*
X139388028Y-66257661D01*
X139387791Y-66256693D01*
X139383094Y-66245680D01*
X139374022Y-66226380D01*
X139362734Y-66203190D01*
X139351394Y-66180510D01*
X139342162Y-66162735D01*
X139337201Y-66154264D01*
X139336993Y-66154191D01*
X139328146Y-66157311D01*
X139308517Y-66166207D01*
X139280795Y-66179617D01*
X139247670Y-66196279D01*
X139160459Y-66240888D01*
X139146106Y-66222205D01*
X139136673Y-66207036D01*
X139133949Y-66196378D01*
X139138393Y-66192531D01*
X139154715Y-66182245D01*
X139180814Y-66167229D01*
X139214373Y-66148805D01*
X139253078Y-66128297D01*
X139370011Y-66067359D01*
X139468456Y-66256953D01*
G37*
G36*
X140255894Y-65627246D02*
G01*
X140290172Y-65637992D01*
X140297476Y-65642305D01*
X140328196Y-65669841D01*
X140346606Y-65704191D01*
X140351661Y-65742470D01*
X140342316Y-65781798D01*
X140334885Y-65793566D01*
X140318168Y-65814513D01*
X140295247Y-65840420D01*
X140268784Y-65868161D01*
X140265205Y-65871785D01*
X140236402Y-65902078D01*
X140217726Y-65924517D01*
X140207644Y-65941152D01*
X140204623Y-65954036D01*
X140208245Y-65979202D01*
X140222946Y-66000240D01*
X140250540Y-66013677D01*
X140265500Y-66017466D01*
X140281531Y-66018037D01*
X140299871Y-66013127D01*
X140326240Y-66001840D01*
X140333910Y-65998110D01*
X140372973Y-65973408D01*
X140407342Y-65943182D01*
X140442852Y-65905382D01*
X140467647Y-65921081D01*
X140492441Y-65936779D01*
X140469290Y-65966010D01*
X140468702Y-65966747D01*
X140441553Y-65994378D01*
X140405769Y-66022577D01*
X140367299Y-66047108D01*
X140332092Y-66063733D01*
X140303993Y-66070876D01*
X140263258Y-66074415D01*
X140223645Y-66071576D01*
X140191714Y-66062421D01*
X140189823Y-66061502D01*
X140158202Y-66037820D01*
X140137053Y-66005570D01*
X140127347Y-65968350D01*
X140130055Y-65929759D01*
X140146147Y-65893396D01*
X140151304Y-65886399D01*
X140169505Y-65864885D01*
X140193681Y-65838863D01*
X140220029Y-65812498D01*
X140246014Y-65786568D01*
X140263197Y-65766501D01*
X140272086Y-65751004D01*
X140274617Y-65737410D01*
X140272633Y-65721235D01*
X140260849Y-65700711D01*
X140240492Y-65689303D01*
X140213906Y-65686731D01*
X140183432Y-65692715D01*
X140151412Y-65706976D01*
X140120189Y-65729234D01*
X140092104Y-65759209D01*
X140083291Y-65770520D01*
X140072613Y-65780888D01*
X140062724Y-65781854D01*
X140048310Y-65775382D01*
X140047328Y-65774862D01*
X140032055Y-65763377D01*
X140025750Y-65752045D01*
X140027002Y-65746707D01*
X140037864Y-65730003D01*
X140057293Y-65709164D01*
X140082132Y-65687103D01*
X140109223Y-65666728D01*
X140135407Y-65650953D01*
X140169366Y-65636881D01*
X140214327Y-65626985D01*
X140255894Y-65627246D01*
G37*
G36*
X141183937Y-65124477D02*
G01*
X141193349Y-65140883D01*
X141207603Y-65167287D01*
X141225606Y-65201527D01*
X141246263Y-65241440D01*
X141268481Y-65284863D01*
X141291166Y-65329634D01*
X141313224Y-65373589D01*
X141333561Y-65414565D01*
X141351082Y-65450401D01*
X141364695Y-65478932D01*
X141373305Y-65497997D01*
X141375819Y-65505432D01*
X141371209Y-65508426D01*
X141354612Y-65517889D01*
X141328342Y-65532321D01*
X141294789Y-65550412D01*
X141256347Y-65570852D01*
X141228212Y-65585632D01*
X141192999Y-65603875D01*
X141164316Y-65618433D01*
X141144561Y-65628093D01*
X141136131Y-65631643D01*
X141135351Y-65631494D01*
X141127701Y-65623660D01*
X141117899Y-65607541D01*
X141115959Y-65603891D01*
X141111199Y-65594795D01*
X141109575Y-65587623D01*
X141112847Y-65580826D01*
X141122777Y-65572854D01*
X141141123Y-65562160D01*
X141169646Y-65547193D01*
X141210107Y-65526407D01*
X141294005Y-65483199D01*
X141261388Y-65421984D01*
X141228771Y-65360769D01*
X141160147Y-65395234D01*
X141141240Y-65404603D01*
X141114161Y-65417528D01*
X141094249Y-65426402D01*
X141084839Y-65429700D01*
X141077389Y-65423627D01*
X141068555Y-65408629D01*
X141065003Y-65399808D01*
X141064033Y-65389922D01*
X141069274Y-65380732D01*
X141082676Y-65370376D01*
X141106189Y-65356991D01*
X141141764Y-65338716D01*
X141148235Y-65335441D01*
X141173040Y-65322762D01*
X141190976Y-65313391D01*
X141198527Y-65309160D01*
X141198374Y-65305880D01*
X141193105Y-65292090D01*
X141183428Y-65271502D01*
X141171503Y-65248266D01*
X141159492Y-65226531D01*
X141149556Y-65210447D01*
X141143853Y-65204164D01*
X141143800Y-65204165D01*
X141134554Y-65207596D01*
X141114437Y-65216699D01*
X141086376Y-65230106D01*
X141053299Y-65246450D01*
X140968983Y-65288736D01*
X140952493Y-65266432D01*
X140936002Y-65244128D01*
X140999998Y-65209460D01*
X141045466Y-65185158D01*
X141087590Y-65163261D01*
X141124251Y-65144818D01*
X141153404Y-65130835D01*
X141173006Y-65122319D01*
X141181015Y-65120277D01*
X141183937Y-65124477D01*
G37*
G36*
X145594269Y-64850094D02*
G01*
X145602402Y-64854448D01*
X145618016Y-64864814D01*
X145643888Y-64886439D01*
X145672503Y-64913839D01*
X145700044Y-64943310D01*
X145722694Y-64971150D01*
X145757679Y-65024913D01*
X145792517Y-65100902D01*
X145812992Y-65181543D01*
X145819688Y-65268628D01*
X145818789Y-65299647D01*
X145807187Y-65378845D01*
X145781965Y-65451069D01*
X145742835Y-65516845D01*
X145689506Y-65576706D01*
X145621690Y-65631178D01*
X145609206Y-65639638D01*
X145536607Y-65682527D01*
X145464241Y-65715088D01*
X145395713Y-65735655D01*
X145388119Y-65737240D01*
X145326921Y-65746135D01*
X145270275Y-65746075D01*
X145210893Y-65737117D01*
X145201367Y-65734963D01*
X145133297Y-65710949D01*
X145070842Y-65672879D01*
X145013793Y-65620567D01*
X144961943Y-65553828D01*
X144915082Y-65472474D01*
X144891473Y-65418758D01*
X144870115Y-65343224D01*
X144863105Y-65267838D01*
X144863149Y-65244916D01*
X144864346Y-65217461D01*
X144868836Y-65201692D01*
X144878794Y-65195186D01*
X144896400Y-65195519D01*
X144923830Y-65200270D01*
X144950492Y-65205209D01*
X144981673Y-65210941D01*
X145005037Y-65215187D01*
X145034201Y-65220423D01*
X145034201Y-65270330D01*
X145034203Y-65271450D01*
X145041880Y-65334425D01*
X145064154Y-65392260D01*
X145100664Y-65444009D01*
X145103456Y-65447068D01*
X145144498Y-65482120D01*
X145189646Y-65502533D01*
X145240294Y-65508956D01*
X145269931Y-65506784D01*
X145301782Y-65500026D01*
X145338532Y-65487761D01*
X145382939Y-65469068D01*
X145437762Y-65443026D01*
X145497513Y-65410002D01*
X145550883Y-65372287D01*
X145591955Y-65333300D01*
X145619131Y-65294353D01*
X145620737Y-65291117D01*
X145634294Y-65245855D01*
X145634361Y-65197230D01*
X145621793Y-65147565D01*
X145597441Y-65099184D01*
X145562158Y-65054412D01*
X145516798Y-65015570D01*
X145499370Y-65003363D01*
X145535118Y-64934611D01*
X145548267Y-64909293D01*
X145563573Y-64880230D01*
X145574208Y-64861707D01*
X145581790Y-64851796D01*
X145587938Y-64848568D01*
X145594269Y-64850094D01*
G37*
G36*
X137898084Y-66871773D02*
G01*
X137932322Y-66885023D01*
X137958935Y-66907614D01*
X137976039Y-66939137D01*
X137981752Y-66979180D01*
X137979337Y-66999920D01*
X137966153Y-67033511D01*
X137940559Y-67069127D01*
X137901482Y-67108495D01*
X137899869Y-67109960D01*
X137865172Y-67144279D01*
X137843578Y-67172775D01*
X137834516Y-67196939D01*
X137837413Y-67218260D01*
X137851698Y-67238228D01*
X137869837Y-67250542D01*
X137900434Y-67256777D01*
X137935842Y-67251975D01*
X137973457Y-67236930D01*
X138010677Y-67212437D01*
X138044896Y-67179288D01*
X138047590Y-67176146D01*
X138063489Y-67159199D01*
X138075913Y-67153125D01*
X138090288Y-67157248D01*
X138112037Y-67170887D01*
X138115791Y-67175898D01*
X138113213Y-67189863D01*
X138100534Y-67208568D01*
X138079922Y-67230077D01*
X138053547Y-67252450D01*
X138023577Y-67273750D01*
X137992181Y-67292038D01*
X137961528Y-67305377D01*
X137914596Y-67316442D01*
X137867871Y-67316404D01*
X137827007Y-67304799D01*
X137793865Y-67282506D01*
X137770308Y-67250404D01*
X137758198Y-67209373D01*
X137757069Y-67191960D01*
X137759895Y-67171436D01*
X137768801Y-67150391D01*
X137785209Y-67126413D01*
X137810541Y-67097088D01*
X137846219Y-67060004D01*
X137859317Y-67046537D01*
X137887165Y-67015654D01*
X137904446Y-66992515D01*
X137910380Y-66978118D01*
X137907283Y-66964988D01*
X137893713Y-66945073D01*
X137874158Y-66929311D01*
X137853932Y-66922902D01*
X137841867Y-66924433D01*
X137813672Y-66934317D01*
X137782146Y-66950994D01*
X137752223Y-66971678D01*
X137728835Y-66993583D01*
X137725141Y-66997892D01*
X137709459Y-67015096D01*
X137698532Y-67022136D01*
X137687866Y-67020453D01*
X137672969Y-67011486D01*
X137669913Y-67009474D01*
X137659481Y-67000861D01*
X137658976Y-66991665D01*
X137667409Y-66975494D01*
X137676929Y-66962652D01*
X137696838Y-66942050D01*
X137720320Y-66922079D01*
X137722522Y-66920419D01*
X137768439Y-66892188D01*
X137814259Y-66874945D01*
X137858102Y-66868277D01*
X137898084Y-66871773D01*
G37*
G36*
X142104551Y-64055433D02*
G01*
X142105650Y-64057434D01*
X142118281Y-64080875D01*
X142136252Y-64114752D01*
X142157973Y-64156044D01*
X142181854Y-64201729D01*
X142206305Y-64248785D01*
X142281449Y-64393866D01*
X142255085Y-64410160D01*
X142249720Y-64413413D01*
X142232928Y-64422715D01*
X142223663Y-64426454D01*
X142222683Y-64425583D01*
X142215713Y-64414450D01*
X142203370Y-64392095D01*
X142186730Y-64360549D01*
X142166869Y-64321839D01*
X142144866Y-64277996D01*
X142133854Y-64255893D01*
X142111715Y-64212110D01*
X142095190Y-64180725D01*
X142083566Y-64160555D01*
X142076129Y-64150418D01*
X142072165Y-64149129D01*
X142070961Y-64155507D01*
X142070740Y-64161714D01*
X142069653Y-64182457D01*
X142067820Y-64214082D01*
X142065421Y-64253745D01*
X142062638Y-64298603D01*
X142059650Y-64345814D01*
X142056638Y-64392534D01*
X142053782Y-64435921D01*
X142051264Y-64473131D01*
X142049264Y-64501321D01*
X142047962Y-64517649D01*
X142046957Y-64518595D01*
X142036583Y-64524863D01*
X142018631Y-64534520D01*
X142011148Y-64538151D01*
X141993863Y-64544408D01*
X141984720Y-64544427D01*
X141981395Y-64539076D01*
X141971823Y-64521747D01*
X141957338Y-64494667D01*
X141939044Y-64459974D01*
X141918044Y-64419807D01*
X141895444Y-64376303D01*
X141872347Y-64331602D01*
X141849857Y-64287842D01*
X141829079Y-64247161D01*
X141811117Y-64211696D01*
X141797074Y-64183587D01*
X141788056Y-64164972D01*
X141785166Y-64157989D01*
X141787015Y-64156701D01*
X141799385Y-64149928D01*
X141816821Y-64141372D01*
X141833043Y-64134037D01*
X141841771Y-64130924D01*
X141842519Y-64131553D01*
X141849026Y-64142039D01*
X141860900Y-64163855D01*
X141877067Y-64194948D01*
X141896453Y-64233263D01*
X141917984Y-64276745D01*
X141989467Y-64422565D01*
X141994178Y-64321463D01*
X141995961Y-64284857D01*
X141998809Y-64230427D01*
X142001823Y-64176340D01*
X142004591Y-64130194D01*
X142010293Y-64040027D01*
X142044116Y-64023594D01*
X142077940Y-64007161D01*
X142104551Y-64055433D01*
G37*
G36*
X142906933Y-64603527D02*
G01*
X142936767Y-64631342D01*
X142960216Y-64653510D01*
X142975552Y-64668445D01*
X142981047Y-64674565D01*
X142980462Y-64675998D01*
X142970882Y-64683776D01*
X142953281Y-64693458D01*
X142925515Y-64706699D01*
X142878034Y-64664404D01*
X142830553Y-64622109D01*
X142754147Y-64660452D01*
X142744417Y-64665321D01*
X142712850Y-64681533D01*
X142692510Y-64694777D01*
X142681463Y-64708675D01*
X142677776Y-64726852D01*
X142679518Y-64752929D01*
X142684755Y-64790530D01*
X142690634Y-64831857D01*
X142662800Y-64846570D01*
X142641366Y-64857301D01*
X142629301Y-64859952D01*
X142623346Y-64853373D01*
X142619708Y-64836696D01*
X142618850Y-64831370D01*
X142615407Y-64807418D01*
X142610801Y-64772903D01*
X142605348Y-64730423D01*
X142599361Y-64682577D01*
X142593153Y-64631964D01*
X142587038Y-64581184D01*
X142581332Y-64532836D01*
X142576347Y-64489520D01*
X142572397Y-64453833D01*
X142571209Y-64442206D01*
X142636669Y-64442206D01*
X142636879Y-64451623D01*
X142639059Y-64473079D01*
X142642882Y-64503699D01*
X142648022Y-64540611D01*
X142648865Y-64546379D01*
X142654339Y-64582840D01*
X142659084Y-64612789D01*
X142662617Y-64633261D01*
X142664454Y-64641296D01*
X142666141Y-64641028D01*
X142678310Y-64635659D01*
X142699442Y-64624962D01*
X142726337Y-64610530D01*
X142786138Y-64577683D01*
X142713075Y-64509846D01*
X142708759Y-64505844D01*
X142681602Y-64480907D01*
X142659069Y-64460626D01*
X142643402Y-64446995D01*
X142636842Y-64442008D01*
X142636669Y-64442206D01*
X142571209Y-64442206D01*
X142569797Y-64428376D01*
X142568861Y-64415748D01*
X142571407Y-64402072D01*
X142581820Y-64390542D01*
X142603610Y-64378261D01*
X142621580Y-64369787D01*
X142635198Y-64365541D01*
X142644818Y-64367816D01*
X142655913Y-64376418D01*
X142664348Y-64383698D01*
X142690530Y-64406708D01*
X142722414Y-64435156D01*
X142758274Y-64467457D01*
X142796383Y-64502028D01*
X142835013Y-64537286D01*
X142872439Y-64571647D01*
X142878970Y-64577683D01*
X142906933Y-64603527D01*
G37*
G36*
X139995711Y-66442479D02*
G01*
X140043198Y-66455620D01*
X140084486Y-66482093D01*
X140120351Y-66522477D01*
X140151572Y-66577348D01*
X140166047Y-66613876D01*
X140177702Y-66671580D01*
X140174579Y-66725563D01*
X140157055Y-66774923D01*
X140125509Y-66818760D01*
X140080318Y-66856172D01*
X140021862Y-66886259D01*
X140013129Y-66889310D01*
X139982645Y-66896186D01*
X139951868Y-66899076D01*
X139912982Y-66899382D01*
X139868244Y-66811984D01*
X139866239Y-66808064D01*
X139849573Y-66775147D01*
X139836002Y-66747775D01*
X139826875Y-66728707D01*
X139823543Y-66720698D01*
X139829156Y-66715850D01*
X139845436Y-66705916D01*
X139868950Y-66692834D01*
X139896230Y-66678397D01*
X139923810Y-66664400D01*
X139948226Y-66652636D01*
X139966011Y-66644899D01*
X139973699Y-66642983D01*
X139973876Y-66643195D01*
X139977928Y-66653456D01*
X139982598Y-66671691D01*
X139984720Y-66685461D01*
X139981829Y-66695576D01*
X139970734Y-66704653D01*
X139948509Y-66716540D01*
X139931826Y-66725371D01*
X139915435Y-66735122D01*
X139909094Y-66740493D01*
X139909337Y-66741464D01*
X139914044Y-66752460D01*
X139923110Y-66771735D01*
X139934377Y-66794893D01*
X139945683Y-66817537D01*
X139954871Y-66835270D01*
X139959782Y-66843698D01*
X139967250Y-66844580D01*
X139984781Y-66840373D01*
X140007254Y-66832186D01*
X140029908Y-66821787D01*
X140047983Y-66810944D01*
X140063466Y-66798461D01*
X140093975Y-66762890D01*
X140109472Y-66723333D01*
X140110028Y-66679523D01*
X140095714Y-66631191D01*
X140082529Y-66603414D01*
X140054006Y-66558190D01*
X140022214Y-66524119D01*
X139988657Y-66502652D01*
X139954838Y-66495238D01*
X139923300Y-66500333D01*
X139885918Y-66515506D01*
X139851351Y-66537654D01*
X139825543Y-66563632D01*
X139803283Y-66594362D01*
X139777794Y-66581181D01*
X139752305Y-66568000D01*
X139778430Y-66533747D01*
X139808859Y-66499728D01*
X139854635Y-66466549D01*
X139907214Y-66447079D01*
X139967813Y-66440722D01*
X139995711Y-66442479D01*
G37*
G36*
X141590353Y-65572914D02*
G01*
X141599492Y-65587836D01*
X141613803Y-65612962D01*
X141632147Y-65646146D01*
X141653389Y-65685244D01*
X141676390Y-65728110D01*
X141700014Y-65772599D01*
X141723123Y-65816568D01*
X141744581Y-65857871D01*
X141763250Y-65894363D01*
X141777993Y-65923899D01*
X141787672Y-65944335D01*
X141791151Y-65953525D01*
X141790119Y-65955277D01*
X141779597Y-65963131D01*
X141761385Y-65973412D01*
X141731619Y-65988597D01*
X141658338Y-65840071D01*
X141649350Y-65821987D01*
X141628686Y-65781487D01*
X141610792Y-65747908D01*
X141596659Y-65723024D01*
X141587279Y-65708611D01*
X141583645Y-65706443D01*
X141583332Y-65710579D01*
X141582157Y-65729277D01*
X141580366Y-65759866D01*
X141578096Y-65799921D01*
X141575486Y-65847016D01*
X141572674Y-65898725D01*
X141563116Y-66076109D01*
X141535202Y-66090864D01*
X141529236Y-66093962D01*
X141511612Y-66102405D01*
X141501865Y-66105963D01*
X141500489Y-66104466D01*
X141492918Y-66092138D01*
X141479942Y-66069146D01*
X141462695Y-66037649D01*
X141442312Y-65999802D01*
X141419930Y-65957764D01*
X141396682Y-65913690D01*
X141373704Y-65869739D01*
X141352131Y-65828066D01*
X141333098Y-65790830D01*
X141317741Y-65760187D01*
X141307195Y-65738293D01*
X141302594Y-65727307D01*
X141305016Y-65721631D01*
X141316926Y-65711495D01*
X141333643Y-65701512D01*
X141349546Y-65694909D01*
X141359017Y-65694912D01*
X141359395Y-65695441D01*
X141365021Y-65705828D01*
X141376147Y-65727603D01*
X141391691Y-65758611D01*
X141410572Y-65796697D01*
X141431707Y-65839707D01*
X141500817Y-65980923D01*
X141509926Y-65823912D01*
X141510246Y-65818383D01*
X141513029Y-65768587D01*
X141515445Y-65722468D01*
X141517350Y-65682987D01*
X141518601Y-65653108D01*
X141519054Y-65635793D01*
X141519109Y-65630206D01*
X141521559Y-65612003D01*
X141530472Y-65599706D01*
X141549718Y-65587186D01*
X141558537Y-65582315D01*
X141576962Y-65573273D01*
X141587648Y-65569687D01*
X141590353Y-65572914D01*
G37*
G36*
X142136902Y-64946591D02*
G01*
X142157850Y-64987623D01*
X142176079Y-65023508D01*
X142190475Y-65052082D01*
X142199927Y-65071180D01*
X142203324Y-65078638D01*
X142203300Y-65078884D01*
X142196702Y-65086222D01*
X142181937Y-65096518D01*
X142181645Y-65096693D01*
X142164427Y-65105863D01*
X142152786Y-65110014D01*
X142148119Y-65106145D01*
X142137356Y-65090962D01*
X142122852Y-65066918D01*
X142106404Y-65036843D01*
X142093568Y-65012486D01*
X142079856Y-64986920D01*
X142070222Y-64969506D01*
X142066208Y-64963074D01*
X142065313Y-64963392D01*
X142054470Y-64968325D01*
X142034100Y-64977987D01*
X142007599Y-64990774D01*
X141982657Y-65002382D01*
X141957744Y-65011677D01*
X141937616Y-65015205D01*
X141917395Y-65014235D01*
X141913881Y-65013752D01*
X141868377Y-65000093D01*
X141832541Y-64974569D01*
X141807469Y-64938266D01*
X141794255Y-64892266D01*
X141793348Y-64881299D01*
X141793614Y-64879409D01*
X141862192Y-64879409D01*
X141872196Y-64910690D01*
X141897290Y-64941099D01*
X141904479Y-64947022D01*
X141928644Y-64958318D01*
X141955958Y-64957071D01*
X141989548Y-64943358D01*
X142005642Y-64934626D01*
X142024828Y-64923455D01*
X142035029Y-64916474D01*
X142035297Y-64911338D01*
X142030000Y-64894670D01*
X142019175Y-64869874D01*
X142004105Y-64840113D01*
X141966504Y-64770168D01*
X141930146Y-64788592D01*
X141919720Y-64794240D01*
X141886253Y-64819794D01*
X141866977Y-64848647D01*
X141862192Y-64879409D01*
X141793614Y-64879409D01*
X141798872Y-64841982D01*
X141816327Y-64805944D01*
X141843471Y-64778374D01*
X141851814Y-64773012D01*
X141872278Y-64761000D01*
X141898611Y-64746304D01*
X141927575Y-64730640D01*
X141955932Y-64715727D01*
X141980445Y-64703283D01*
X141997876Y-64695026D01*
X142004986Y-64692674D01*
X142007530Y-64697037D01*
X142016377Y-64713502D01*
X142030289Y-64739969D01*
X142048154Y-64774274D01*
X142068860Y-64814253D01*
X142091295Y-64857742D01*
X142114346Y-64902576D01*
X142118836Y-64911338D01*
X142136902Y-64946591D01*
G37*
G36*
X143728602Y-66119509D02*
G01*
X143770117Y-66157227D01*
X143808404Y-66192450D01*
X143814242Y-66198177D01*
X143817250Y-66205137D01*
X143810266Y-66212000D01*
X143791301Y-66222231D01*
X143759549Y-66238430D01*
X143712555Y-66194922D01*
X143665561Y-66151414D01*
X143589670Y-66190553D01*
X143580770Y-66195133D01*
X143549097Y-66211854D01*
X143528609Y-66225474D01*
X143517354Y-66239651D01*
X143513379Y-66258046D01*
X143514731Y-66284317D01*
X143519458Y-66322123D01*
X143524712Y-66362955D01*
X143495914Y-66378164D01*
X143489548Y-66381487D01*
X143468955Y-66391112D01*
X143458406Y-66393151D01*
X143455392Y-66388227D01*
X143455380Y-66387995D01*
X143454242Y-66377624D01*
X143451414Y-66354058D01*
X143447148Y-66319332D01*
X143441694Y-66275478D01*
X143435304Y-66224531D01*
X143428230Y-66168524D01*
X143427679Y-66164168D01*
X143420621Y-66107956D01*
X143414273Y-66056525D01*
X143408890Y-66012005D01*
X143404725Y-65976525D01*
X143404026Y-65970208D01*
X143468946Y-65970208D01*
X143473852Y-66009093D01*
X143473879Y-66009303D01*
X143477542Y-66037155D01*
X143482412Y-66072683D01*
X143487442Y-66108251D01*
X143487968Y-66111821D01*
X143493509Y-66141344D01*
X143499445Y-66160983D01*
X143504952Y-66167928D01*
X143505947Y-66167759D01*
X143518538Y-66162751D01*
X143539904Y-66152275D01*
X143566031Y-66138280D01*
X143618283Y-66109228D01*
X143573808Y-66066826D01*
X143573394Y-66066431D01*
X143546956Y-66041461D01*
X143520302Y-66016651D01*
X143499139Y-65997316D01*
X143468946Y-65970208D01*
X143404026Y-65970208D01*
X143402033Y-65952214D01*
X143401069Y-65941202D01*
X143403234Y-65935654D01*
X143415584Y-65923319D01*
X143434465Y-65910487D01*
X143454784Y-65900407D01*
X143471449Y-65896325D01*
X143472153Y-65896571D01*
X143481926Y-65903660D01*
X143501265Y-65919496D01*
X143528569Y-65942674D01*
X143562239Y-65971789D01*
X143600677Y-66005436D01*
X143642283Y-66042208D01*
X143685457Y-66080701D01*
X143717172Y-66109228D01*
X143728602Y-66119509D01*
G37*
G36*
X141442820Y-66983775D02*
G01*
X141479886Y-67001510D01*
X141509232Y-67031778D01*
X141516980Y-67044564D01*
X141527140Y-67075140D01*
X141525202Y-67106955D01*
X141510684Y-67141382D01*
X141483106Y-67179794D01*
X141441985Y-67223562D01*
X141434868Y-67230551D01*
X141406498Y-67260005D01*
X141388561Y-67282860D01*
X141379702Y-67301796D01*
X141378565Y-67319492D01*
X141383796Y-67338628D01*
X141388052Y-67345283D01*
X141404580Y-67358748D01*
X141426328Y-67369534D01*
X141446629Y-67373898D01*
X141463542Y-67370897D01*
X141492421Y-67359283D01*
X141524685Y-67341293D01*
X141555913Y-67319466D01*
X141581683Y-67296344D01*
X141617194Y-67258597D01*
X141641946Y-67274269D01*
X141666698Y-67289941D01*
X141650848Y-67312201D01*
X141624962Y-67341458D01*
X141582814Y-67375133D01*
X141531321Y-67405352D01*
X141528053Y-67406962D01*
X141480329Y-67423984D01*
X141434249Y-67429346D01*
X141391889Y-67423898D01*
X141355326Y-67408492D01*
X141326637Y-67383979D01*
X141307901Y-67351210D01*
X141301194Y-67311037D01*
X141301574Y-67300003D01*
X141305499Y-67278162D01*
X141314991Y-67256519D01*
X141331662Y-67232554D01*
X141357123Y-67203749D01*
X141392987Y-67167585D01*
X141419942Y-67140220D01*
X141437303Y-67119667D01*
X141446355Y-67103924D01*
X141448959Y-67090426D01*
X141448423Y-67081789D01*
X141439416Y-67058783D01*
X141421103Y-67044949D01*
X141395840Y-67040079D01*
X141365982Y-67043963D01*
X141333883Y-67056393D01*
X141301899Y-67077162D01*
X141272384Y-67106059D01*
X141271800Y-67106758D01*
X141255657Y-67125332D01*
X141244893Y-67133839D01*
X141235171Y-67134200D01*
X141222157Y-67128340D01*
X141221547Y-67128021D01*
X141206373Y-67116921D01*
X141200092Y-67106178D01*
X141201088Y-67101635D01*
X141211376Y-67085475D01*
X141230302Y-67064880D01*
X141254738Y-67042773D01*
X141281553Y-67022078D01*
X141307618Y-67005718D01*
X141352719Y-66986833D01*
X141399831Y-66978805D01*
X141442820Y-66983775D01*
G37*
G36*
X141820526Y-66823460D02*
G01*
X141833078Y-66846864D01*
X141851704Y-66882044D01*
X141874010Y-66924486D01*
X141898218Y-66970806D01*
X141922551Y-67017620D01*
X141993798Y-67155113D01*
X141898308Y-67205358D01*
X141890486Y-67209473D01*
X141853803Y-67228768D01*
X141820845Y-67246097D01*
X141794956Y-67259698D01*
X141779486Y-67267815D01*
X141778252Y-67268454D01*
X141759875Y-67276745D01*
X141747377Y-67280337D01*
X141745203Y-67279668D01*
X141736735Y-67270381D01*
X141727937Y-67255004D01*
X141721985Y-67239747D01*
X141722055Y-67230822D01*
X141722192Y-67230716D01*
X141730799Y-67225772D01*
X141750229Y-67215204D01*
X141777741Y-67200489D01*
X141810594Y-67183105D01*
X141813152Y-67181757D01*
X141845806Y-67164462D01*
X141873003Y-67149893D01*
X141891969Y-67139547D01*
X141899931Y-67134920D01*
X141900033Y-67134809D01*
X141898196Y-67126399D01*
X141890448Y-67108742D01*
X141878869Y-67085681D01*
X141865533Y-67061058D01*
X141852520Y-67038713D01*
X141841904Y-67022489D01*
X141835763Y-67016227D01*
X141832633Y-67017119D01*
X141817806Y-67023526D01*
X141794357Y-67034759D01*
X141765703Y-67049210D01*
X141750753Y-67056914D01*
X141724678Y-67070341D01*
X141705783Y-67080057D01*
X141697391Y-67084352D01*
X141696528Y-67084362D01*
X141689825Y-67077000D01*
X141680831Y-67060851D01*
X141668595Y-67035190D01*
X141740822Y-66996872D01*
X141813050Y-66958554D01*
X141786449Y-66905731D01*
X141783833Y-66900585D01*
X141770805Y-66876375D01*
X141760440Y-66859344D01*
X141754784Y-66852908D01*
X141746393Y-66856313D01*
X141727143Y-66865647D01*
X141699917Y-66879480D01*
X141667587Y-66896379D01*
X141585454Y-66939850D01*
X141567239Y-66918674D01*
X141564600Y-66915459D01*
X141555691Y-66900692D01*
X141555375Y-66891689D01*
X141560084Y-66888644D01*
X141576934Y-66879086D01*
X141603459Y-66864629D01*
X141637209Y-66846603D01*
X141675737Y-66826336D01*
X141789748Y-66766792D01*
X141820526Y-66823460D01*
G37*
G36*
X143275416Y-60313628D02*
G01*
X143283787Y-60325311D01*
X143297172Y-60347378D01*
X143314128Y-60377393D01*
X143333214Y-60412919D01*
X143385962Y-60513402D01*
X143228223Y-60595207D01*
X143210239Y-60604540D01*
X143158539Y-60631425D01*
X143097598Y-60663170D01*
X143030621Y-60698106D01*
X142960811Y-60734561D01*
X142891371Y-60770862D01*
X142825505Y-60805339D01*
X142773418Y-60832493D01*
X142720386Y-60859850D01*
X142673087Y-60883948D01*
X142633125Y-60903984D01*
X142602102Y-60919155D01*
X142581622Y-60928657D01*
X142573287Y-60931689D01*
X142571463Y-60929867D01*
X142563002Y-60916750D01*
X142549154Y-60892733D01*
X142530982Y-60859858D01*
X142509549Y-60820168D01*
X142485917Y-60775706D01*
X142461150Y-60728515D01*
X142436309Y-60680637D01*
X142412458Y-60634115D01*
X142390659Y-60590992D01*
X142371975Y-60553311D01*
X142357469Y-60523114D01*
X142348204Y-60502444D01*
X142345241Y-60493344D01*
X142345511Y-60492498D01*
X142353286Y-60482037D01*
X142369355Y-60465448D01*
X142390936Y-60445151D01*
X142415245Y-60423564D01*
X142439498Y-60403105D01*
X142460912Y-60386194D01*
X142476703Y-60375249D01*
X142484088Y-60372690D01*
X142484122Y-60372727D01*
X142489357Y-60381399D01*
X142500479Y-60401597D01*
X142516275Y-60431060D01*
X142535533Y-60467529D01*
X142557041Y-60508741D01*
X142557859Y-60510316D01*
X142579264Y-60550937D01*
X142598454Y-60586257D01*
X142614218Y-60614136D01*
X142625347Y-60632433D01*
X142630633Y-60639008D01*
X142636382Y-60636563D01*
X142654777Y-60627631D01*
X142684397Y-60612828D01*
X142723839Y-60592867D01*
X142771702Y-60568459D01*
X142826585Y-60540319D01*
X142887087Y-60509158D01*
X142951806Y-60475688D01*
X143006138Y-60447588D01*
X143067483Y-60415994D01*
X143123465Y-60387306D01*
X143172677Y-60362236D01*
X143213716Y-60341498D01*
X143245174Y-60325805D01*
X143265647Y-60315869D01*
X143273730Y-60312403D01*
X143275416Y-60313628D01*
G37*
G36*
X140391331Y-64933256D02*
G01*
X140422724Y-64952213D01*
X140445813Y-64981211D01*
X140458671Y-65020078D01*
X140459076Y-65042740D01*
X140447190Y-65080110D01*
X140420179Y-65120050D01*
X140378140Y-65162386D01*
X140376523Y-65163811D01*
X140340248Y-65199665D01*
X140318294Y-65230782D01*
X140310441Y-65257898D01*
X140316470Y-65281750D01*
X140336160Y-65303074D01*
X140348630Y-65309765D01*
X140377426Y-65313222D01*
X140411733Y-65306389D01*
X140448685Y-65290335D01*
X140485416Y-65266130D01*
X140519058Y-65234843D01*
X140519963Y-65233842D01*
X140536818Y-65215895D01*
X140547797Y-65207785D01*
X140557128Y-65207754D01*
X140569036Y-65214044D01*
X140569400Y-65214265D01*
X140585377Y-65225935D01*
X140590299Y-65237228D01*
X140584001Y-65251740D01*
X140566316Y-65273070D01*
X140554533Y-65285219D01*
X140515077Y-65317869D01*
X140470845Y-65345489D01*
X140428187Y-65363903D01*
X140406256Y-65369615D01*
X140357707Y-65373729D01*
X140314467Y-65365590D01*
X140278407Y-65346051D01*
X140251397Y-65315962D01*
X140235310Y-65276174D01*
X140233399Y-65265968D01*
X140232937Y-65242204D01*
X140239513Y-65218414D01*
X140254382Y-65192148D01*
X140278798Y-65160955D01*
X140314016Y-65122385D01*
X140346021Y-65087695D01*
X140368286Y-65060144D01*
X140380365Y-65039031D01*
X140383011Y-65022398D01*
X140376974Y-65008289D01*
X140363005Y-64994747D01*
X140362793Y-64994580D01*
X140343575Y-64983359D01*
X140326064Y-64978799D01*
X140306719Y-64981993D01*
X140274640Y-64995478D01*
X140240833Y-65017231D01*
X140209684Y-65044764D01*
X140175042Y-65080919D01*
X140150817Y-65068392D01*
X140138059Y-65060301D01*
X140132388Y-65050589D01*
X140136502Y-65037977D01*
X140151212Y-65020222D01*
X140177328Y-64995082D01*
X140177332Y-64995078D01*
X140221307Y-64961261D01*
X140266624Y-64938342D01*
X140311352Y-64926149D01*
X140353564Y-64924510D01*
X140391331Y-64933256D01*
G37*
G36*
X144341432Y-62446406D02*
G01*
X144359577Y-62457768D01*
X144383594Y-62476488D01*
X144411083Y-62500882D01*
X144437837Y-62528463D01*
X144483311Y-62587333D01*
X144521655Y-62652592D01*
X144549142Y-62718366D01*
X144552781Y-62730153D01*
X144567795Y-62803886D01*
X144571032Y-62879399D01*
X144562817Y-62953374D01*
X144543476Y-63022489D01*
X144513334Y-63083426D01*
X144505607Y-63095136D01*
X144454820Y-63157170D01*
X144392132Y-63213625D01*
X144320343Y-63262544D01*
X144242252Y-63301971D01*
X144160658Y-63329949D01*
X144139764Y-63334820D01*
X144070432Y-63343328D01*
X144000608Y-63341323D01*
X143934564Y-63329147D01*
X143876574Y-63307144D01*
X143868952Y-63303121D01*
X143811034Y-63263571D01*
X143756836Y-63210941D01*
X143707993Y-63147324D01*
X143666143Y-63074814D01*
X143632922Y-62995503D01*
X143631662Y-62991728D01*
X143622782Y-62956569D01*
X143616300Y-62915964D01*
X143612686Y-62875013D01*
X143612414Y-62838815D01*
X143615956Y-62812469D01*
X143622658Y-62788901D01*
X143701408Y-62803339D01*
X143780158Y-62817777D01*
X143783999Y-62877459D01*
X143784893Y-62889006D01*
X143795452Y-62947586D01*
X143816378Y-62997435D01*
X143849063Y-63042069D01*
X143882076Y-63073383D01*
X143917422Y-63095093D01*
X143955940Y-63106290D01*
X143999309Y-63106997D01*
X144049208Y-63097236D01*
X144107316Y-63077030D01*
X144175310Y-63046400D01*
X144197205Y-63035482D01*
X144256832Y-63002320D01*
X144303264Y-62970208D01*
X144338118Y-62937921D01*
X144363013Y-62904233D01*
X144371381Y-62887754D01*
X144383585Y-62841586D01*
X144382805Y-62792294D01*
X144369858Y-62742333D01*
X144345559Y-62694160D01*
X144310726Y-62650233D01*
X144266176Y-62613006D01*
X144248642Y-62601210D01*
X144288806Y-62524196D01*
X144303027Y-62497006D01*
X144316956Y-62470555D01*
X144326774Y-62452126D01*
X144330950Y-62444608D01*
X144331558Y-62444087D01*
X144341432Y-62446406D01*
G37*
G36*
X142477252Y-65786206D02*
G01*
X142514612Y-65801408D01*
X142543469Y-65827888D01*
X142561832Y-65864648D01*
X142567036Y-65892951D01*
X142563862Y-65920407D01*
X142550931Y-65948701D01*
X142527101Y-65980305D01*
X142491231Y-66017692D01*
X142465494Y-66043766D01*
X142437514Y-66076926D01*
X142421970Y-66104117D01*
X142418427Y-66126731D01*
X142426448Y-66146162D01*
X142445600Y-66163803D01*
X142468940Y-66173812D01*
X142502364Y-66173864D01*
X142539926Y-66161433D01*
X142579826Y-66137160D01*
X142620259Y-66101686D01*
X142659990Y-66061198D01*
X142682190Y-66078899D01*
X142704390Y-66096600D01*
X142683055Y-66124572D01*
X142681110Y-66127066D01*
X142648764Y-66159490D01*
X142606891Y-66189787D01*
X142561004Y-66214465D01*
X142516618Y-66230028D01*
X142497672Y-66234236D01*
X142476014Y-66237144D01*
X142456935Y-66235685D01*
X142432937Y-66229843D01*
X142420801Y-66225479D01*
X142393043Y-66209120D01*
X142368078Y-66186904D01*
X142349804Y-66162675D01*
X142342116Y-66140275D01*
X142342087Y-66139746D01*
X142341709Y-66110597D01*
X142345108Y-66086276D01*
X142353873Y-66063772D01*
X142369594Y-66040074D01*
X142393859Y-66012173D01*
X142428257Y-65977058D01*
X142441096Y-65964112D01*
X142468911Y-65933533D01*
X142485456Y-65909617D01*
X142491538Y-65890324D01*
X142487962Y-65873612D01*
X142475536Y-65857440D01*
X142470227Y-65852878D01*
X142445092Y-65843186D01*
X142414054Y-65844866D01*
X142379811Y-65857057D01*
X142345058Y-65878897D01*
X142312492Y-65909525D01*
X142281483Y-65944752D01*
X142258088Y-65929940D01*
X142234693Y-65915127D01*
X142253725Y-65887119D01*
X142265531Y-65872562D01*
X142295462Y-65845676D01*
X142332521Y-65820273D01*
X142371603Y-65799667D01*
X142407605Y-65787175D01*
X142433376Y-65783281D01*
X142477252Y-65786206D01*
G37*
G36*
X141325282Y-66141232D02*
G01*
X141319327Y-66162595D01*
X141308869Y-66184078D01*
X141297391Y-66201189D01*
X141265149Y-66233540D01*
X141223839Y-66261235D01*
X141177770Y-66281085D01*
X141145553Y-66288312D01*
X141096341Y-66287386D01*
X141049940Y-66271689D01*
X141007089Y-66241647D01*
X140968526Y-66197690D01*
X140934988Y-66140244D01*
X140917274Y-66093282D01*
X140908146Y-66039959D01*
X140908821Y-66027655D01*
X140977651Y-66027655D01*
X140977914Y-66029453D01*
X140987038Y-66063409D01*
X141003484Y-66103068D01*
X141024535Y-66143219D01*
X141047478Y-66178648D01*
X141069595Y-66204144D01*
X141082776Y-66214545D01*
X141117234Y-66229312D01*
X141155547Y-66229226D01*
X141198224Y-66214330D01*
X141205188Y-66210704D01*
X141238919Y-66185287D01*
X141258618Y-66153457D01*
X141264618Y-66114714D01*
X141264254Y-66107019D01*
X141255863Y-66063701D01*
X141238211Y-66016730D01*
X141213593Y-65971308D01*
X141184301Y-65932634D01*
X141175207Y-65922813D01*
X141157879Y-65905689D01*
X141143776Y-65896622D01*
X141127861Y-65893057D01*
X141105098Y-65892437D01*
X141098426Y-65892573D01*
X141055064Y-65900812D01*
X141019455Y-65920404D01*
X140993449Y-65949384D01*
X140978898Y-65985789D01*
X140977651Y-66027655D01*
X140908821Y-66027655D01*
X140910896Y-65989834D01*
X140925679Y-65946140D01*
X140927024Y-65943643D01*
X140957921Y-65901575D01*
X140997889Y-65868692D01*
X141043993Y-65846060D01*
X141093298Y-65834743D01*
X141142869Y-65835806D01*
X141189772Y-65850314D01*
X141210537Y-65862711D01*
X141246156Y-65893838D01*
X141279331Y-65934458D01*
X141306782Y-65980909D01*
X141314916Y-65998707D01*
X141323159Y-66023594D01*
X141327165Y-66050785D01*
X141328270Y-66086864D01*
X141327866Y-66114323D01*
X141327828Y-66114714D01*
X141325282Y-66141232D01*
G37*
G36*
X142476994Y-64772023D02*
G01*
X142497395Y-64810784D01*
X142513567Y-64841185D01*
X142524073Y-64860489D01*
X142534398Y-64879753D01*
X142542412Y-64896729D01*
X142544420Y-64904181D01*
X142544103Y-64904427D01*
X142534861Y-64909933D01*
X142518310Y-64918962D01*
X142516522Y-64919904D01*
X142499559Y-64928113D01*
X142489677Y-64931654D01*
X142485703Y-64927637D01*
X142475565Y-64912398D01*
X142461310Y-64888425D01*
X142444667Y-64858526D01*
X142404960Y-64785087D01*
X142348867Y-64812379D01*
X142320325Y-64825571D01*
X142296983Y-64833784D01*
X142276929Y-64836663D01*
X142254849Y-64835516D01*
X142244735Y-64834081D01*
X142202091Y-64819458D01*
X142168569Y-64793012D01*
X142145701Y-64756337D01*
X142135024Y-64711029D01*
X142134163Y-64694437D01*
X142134902Y-64685313D01*
X142195731Y-64685313D01*
X142196190Y-64689232D01*
X142202297Y-64708140D01*
X142213045Y-64731588D01*
X142225293Y-64753214D01*
X142235899Y-64766656D01*
X142256884Y-64777545D01*
X142286986Y-64780535D01*
X142316105Y-64772130D01*
X142337854Y-64760475D01*
X142361230Y-64748117D01*
X142383023Y-64736718D01*
X142346475Y-64669078D01*
X142336280Y-64650280D01*
X142322112Y-64624416D01*
X142311867Y-64606048D01*
X142307263Y-64598277D01*
X142305159Y-64597972D01*
X142292542Y-64601435D01*
X142273028Y-64609353D01*
X142261194Y-64615634D01*
X142238054Y-64632173D01*
X142216918Y-64651767D01*
X142201555Y-64670715D01*
X142195731Y-64685313D01*
X142134902Y-64685313D01*
X142136361Y-64667295D01*
X142144901Y-64643785D01*
X142161401Y-64622023D01*
X142187483Y-64600128D01*
X142224764Y-64576214D01*
X142274864Y-64548400D01*
X142342502Y-64512367D01*
X142421724Y-64665782D01*
X142429267Y-64680374D01*
X142453805Y-64727640D01*
X142458548Y-64736718D01*
X142476994Y-64772023D01*
G37*
G36*
X143181063Y-66057451D02*
G01*
X143190337Y-66074523D01*
X143204556Y-66101378D01*
X143222616Y-66135875D01*
X143243413Y-66175869D01*
X143265844Y-66219217D01*
X143288804Y-66263777D01*
X143311190Y-66307406D01*
X143331899Y-66347961D01*
X143349827Y-66383297D01*
X143363870Y-66411274D01*
X143372925Y-66429746D01*
X143375887Y-66436573D01*
X143374376Y-66437473D01*
X143363057Y-66444026D01*
X143344882Y-66454458D01*
X143315973Y-66471005D01*
X143244448Y-66323633D01*
X143237098Y-66308521D01*
X143216491Y-66266488D01*
X143198569Y-66230432D01*
X143184347Y-66202363D01*
X143174840Y-66184291D01*
X143171063Y-66178225D01*
X143170045Y-66186138D01*
X143168316Y-66207140D01*
X143166056Y-66238768D01*
X143163440Y-66278563D01*
X143160643Y-66324066D01*
X143158839Y-66354335D01*
X143155175Y-66414242D01*
X143152000Y-66461145D01*
X143149012Y-66496809D01*
X143145913Y-66522997D01*
X143142403Y-66541472D01*
X143138182Y-66553999D01*
X143132950Y-66562342D01*
X143126407Y-66568263D01*
X143118255Y-66573526D01*
X143114753Y-66575630D01*
X143098107Y-66584743D01*
X143088652Y-66588458D01*
X143087160Y-66587793D01*
X143081694Y-66581385D01*
X143072693Y-66567323D01*
X143059583Y-66544569D01*
X143041789Y-66512080D01*
X143018734Y-66468817D01*
X142989845Y-66413737D01*
X142954545Y-66345801D01*
X142879197Y-66200330D01*
X142909337Y-66184953D01*
X142939477Y-66169577D01*
X143012758Y-66318019D01*
X143086038Y-66466462D01*
X143090987Y-66355716D01*
X143091011Y-66355181D01*
X143093370Y-66305829D01*
X143096130Y-66253262D01*
X143098951Y-66203732D01*
X143101490Y-66163492D01*
X143107043Y-66082015D01*
X143141088Y-66065474D01*
X143152866Y-66060041D01*
X143170020Y-66053443D01*
X143178006Y-66052345D01*
X143181063Y-66057451D01*
G37*
G36*
X139012670Y-66259634D02*
G01*
X139021658Y-66276307D01*
X139035690Y-66302964D01*
X139053656Y-66337442D01*
X139074446Y-66377579D01*
X139096949Y-66421212D01*
X139120055Y-66466179D01*
X139142653Y-66510318D01*
X139163632Y-66551467D01*
X139181883Y-66587462D01*
X139196294Y-66616142D01*
X139205755Y-66635344D01*
X139209155Y-66642906D01*
X139206804Y-66645728D01*
X139194779Y-66653646D01*
X139177528Y-66662988D01*
X139160709Y-66670777D01*
X139149984Y-66674035D01*
X139149056Y-66673096D01*
X139142348Y-66661759D01*
X139130337Y-66639183D01*
X139114069Y-66607398D01*
X139094588Y-66568435D01*
X139072939Y-66524326D01*
X139000098Y-66374617D01*
X138999714Y-66417391D01*
X138999541Y-66426895D01*
X138998502Y-66456151D01*
X138996717Y-66494139D01*
X138994374Y-66537825D01*
X138991660Y-66584177D01*
X138988765Y-66630159D01*
X138985875Y-66672740D01*
X138983179Y-66708885D01*
X138980865Y-66735562D01*
X138979120Y-66749736D01*
X138978663Y-66751498D01*
X138967539Y-66767355D01*
X138946729Y-66781925D01*
X138917849Y-66796741D01*
X138905519Y-66776218D01*
X138900507Y-66767481D01*
X138888178Y-66744826D01*
X138871573Y-66713499D01*
X138851841Y-66675746D01*
X138830130Y-66633812D01*
X138807588Y-66589942D01*
X138785364Y-66546382D01*
X138764606Y-66505378D01*
X138746463Y-66469176D01*
X138732081Y-66440020D01*
X138722610Y-66420157D01*
X138719198Y-66411832D01*
X138719714Y-66410214D01*
X138729125Y-66401632D01*
X138746633Y-66391635D01*
X138774068Y-66378552D01*
X138845791Y-66523496D01*
X138917514Y-66668441D01*
X138929179Y-66479944D01*
X138940845Y-66291448D01*
X138974216Y-66271782D01*
X138986246Y-66264977D01*
X139002554Y-66256930D01*
X139009957Y-66255038D01*
X139012670Y-66259634D01*
G37*
G36*
X139122944Y-65990240D02*
G01*
X139103159Y-66033242D01*
X139070484Y-66068889D01*
X139023827Y-66098942D01*
X139014594Y-66103483D01*
X138987870Y-66114852D01*
X138965499Y-66122175D01*
X138944436Y-66126644D01*
X138924613Y-66128162D01*
X138903909Y-66125220D01*
X138875432Y-66117458D01*
X138873042Y-66116725D01*
X138831065Y-66095969D01*
X138793425Y-66063320D01*
X138761375Y-66021671D01*
X138736170Y-65973915D01*
X138719066Y-65922945D01*
X138711318Y-65871651D01*
X138713041Y-65842315D01*
X138778536Y-65842315D01*
X138784677Y-65885639D01*
X138803007Y-65935496D01*
X138827242Y-65982262D01*
X138857224Y-66025066D01*
X138888191Y-66053112D01*
X138917962Y-66064950D01*
X138953917Y-66065620D01*
X138990750Y-66055139D01*
X139024739Y-66034598D01*
X139052161Y-66005086D01*
X139057611Y-65995983D01*
X139066572Y-65966586D01*
X139065178Y-65931389D01*
X139053207Y-65888667D01*
X139030436Y-65836695D01*
X139020456Y-65817455D01*
X138991736Y-65772782D01*
X138962500Y-65743171D01*
X138932418Y-65728260D01*
X138930828Y-65727879D01*
X138895758Y-65727149D01*
X138858425Y-65738503D01*
X138823036Y-65760072D01*
X138793795Y-65789982D01*
X138784655Y-65806647D01*
X138778536Y-65842315D01*
X138713041Y-65842315D01*
X138714179Y-65822929D01*
X138728904Y-65779669D01*
X138738050Y-65765267D01*
X138760090Y-65738925D01*
X138784667Y-65716516D01*
X138794145Y-65709648D01*
X138844902Y-65682787D01*
X138896638Y-65670694D01*
X138947543Y-65673075D01*
X138995806Y-65689635D01*
X139039617Y-65720080D01*
X139077166Y-65764115D01*
X139097026Y-65796051D01*
X139117260Y-65838617D01*
X139128089Y-65880122D01*
X139131213Y-65925647D01*
X139130932Y-65938118D01*
X139126569Y-65966586D01*
X139122944Y-65990240D01*
G37*
G36*
X140760786Y-66702113D02*
G01*
X140791535Y-66724845D01*
X140805412Y-66740637D01*
X140822474Y-66773323D01*
X140825100Y-66807896D01*
X140813155Y-66844941D01*
X140786506Y-66885040D01*
X140745020Y-66928777D01*
X140729496Y-66943762D01*
X140706085Y-66968307D01*
X140688431Y-66989289D01*
X140679488Y-67003346D01*
X140678388Y-67006465D01*
X140676453Y-67034209D01*
X140688723Y-67057878D01*
X140714039Y-67075064D01*
X140728215Y-67079781D01*
X140759979Y-67081549D01*
X140793921Y-67071054D01*
X140831535Y-67047699D01*
X140874314Y-67010885D01*
X140918400Y-66968834D01*
X140940645Y-66988143D01*
X140962890Y-67007451D01*
X140924005Y-67047218D01*
X140905319Y-67064375D01*
X140868930Y-67091670D01*
X140831579Y-67113823D01*
X140826353Y-67116382D01*
X140774961Y-67135013D01*
X140726901Y-67141041D01*
X140683850Y-67134940D01*
X140647486Y-67117187D01*
X140619487Y-67088257D01*
X140601530Y-67048625D01*
X140600335Y-67044049D01*
X140596861Y-67016589D01*
X140601447Y-66990415D01*
X140615297Y-66963022D01*
X140639614Y-66931907D01*
X140675603Y-66894569D01*
X140688297Y-66882006D01*
X140718008Y-66850429D01*
X140736798Y-66825612D01*
X140745707Y-66805502D01*
X140745772Y-66788047D01*
X140738033Y-66771192D01*
X140727304Y-66759912D01*
X140703422Y-66751013D01*
X140673510Y-66752888D01*
X140640047Y-66764860D01*
X140605510Y-66786253D01*
X140572378Y-66816392D01*
X140540312Y-66851180D01*
X140515917Y-66836345D01*
X140491523Y-66821510D01*
X140507597Y-66798937D01*
X140514163Y-66790280D01*
X140547849Y-66756113D01*
X140588822Y-66726356D01*
X140632233Y-66704124D01*
X140673233Y-66692533D01*
X140679894Y-66691696D01*
X140724542Y-66691328D01*
X140760786Y-66702113D01*
G37*
G36*
X142958461Y-66657965D02*
G01*
X142878373Y-66698234D01*
X142849583Y-66712476D01*
X142818295Y-66727409D01*
X142793490Y-66738648D01*
X142778843Y-66744486D01*
X142735125Y-66750740D01*
X142689749Y-66743701D01*
X142645993Y-66724683D01*
X142605789Y-66695423D01*
X142571066Y-66657660D01*
X142543756Y-66613129D01*
X142525788Y-66563569D01*
X142519092Y-66510716D01*
X142520815Y-66481128D01*
X142590086Y-66481128D01*
X142593086Y-66525443D01*
X142608912Y-66572933D01*
X142610933Y-66577258D01*
X142637631Y-66623854D01*
X142667309Y-66658335D01*
X142698515Y-66678981D01*
X142712789Y-66684255D01*
X142737531Y-66688490D01*
X142764156Y-66684998D01*
X142798285Y-66673467D01*
X142809503Y-66669103D01*
X142831668Y-66660238D01*
X142847099Y-66651969D01*
X142855797Y-66642207D01*
X142857762Y-66628864D01*
X142852993Y-66609852D01*
X142841490Y-66583084D01*
X142823255Y-66546471D01*
X142798285Y-66497924D01*
X142795381Y-66492278D01*
X142773555Y-66450635D01*
X142753753Y-66414167D01*
X142737208Y-66385055D01*
X142725159Y-66365483D01*
X142718842Y-66357634D01*
X142707053Y-66358830D01*
X142686889Y-66367909D01*
X142662691Y-66382547D01*
X142638301Y-66400179D01*
X142617559Y-66418238D01*
X142604307Y-66434158D01*
X142599991Y-66442380D01*
X142590086Y-66481128D01*
X142520815Y-66481128D01*
X142521320Y-66472456D01*
X142530977Y-66434857D01*
X142549690Y-66401809D01*
X142578993Y-66371343D01*
X142620423Y-66341493D01*
X142675513Y-66310293D01*
X142754183Y-66269300D01*
X142777139Y-66310293D01*
X142779643Y-66314816D01*
X142791979Y-66337707D01*
X142809547Y-66370867D01*
X142830911Y-66411561D01*
X142854633Y-66457059D01*
X142879278Y-66504625D01*
X142943434Y-66628864D01*
X142958461Y-66657965D01*
G37*
G36*
X139855714Y-65165995D02*
G01*
X139863204Y-65175533D01*
X139871247Y-65191176D01*
X139876866Y-65206518D01*
X139877088Y-65215157D01*
X139876995Y-65215235D01*
X139868477Y-65220104D01*
X139850033Y-65229775D01*
X139825490Y-65242239D01*
X139823907Y-65243035D01*
X139800156Y-65255552D01*
X139783295Y-65265490D01*
X139776883Y-65270760D01*
X139778360Y-65274354D01*
X139785976Y-65290008D01*
X139799188Y-65316208D01*
X139816999Y-65350996D01*
X139838412Y-65392419D01*
X139862431Y-65438522D01*
X139878156Y-65468693D01*
X139900628Y-65512175D01*
X139919845Y-65549807D01*
X139934809Y-65579612D01*
X139944520Y-65599611D01*
X139947979Y-65607828D01*
X139947722Y-65608767D01*
X139939309Y-65616432D01*
X139922704Y-65626107D01*
X139919250Y-65627812D01*
X139902420Y-65635668D01*
X139893540Y-65639053D01*
X139891076Y-65635819D01*
X139882271Y-65620692D01*
X139868159Y-65594903D01*
X139849751Y-65560341D01*
X139828062Y-65518891D01*
X139804103Y-65472443D01*
X139787149Y-65439581D01*
X139764452Y-65396347D01*
X139744599Y-65359410D01*
X139728629Y-65330670D01*
X139717583Y-65312023D01*
X139712500Y-65305366D01*
X139712426Y-65305366D01*
X139702654Y-65308727D01*
X139683286Y-65317384D01*
X139658436Y-65329501D01*
X139610427Y-65353736D01*
X139592154Y-65332492D01*
X139589452Y-65329285D01*
X139579306Y-65315518D01*
X139576606Y-65308523D01*
X139580341Y-65306076D01*
X139595884Y-65297357D01*
X139620948Y-65283884D01*
X139652946Y-65266994D01*
X139689294Y-65248023D01*
X139727406Y-65228305D01*
X139764695Y-65209178D01*
X139798577Y-65191975D01*
X139826464Y-65178034D01*
X139845771Y-65168690D01*
X139853913Y-65165278D01*
X139855714Y-65165995D01*
G37*
G36*
X142414407Y-66938340D02*
G01*
X142319475Y-66985061D01*
X142276188Y-67005670D01*
X142239814Y-67020657D01*
X142210478Y-67028945D01*
X142184885Y-67031142D01*
X142159740Y-67027856D01*
X142131747Y-67019694D01*
X142116090Y-67013602D01*
X142072790Y-66986933D01*
X142035551Y-66947326D01*
X142003294Y-66893721D01*
X141990407Y-66866386D01*
X141980223Y-66839178D01*
X141975373Y-66814732D01*
X141974265Y-66787206D01*
X141976101Y-66762461D01*
X142045810Y-66762461D01*
X142049183Y-66806434D01*
X142066553Y-66856797D01*
X142069118Y-66862314D01*
X142094477Y-66905765D01*
X142123548Y-66938840D01*
X142154118Y-66958957D01*
X142180122Y-66967115D01*
X142206671Y-66968097D01*
X142236932Y-66960872D01*
X142275310Y-66944929D01*
X142327839Y-66920437D01*
X142257032Y-66783626D01*
X142253874Y-66777530D01*
X142232066Y-66735718D01*
X142212603Y-66698880D01*
X142196674Y-66669232D01*
X142185467Y-66648991D01*
X142180172Y-66640372D01*
X142175733Y-66638770D01*
X142160203Y-66642232D01*
X142138365Y-66652291D01*
X142113956Y-66666845D01*
X142090713Y-66683790D01*
X142072371Y-66701026D01*
X142056449Y-66724455D01*
X142045810Y-66762461D01*
X141976101Y-66762461D01*
X141976641Y-66755182D01*
X141987129Y-66717195D01*
X142007266Y-66683012D01*
X142038457Y-66650929D01*
X142082103Y-66619242D01*
X142139605Y-66586246D01*
X142140652Y-66585695D01*
X142173983Y-66568809D01*
X142196326Y-66559292D01*
X142209877Y-66556380D01*
X142216832Y-66559304D01*
X142222014Y-66568055D01*
X142233365Y-66588889D01*
X142249800Y-66619793D01*
X142270302Y-66658844D01*
X142293856Y-66704119D01*
X142319447Y-66753692D01*
X142405200Y-66920437D01*
X142414407Y-66938340D01*
G37*
G36*
X141522049Y-64323583D02*
G01*
X141522141Y-64324196D01*
X141525247Y-64346661D01*
X141529430Y-64379552D01*
X141534423Y-64420519D01*
X141539961Y-64467209D01*
X141545778Y-64517271D01*
X141551607Y-64568351D01*
X141557182Y-64618099D01*
X141562237Y-64664163D01*
X141566506Y-64704191D01*
X141569724Y-64735830D01*
X141571623Y-64756730D01*
X141571939Y-64764537D01*
X141571637Y-64764764D01*
X141562604Y-64770052D01*
X141546173Y-64778974D01*
X141544382Y-64779917D01*
X141527427Y-64788125D01*
X141517556Y-64791666D01*
X141516509Y-64791160D01*
X141506108Y-64783228D01*
X141486032Y-64766655D01*
X141457766Y-64742708D01*
X141422795Y-64712652D01*
X141382606Y-64677752D01*
X141338683Y-64639275D01*
X141324135Y-64626478D01*
X141281400Y-64588888D01*
X141243025Y-64555139D01*
X141210474Y-64526516D01*
X141185209Y-64504306D01*
X141168696Y-64489797D01*
X141162397Y-64484276D01*
X141163285Y-64482628D01*
X141173620Y-64475577D01*
X141192039Y-64465480D01*
X141224380Y-64448981D01*
X141360746Y-64566619D01*
X141364263Y-64569652D01*
X141407195Y-64606472D01*
X141439846Y-64633920D01*
X141463460Y-64652904D01*
X141479286Y-64664327D01*
X141488570Y-64669096D01*
X141492559Y-64668115D01*
X141492499Y-64662291D01*
X141491016Y-64653711D01*
X141487642Y-64629711D01*
X141483324Y-64595718D01*
X141478419Y-64554912D01*
X141473287Y-64510470D01*
X141468284Y-64465572D01*
X141463769Y-64423394D01*
X141460101Y-64387117D01*
X141457637Y-64359918D01*
X141456736Y-64344976D01*
X141457648Y-64337021D01*
X141466431Y-64323334D01*
X141487191Y-64310131D01*
X141517645Y-64294594D01*
X141522049Y-64323583D01*
G37*
G36*
X142575491Y-63944291D02*
G01*
X142594139Y-63981237D01*
X142620736Y-64035985D01*
X142639545Y-64077958D01*
X142650718Y-64107506D01*
X142654409Y-64124977D01*
X142648308Y-64160432D01*
X142628585Y-64198326D01*
X142597207Y-64232718D01*
X142556216Y-64261421D01*
X142507654Y-64282247D01*
X142502562Y-64283727D01*
X142470175Y-64289348D01*
X142440539Y-64289232D01*
X142432751Y-64288096D01*
X142414232Y-64284326D01*
X142398019Y-64278315D01*
X142382959Y-64268602D01*
X142367898Y-64253727D01*
X142351681Y-64232229D01*
X142333155Y-64202646D01*
X142311167Y-64163518D01*
X142284561Y-64113385D01*
X142252183Y-64050784D01*
X142197156Y-63943776D01*
X142227080Y-63928510D01*
X142257005Y-63913243D01*
X142291325Y-63977365D01*
X142302382Y-63998125D01*
X142323731Y-64038543D01*
X142346708Y-64082355D01*
X142367943Y-64123147D01*
X142379299Y-64144740D01*
X142396707Y-64175528D01*
X142410864Y-64196241D01*
X142423744Y-64209581D01*
X142437318Y-64218254D01*
X142450824Y-64224212D01*
X142470873Y-64227689D01*
X142495066Y-64223233D01*
X142509745Y-64217729D01*
X142536749Y-64201163D01*
X142560713Y-64179370D01*
X142577860Y-64156078D01*
X142584415Y-64135014D01*
X142584312Y-64133677D01*
X142579735Y-64118397D01*
X142569170Y-64092243D01*
X142553710Y-64057675D01*
X142534448Y-64017154D01*
X142512477Y-63973140D01*
X142507602Y-63963596D01*
X142486133Y-63921507D01*
X142467346Y-63884583D01*
X142452342Y-63854995D01*
X142442221Y-63834913D01*
X142438086Y-63826507D01*
X142438640Y-63824222D01*
X142448230Y-63815691D01*
X142466103Y-63805131D01*
X142496574Y-63789586D01*
X142575491Y-63944291D01*
G37*
G36*
X142899355Y-65543739D02*
G01*
X142910156Y-65560667D01*
X142925359Y-65587040D01*
X142943706Y-65620432D01*
X142963940Y-65658419D01*
X142984802Y-65698577D01*
X143005034Y-65738480D01*
X143023380Y-65775706D01*
X143038581Y-65807828D01*
X143049379Y-65832423D01*
X143054517Y-65847066D01*
X143054915Y-65849023D01*
X143055167Y-65889084D01*
X143041608Y-65928397D01*
X143015823Y-65964705D01*
X142979392Y-65995747D01*
X142933898Y-66019266D01*
X142913729Y-66026185D01*
X142864167Y-66035001D01*
X142820979Y-66029860D01*
X142784465Y-66010832D01*
X142754924Y-65977985D01*
X142746441Y-65963927D01*
X142731396Y-65937282D01*
X142712218Y-65902220D01*
X142690492Y-65861644D01*
X142667805Y-65818457D01*
X142601008Y-65690038D01*
X142631426Y-65673376D01*
X142661845Y-65656714D01*
X142736165Y-65799497D01*
X142765090Y-65854100D01*
X142789224Y-65897025D01*
X142809204Y-65928776D01*
X142826191Y-65950857D01*
X142841340Y-65964769D01*
X142855811Y-65972015D01*
X142870761Y-65974096D01*
X142872646Y-65974073D01*
X142904723Y-65967420D01*
X142936015Y-65951066D01*
X142962884Y-65928080D01*
X142981690Y-65901533D01*
X142988795Y-65874494D01*
X142988606Y-65872830D01*
X142983623Y-65857865D01*
X142972682Y-65832071D01*
X142956865Y-65797813D01*
X142937257Y-65757455D01*
X142914942Y-65713363D01*
X142908633Y-65701121D01*
X142887124Y-65659159D01*
X142868555Y-65622586D01*
X142853984Y-65593507D01*
X142844467Y-65574024D01*
X142841059Y-65566242D01*
X142841516Y-65565142D01*
X142850462Y-65558195D01*
X142866284Y-65549375D01*
X142882965Y-65541797D01*
X142894486Y-65538579D01*
X142899355Y-65543739D01*
G37*
G36*
X138553757Y-65854855D02*
G01*
X138563626Y-65872200D01*
X138578158Y-65899331D01*
X138596278Y-65934102D01*
X138616915Y-65974368D01*
X138638995Y-66017982D01*
X138661446Y-66062799D01*
X138683196Y-66106672D01*
X138703170Y-66147455D01*
X138720297Y-66183003D01*
X138733504Y-66211170D01*
X138741717Y-66229810D01*
X138743864Y-66236776D01*
X138736548Y-66240549D01*
X138722245Y-66250328D01*
X138711030Y-66256825D01*
X138696958Y-66259769D01*
X138694141Y-66257536D01*
X138684335Y-66244540D01*
X138670169Y-66222763D01*
X138653534Y-66195429D01*
X138636325Y-66165761D01*
X138620434Y-66136982D01*
X138607754Y-66112316D01*
X138600179Y-66094985D01*
X138597825Y-66094156D01*
X138584555Y-66097605D01*
X138562463Y-66106714D01*
X138534715Y-66120261D01*
X138520846Y-66127385D01*
X138494230Y-66140504D01*
X138474295Y-66149580D01*
X138464559Y-66152970D01*
X138456697Y-66146909D01*
X138447673Y-66131899D01*
X138444412Y-66123960D01*
X138443033Y-66113852D01*
X138447797Y-66104608D01*
X138460669Y-66094320D01*
X138483615Y-66081077D01*
X138518598Y-66062971D01*
X138570754Y-66036460D01*
X138541929Y-65982386D01*
X138513105Y-65928312D01*
X138431653Y-65971338D01*
X138350202Y-66014365D01*
X138332724Y-65992446D01*
X138330156Y-65989089D01*
X138321468Y-65974214D01*
X138320851Y-65965664D01*
X138325503Y-65962511D01*
X138342096Y-65953052D01*
X138367328Y-65939544D01*
X138398397Y-65923397D01*
X138432503Y-65906020D01*
X138466844Y-65888825D01*
X138498618Y-65873221D01*
X138525026Y-65860617D01*
X138543264Y-65852425D01*
X138550533Y-65850053D01*
X138553757Y-65854855D01*
G37*
G36*
X141951211Y-66174659D02*
G01*
X141959433Y-66190381D01*
X141984552Y-66238307D01*
X142010274Y-66287246D01*
X142034000Y-66332261D01*
X142053136Y-66368418D01*
X142095274Y-66447767D01*
X142063852Y-66463797D01*
X142032429Y-66479828D01*
X141956612Y-66330009D01*
X141880795Y-66180189D01*
X141875975Y-66304623D01*
X141875306Y-66321252D01*
X141873019Y-66371732D01*
X141870427Y-66421664D01*
X141867802Y-66466049D01*
X141865412Y-66499888D01*
X141859669Y-66570719D01*
X141831243Y-66586975D01*
X141823975Y-66590867D01*
X141806956Y-66597673D01*
X141797774Y-66597803D01*
X141794457Y-66592636D01*
X141784809Y-66575435D01*
X141770250Y-66548459D01*
X141751885Y-66513847D01*
X141730823Y-66473738D01*
X141708169Y-66430271D01*
X141685030Y-66385586D01*
X141662513Y-66341820D01*
X141641725Y-66301114D01*
X141623772Y-66265607D01*
X141609762Y-66237437D01*
X141600800Y-66218743D01*
X141597994Y-66211665D01*
X141601545Y-66209179D01*
X141615223Y-66201716D01*
X141632484Y-66193490D01*
X141647547Y-66187176D01*
X141654635Y-66185449D01*
X141657518Y-66190248D01*
X141666602Y-66207170D01*
X141680245Y-66233421D01*
X141697065Y-66266263D01*
X141715681Y-66302962D01*
X141734712Y-66340778D01*
X141752778Y-66376977D01*
X141768497Y-66408822D01*
X141780489Y-66433574D01*
X141787372Y-66448499D01*
X141802251Y-66483496D01*
X141807236Y-66362951D01*
X141807739Y-66351058D01*
X141810090Y-66300620D01*
X141812757Y-66249709D01*
X141815448Y-66203663D01*
X141817873Y-66167822D01*
X141823525Y-66093237D01*
X141857475Y-66076743D01*
X141891425Y-66060249D01*
X141951211Y-66174659D01*
G37*
G36*
X140615942Y-66484555D02*
G01*
X140606440Y-66533986D01*
X140585455Y-66574429D01*
X140551739Y-66607826D01*
X140504042Y-66636120D01*
X140489763Y-66642452D01*
X140435734Y-66657210D01*
X140384050Y-66657048D01*
X140336060Y-66642322D01*
X140293112Y-66613390D01*
X140256553Y-66570608D01*
X140241805Y-66547042D01*
X140212409Y-66485633D01*
X140198195Y-66427366D01*
X140198929Y-66384891D01*
X140266463Y-66384891D01*
X140275152Y-66430386D01*
X140296753Y-66483908D01*
X140307940Y-66505518D01*
X140333437Y-66545725D01*
X140358993Y-66574877D01*
X140378449Y-66590776D01*
X140398840Y-66601188D01*
X140420757Y-66604041D01*
X140440491Y-66601983D01*
X140477828Y-66589384D01*
X140512363Y-66568211D01*
X140537775Y-66541824D01*
X140548960Y-66517849D01*
X140552795Y-66478152D01*
X140543307Y-66430543D01*
X140520491Y-66374973D01*
X140514233Y-66362772D01*
X140483616Y-66314825D01*
X140450892Y-66282244D01*
X140415972Y-66264979D01*
X140378765Y-66262983D01*
X140339182Y-66276205D01*
X140319747Y-66287350D01*
X140288572Y-66314293D01*
X140270873Y-66346500D01*
X140266463Y-66384891D01*
X140198929Y-66384891D01*
X140199149Y-66372140D01*
X140215254Y-66319859D01*
X140216250Y-66317747D01*
X140239962Y-66279769D01*
X140272476Y-66249277D01*
X140317147Y-66223082D01*
X140325464Y-66219416D01*
X140368438Y-66208670D01*
X140415430Y-66207536D01*
X140460803Y-66215710D01*
X140498919Y-66232889D01*
X140522614Y-66251186D01*
X140560941Y-66294112D01*
X140590698Y-66345818D01*
X140609961Y-66402588D01*
X140616810Y-66460706D01*
X140616175Y-66478152D01*
X140615942Y-66484555D01*
G37*
G36*
X140552063Y-67651914D02*
G01*
X140555293Y-67658151D01*
X140581066Y-67707923D01*
X140604347Y-67752901D01*
X140624203Y-67791283D01*
X140639702Y-67821264D01*
X140649910Y-67841041D01*
X140653896Y-67848812D01*
X140651697Y-67852067D01*
X140639965Y-67859894D01*
X140622948Y-67868926D01*
X140606021Y-67876382D01*
X140594560Y-67879485D01*
X140593409Y-67878546D01*
X140586111Y-67867209D01*
X140573554Y-67844632D01*
X140556816Y-67812848D01*
X140536975Y-67773885D01*
X140515109Y-67729776D01*
X140441825Y-67580067D01*
X140437023Y-67712278D01*
X140436021Y-67738198D01*
X140433779Y-67788531D01*
X140431288Y-67836634D01*
X140428788Y-67878067D01*
X140426515Y-67908393D01*
X140424306Y-67931606D01*
X140420989Y-67955007D01*
X140416217Y-67969503D01*
X140408494Y-67979014D01*
X140396320Y-67987464D01*
X140383955Y-67994974D01*
X140369860Y-68001868D01*
X140361564Y-68001363D01*
X140354485Y-67994197D01*
X140349357Y-67985516D01*
X140338048Y-67964735D01*
X140321652Y-67933878D01*
X140301185Y-67894869D01*
X140277661Y-67849634D01*
X140252097Y-67800098D01*
X140157294Y-67615720D01*
X140187508Y-67600306D01*
X140217722Y-67584892D01*
X140290888Y-67734090D01*
X140364054Y-67883288D01*
X140370070Y-67735566D01*
X140372047Y-67691021D01*
X140374542Y-67642778D01*
X140377128Y-67599709D01*
X140379596Y-67565270D01*
X140381735Y-67542919D01*
X140385158Y-67519935D01*
X140390778Y-67502754D01*
X140401250Y-67490839D01*
X140419852Y-67478666D01*
X140452319Y-67459339D01*
X140552063Y-67651914D01*
G37*
G36*
X142349353Y-65218281D02*
G01*
X142391407Y-65228168D01*
X142427847Y-65247825D01*
X142463456Y-65279198D01*
X142476445Y-65293655D01*
X142508101Y-65342006D01*
X142527871Y-65395023D01*
X142535251Y-65449792D01*
X142529737Y-65503405D01*
X142510825Y-65552951D01*
X142485177Y-65588787D01*
X142443105Y-65625150D01*
X142391834Y-65651240D01*
X142390071Y-65651871D01*
X142364920Y-65658375D01*
X142337997Y-65661854D01*
X142313542Y-65662222D01*
X142295793Y-65659396D01*
X142288992Y-65653291D01*
X142289460Y-65642743D01*
X142295041Y-65622782D01*
X142309484Y-65611857D01*
X142336022Y-65606770D01*
X142369940Y-65599495D01*
X142409383Y-65579067D01*
X142440331Y-65548564D01*
X142460519Y-65510390D01*
X142467683Y-65466951D01*
X142464495Y-65441436D01*
X142452367Y-65402768D01*
X142433189Y-65362216D01*
X142409105Y-65324973D01*
X142393553Y-65308533D01*
X142363907Y-65287301D01*
X142331298Y-65272157D01*
X142301735Y-65266380D01*
X142300573Y-65266389D01*
X142265651Y-65273300D01*
X142228505Y-65291447D01*
X142194073Y-65318444D01*
X142181063Y-65330753D01*
X142167821Y-65340249D01*
X142156414Y-65341580D01*
X142141577Y-65336563D01*
X142139819Y-65335819D01*
X142124203Y-65327488D01*
X142117789Y-65320814D01*
X142119145Y-65316643D01*
X142129657Y-65302648D01*
X142147715Y-65284209D01*
X142169876Y-65264482D01*
X142192698Y-65246622D01*
X142212738Y-65233784D01*
X142222815Y-65228806D01*
X142245179Y-65221057D01*
X142271821Y-65217166D01*
X142308328Y-65216099D01*
X142349353Y-65218281D01*
G37*
G36*
X144136841Y-64451372D02*
G01*
X144143988Y-64463526D01*
X144155608Y-64485378D01*
X144170252Y-64513985D01*
X144186471Y-64546408D01*
X144202816Y-64579707D01*
X144217836Y-64610940D01*
X144230082Y-64637168D01*
X144238104Y-64655449D01*
X144240453Y-64662843D01*
X144235052Y-64665981D01*
X144216937Y-64675797D01*
X144187287Y-64691606D01*
X144147332Y-64712758D01*
X144098303Y-64738607D01*
X144041430Y-64768502D01*
X143977944Y-64801796D01*
X143909074Y-64837840D01*
X143836052Y-64875985D01*
X143774164Y-64908198D01*
X143704578Y-64944200D01*
X143640145Y-64977303D01*
X143582096Y-65006887D01*
X143531662Y-65032330D01*
X143490073Y-65053014D01*
X143458560Y-65068318D01*
X143438352Y-65077623D01*
X143430680Y-65080306D01*
X143430067Y-65079685D01*
X143423017Y-65068896D01*
X143411305Y-65048171D01*
X143396436Y-65020463D01*
X143379914Y-64988728D01*
X143363242Y-64955919D01*
X143347926Y-64924990D01*
X143335468Y-64898896D01*
X143327374Y-64880590D01*
X143325146Y-64873027D01*
X143328792Y-64870977D01*
X143344691Y-64862486D01*
X143371846Y-64848141D01*
X143408783Y-64828709D01*
X143454031Y-64804961D01*
X143506116Y-64777664D01*
X143563567Y-64747588D01*
X143624910Y-64715503D01*
X143688674Y-64682177D01*
X143753385Y-64648378D01*
X143817571Y-64614877D01*
X143879759Y-64582442D01*
X143938477Y-64551842D01*
X143992253Y-64523846D01*
X144039614Y-64499224D01*
X144079087Y-64478744D01*
X144109200Y-64463175D01*
X144128480Y-64453286D01*
X144135455Y-64449847D01*
X144136841Y-64451372D01*
G37*
G36*
X143062660Y-64822996D02*
G01*
X143063869Y-64825397D01*
X143070600Y-64842543D01*
X143071405Y-64852705D01*
X143063311Y-64858616D01*
X143044994Y-64868865D01*
X143020536Y-64881126D01*
X142996754Y-64893377D01*
X142979755Y-64903828D01*
X142973270Y-64910189D01*
X142974764Y-64914245D01*
X142982422Y-64930570D01*
X142995693Y-64957371D01*
X143013577Y-64992664D01*
X143035075Y-65034463D01*
X143059187Y-65080783D01*
X143075456Y-65111977D01*
X143097665Y-65154971D01*
X143116467Y-65191869D01*
X143130897Y-65220756D01*
X143139993Y-65239717D01*
X143142791Y-65246839D01*
X143142495Y-65247058D01*
X143133536Y-65252270D01*
X143117146Y-65261154D01*
X143115351Y-65262100D01*
X143098409Y-65270306D01*
X143088564Y-65273846D01*
X143085769Y-65270534D01*
X143076500Y-65255322D01*
X143061931Y-65229474D01*
X143043098Y-65194874D01*
X143021036Y-65153405D01*
X142996780Y-65106950D01*
X142979384Y-65073461D01*
X142956777Y-65030347D01*
X142937227Y-64993534D01*
X142921745Y-64964906D01*
X142911342Y-64946347D01*
X142907030Y-64939742D01*
X142906689Y-64939808D01*
X142897286Y-64944142D01*
X142878422Y-64953922D01*
X142853739Y-64967266D01*
X142803666Y-64994790D01*
X142786517Y-64970707D01*
X142783348Y-64966146D01*
X142774373Y-64951428D01*
X142772161Y-64944366D01*
X142772531Y-64944129D01*
X142782186Y-64938873D01*
X142803151Y-64927777D01*
X142833299Y-64911957D01*
X142870502Y-64892530D01*
X142912633Y-64870613D01*
X143050312Y-64799117D01*
X143062660Y-64822996D01*
G37*
G36*
X138602016Y-66539925D02*
G01*
X138648009Y-66563954D01*
X138688275Y-66598320D01*
X138720940Y-66641792D01*
X138744124Y-66693138D01*
X138755951Y-66751128D01*
X138754797Y-66801428D01*
X138739948Y-66852216D01*
X138711332Y-66896674D01*
X138669498Y-66933976D01*
X138614993Y-66963297D01*
X138610787Y-66964942D01*
X138585271Y-66972076D01*
X138558210Y-66976081D01*
X138533761Y-66976787D01*
X138516079Y-66974024D01*
X138509322Y-66967621D01*
X138509791Y-66957072D01*
X138515372Y-66937112D01*
X138529814Y-66926187D01*
X138556353Y-66921099D01*
X138590271Y-66913825D01*
X138629714Y-66893397D01*
X138660661Y-66862893D01*
X138680850Y-66824719D01*
X138688013Y-66781280D01*
X138684826Y-66755766D01*
X138672698Y-66717098D01*
X138653520Y-66676545D01*
X138629436Y-66639303D01*
X138613884Y-66622863D01*
X138584238Y-66601631D01*
X138551628Y-66586487D01*
X138522065Y-66580710D01*
X138520544Y-66580726D01*
X138485910Y-66587666D01*
X138449126Y-66605514D01*
X138415443Y-66631758D01*
X138405142Y-66641546D01*
X138391009Y-66652134D01*
X138378819Y-66654319D01*
X138362948Y-66650060D01*
X138360705Y-66649250D01*
X138344682Y-66641416D01*
X138338120Y-66634389D01*
X138339516Y-66629637D01*
X138350531Y-66614828D01*
X138369682Y-66596036D01*
X138393558Y-66576196D01*
X138418746Y-66558246D01*
X138441833Y-66545122D01*
X138448463Y-66542172D01*
X138500366Y-66527802D01*
X138552176Y-66527464D01*
X138602016Y-66539925D01*
G37*
G36*
X139891805Y-65847012D02*
G01*
X139941487Y-65868650D01*
X139984961Y-65902198D01*
X140000921Y-65919651D01*
X140033081Y-65968159D01*
X140053166Y-66020855D01*
X140060673Y-66075039D01*
X140055103Y-66128011D01*
X140035955Y-66177072D01*
X140032723Y-66182563D01*
X139998826Y-66224136D01*
X139954174Y-66257808D01*
X139902381Y-66280771D01*
X139892600Y-66283554D01*
X139864343Y-66289706D01*
X139841044Y-66292416D01*
X139824249Y-66291501D01*
X139817112Y-66284541D01*
X139815769Y-66266795D01*
X139815972Y-66256939D01*
X139819084Y-66245353D01*
X139829295Y-66239550D01*
X139850790Y-66235832D01*
X139867847Y-66232790D01*
X139913885Y-66216365D01*
X139950836Y-66190424D01*
X139977126Y-66156786D01*
X139991177Y-66117267D01*
X139991414Y-66073687D01*
X139982728Y-66040486D01*
X139964199Y-65999234D01*
X139939502Y-65960746D01*
X139911416Y-65929235D01*
X139882720Y-65908914D01*
X139871706Y-65904338D01*
X139829598Y-65896803D01*
X139786511Y-65902621D01*
X139746091Y-65920900D01*
X139711989Y-65950744D01*
X139705799Y-65958006D01*
X139694330Y-65968683D01*
X139683901Y-65969634D01*
X139668236Y-65962551D01*
X139666067Y-65961401D01*
X139650887Y-65951413D01*
X139644672Y-65943703D01*
X139646012Y-65939307D01*
X139656758Y-65924970D01*
X139675403Y-65906470D01*
X139698493Y-65886841D01*
X139722573Y-65869114D01*
X139744189Y-65856325D01*
X139786664Y-65841911D01*
X139839127Y-65837895D01*
X139891805Y-65847012D01*
G37*
G36*
X139695289Y-66558880D02*
G01*
X139695643Y-66569029D01*
X139695138Y-66591979D01*
X139693864Y-66625321D01*
X139691910Y-66666646D01*
X139689369Y-66713546D01*
X139680643Y-66865546D01*
X139721617Y-66941552D01*
X139735843Y-66968387D01*
X139749075Y-66994408D01*
X139757598Y-67012477D01*
X139760015Y-67019755D01*
X139759708Y-67019990D01*
X139750589Y-67025367D01*
X139734109Y-67034333D01*
X139732666Y-67035091D01*
X139714719Y-67043416D01*
X139703001Y-67047007D01*
X139698033Y-67042574D01*
X139687202Y-67026741D01*
X139672722Y-67002106D01*
X139656338Y-66971491D01*
X139617453Y-66895682D01*
X139493687Y-66820135D01*
X139454870Y-66796314D01*
X139419792Y-66774543D01*
X139391383Y-66756652D01*
X139371854Y-66744034D01*
X139363417Y-66738083D01*
X139363276Y-66734776D01*
X139372413Y-66725818D01*
X139390598Y-66715212D01*
X139424284Y-66698846D01*
X139516980Y-66756010D01*
X139518983Y-66757245D01*
X139556247Y-66779798D01*
X139582416Y-66794538D01*
X139599237Y-66802277D01*
X139608455Y-66803824D01*
X139611817Y-66799989D01*
X139611857Y-66799726D01*
X139613148Y-66786539D01*
X139615032Y-66761477D01*
X139617263Y-66728038D01*
X139619594Y-66689719D01*
X139625230Y-66592635D01*
X139658742Y-66574171D01*
X139670550Y-66567947D01*
X139687328Y-66560339D01*
X139695174Y-66558625D01*
X139695289Y-66558880D01*
G37*
G36*
X141669475Y-64874196D02*
G01*
X141679735Y-64890557D01*
X141694804Y-64916912D01*
X141713571Y-64951112D01*
X141734924Y-64991004D01*
X141757752Y-65034437D01*
X141780942Y-65079260D01*
X141803383Y-65123320D01*
X141823965Y-65164467D01*
X141841574Y-65200548D01*
X141855100Y-65229413D01*
X141863430Y-65248910D01*
X141865454Y-65256887D01*
X141863778Y-65258107D01*
X141850914Y-65265750D01*
X141827870Y-65278658D01*
X141797245Y-65295389D01*
X141761635Y-65314503D01*
X141747450Y-65322027D01*
X141713488Y-65339808D01*
X141685454Y-65354155D01*
X141665937Y-65363754D01*
X141657526Y-65367293D01*
X141656601Y-65367085D01*
X141647895Y-65359514D01*
X141635786Y-65344399D01*
X141619349Y-65321316D01*
X141699417Y-65281290D01*
X141729033Y-65266406D01*
X141755893Y-65252741D01*
X141774576Y-65243043D01*
X141782204Y-65238789D01*
X141781018Y-65234961D01*
X141773837Y-65219094D01*
X141761060Y-65192708D01*
X141743631Y-65157715D01*
X141722497Y-65116028D01*
X141698601Y-65069560D01*
X141681655Y-65036735D01*
X141659296Y-64993119D01*
X141640198Y-64955503D01*
X141625341Y-64925836D01*
X141615707Y-64906066D01*
X141612278Y-64898142D01*
X141612609Y-64897149D01*
X141621162Y-64889974D01*
X141636821Y-64880876D01*
X141653582Y-64873065D01*
X141665436Y-64869748D01*
X141669475Y-64874196D01*
G37*
G36*
X139524859Y-65338505D02*
G01*
X139525374Y-65348563D01*
X139524962Y-65371443D01*
X139523711Y-65404715D01*
X139521711Y-65445952D01*
X139519051Y-65492723D01*
X139509883Y-65643685D01*
X139550948Y-65719860D01*
X139565234Y-65746857D01*
X139578420Y-65772949D01*
X139586862Y-65791108D01*
X139589179Y-65798492D01*
X139588860Y-65798741D01*
X139579583Y-65804282D01*
X139563013Y-65813328D01*
X139561570Y-65814087D01*
X139543623Y-65822412D01*
X139531905Y-65826002D01*
X139526937Y-65821570D01*
X139516106Y-65805737D01*
X139501626Y-65781102D01*
X139485242Y-65750487D01*
X139446356Y-65674678D01*
X139322155Y-65598695D01*
X139282840Y-65574523D01*
X139247843Y-65552778D01*
X139219555Y-65534961D01*
X139200171Y-65522455D01*
X139191885Y-65516643D01*
X139191892Y-65513498D01*
X139201228Y-65504741D01*
X139219502Y-65494208D01*
X139253188Y-65477842D01*
X139345884Y-65534979D01*
X139438579Y-65592116D01*
X139443643Y-65551737D01*
X139445972Y-65528242D01*
X139448329Y-65492234D01*
X139449582Y-65456919D01*
X139450595Y-65427838D01*
X139452502Y-65402015D01*
X139454864Y-65386062D01*
X139455457Y-65384434D01*
X139464804Y-65372624D01*
X139480949Y-65358997D01*
X139499349Y-65346660D01*
X139515460Y-65338720D01*
X139524740Y-65338283D01*
X139524859Y-65338505D01*
G37*
G36*
X140739734Y-66016681D02*
G01*
X140744954Y-66025631D01*
X140756249Y-66046437D01*
X140772656Y-66077277D01*
X140793211Y-66116331D01*
X140816951Y-66161775D01*
X140842910Y-66211789D01*
X140941524Y-66402359D01*
X140839439Y-66455428D01*
X140823234Y-66463807D01*
X140788248Y-66481574D01*
X140758973Y-66496001D01*
X140738090Y-66505780D01*
X140728282Y-66509606D01*
X140727574Y-66509631D01*
X140716744Y-66503673D01*
X140703790Y-66489549D01*
X140688372Y-66468383D01*
X140767303Y-66426330D01*
X140796459Y-66410731D01*
X140822979Y-66396401D01*
X140841441Y-66386263D01*
X140849004Y-66381862D01*
X140847718Y-66377786D01*
X140840390Y-66361633D01*
X140827483Y-66334993D01*
X140809937Y-66299768D01*
X140788694Y-66257863D01*
X140764692Y-66211180D01*
X140746888Y-66176618D01*
X140724803Y-66133256D01*
X140706156Y-66096072D01*
X140691890Y-66066967D01*
X140682945Y-66047843D01*
X140680263Y-66040602D01*
X140682208Y-66039059D01*
X140696461Y-66030792D01*
X140714714Y-66022684D01*
X140731063Y-66017131D01*
X140739604Y-66016527D01*
X140739734Y-66016681D01*
G37*
G36*
X141652098Y-64241014D02*
G01*
X141652711Y-64242002D01*
X141660730Y-64256237D01*
X141673981Y-64280941D01*
X141691332Y-64313909D01*
X141711654Y-64352934D01*
X141733818Y-64395813D01*
X141756692Y-64440339D01*
X141779147Y-64484309D01*
X141800054Y-64525515D01*
X141818281Y-64561755D01*
X141832700Y-64590822D01*
X141842180Y-64610511D01*
X141845591Y-64618617D01*
X141845363Y-64619695D01*
X141836995Y-64628159D01*
X141820315Y-64637978D01*
X141816943Y-64639548D01*
X141799558Y-64646006D01*
X141789651Y-64646981D01*
X141786020Y-64641693D01*
X141776235Y-64624503D01*
X141761585Y-64597514D01*
X141743173Y-64562866D01*
X141722102Y-64522701D01*
X141699474Y-64479160D01*
X141676393Y-64434383D01*
X141653962Y-64390513D01*
X141633282Y-64349689D01*
X141615458Y-64314053D01*
X141601592Y-64285746D01*
X141592787Y-64266909D01*
X141590146Y-64259684D01*
X141590980Y-64259094D01*
X141601477Y-64253173D01*
X141619143Y-64243948D01*
X141633088Y-64237464D01*
X141645091Y-64235287D01*
X141652098Y-64241014D01*
G37*
G36*
X139996061Y-65098514D02*
G01*
X140005195Y-65113439D01*
X140019501Y-65138565D01*
X140037843Y-65171748D01*
X140059082Y-65210843D01*
X140082082Y-65253704D01*
X140105706Y-65298187D01*
X140128816Y-65342147D01*
X140150274Y-65383439D01*
X140168943Y-65419919D01*
X140183687Y-65449440D01*
X140193367Y-65469860D01*
X140196846Y-65479032D01*
X140196838Y-65479168D01*
X140190362Y-65485849D01*
X140175459Y-65495245D01*
X140157848Y-65503456D01*
X140144890Y-65507159D01*
X140142226Y-65504308D01*
X140133024Y-65489871D01*
X140118623Y-65465146D01*
X140100164Y-65432277D01*
X140078792Y-65393407D01*
X140055651Y-65350678D01*
X140031884Y-65306235D01*
X140008636Y-65262221D01*
X139987050Y-65220779D01*
X139968270Y-65184052D01*
X139953439Y-65154184D01*
X139943702Y-65133318D01*
X139940202Y-65123597D01*
X139940546Y-65122593D01*
X139949140Y-65115445D01*
X139964812Y-65106378D01*
X139981555Y-65098591D01*
X139993360Y-65095284D01*
X139996061Y-65098514D01*
G37*
G36*
X139576918Y-67082158D02*
G01*
X139578997Y-67086550D01*
X139585030Y-67102117D01*
X139583075Y-67111085D01*
X139572402Y-67119495D01*
X139567212Y-67123149D01*
X139560219Y-67132303D01*
X139565322Y-67142646D01*
X139578651Y-67153580D01*
X139598268Y-67164099D01*
X139613935Y-67173801D01*
X139621341Y-67189285D01*
X139619630Y-67198889D01*
X139611398Y-67202247D01*
X139592359Y-67200210D01*
X139590742Y-67199930D01*
X139565245Y-67192264D01*
X139543753Y-67180963D01*
X139536405Y-67174360D01*
X139521090Y-67156276D01*
X139505835Y-67134440D01*
X139494077Y-67113964D01*
X139489258Y-67099962D01*
X139492335Y-67096109D01*
X139505961Y-67086703D01*
X139526806Y-67075169D01*
X139564481Y-67056078D01*
X139576918Y-67082158D01*
G37*
G36*
X139647835Y-66155912D02*
G01*
X139649338Y-66158815D01*
X139674947Y-66208619D01*
X139697976Y-66253992D01*
X139717499Y-66293063D01*
X139732591Y-66323964D01*
X139742324Y-66344822D01*
X139745775Y-66353768D01*
X139745772Y-66353901D01*
X139739385Y-66363412D01*
X139724388Y-66374057D01*
X139724202Y-66374158D01*
X139707680Y-66382377D01*
X139697802Y-66385971D01*
X139697654Y-66385976D01*
X139694005Y-66384100D01*
X139688507Y-66377574D01*
X139680423Y-66365081D01*
X139669016Y-66345300D01*
X139653547Y-66316911D01*
X139633280Y-66278596D01*
X139607478Y-66229035D01*
X139575404Y-66166908D01*
X139488462Y-65998085D01*
X139519179Y-65982414D01*
X139549896Y-65966744D01*
X139647835Y-66155912D01*
G37*
G36*
X141053278Y-67152964D02*
G01*
X141060671Y-67158323D01*
X141069627Y-67169531D01*
X141081100Y-67187901D01*
X141096045Y-67214750D01*
X141115417Y-67251393D01*
X141140171Y-67299145D01*
X141171261Y-67359321D01*
X141262974Y-67536580D01*
X141233615Y-67551642D01*
X141227593Y-67554698D01*
X141211377Y-67561677D01*
X141202386Y-67561325D01*
X141195634Y-67553943D01*
X141190447Y-67544865D01*
X141178992Y-67523578D01*
X141162449Y-67492259D01*
X141141853Y-67452879D01*
X141118239Y-67407410D01*
X141092643Y-67357824D01*
X140998274Y-67174466D01*
X141027101Y-67160719D01*
X141030927Y-67158823D01*
X141039360Y-67154530D01*
X141046492Y-67152138D01*
X141053278Y-67152964D01*
G37*
G36*
X142193424Y-66147792D02*
G01*
X142295576Y-66343508D01*
X142270844Y-66356792D01*
X142268048Y-66358269D01*
X142249903Y-66366720D01*
X142238334Y-66370275D01*
X142237886Y-66369989D01*
X142231722Y-66360883D01*
X142219767Y-66340552D01*
X142203166Y-66311128D01*
X142183066Y-66274744D01*
X142160610Y-66233534D01*
X142136945Y-66189629D01*
X142113215Y-66145164D01*
X142090566Y-66102270D01*
X142070142Y-66063082D01*
X142053089Y-66029732D01*
X142040553Y-66004353D01*
X142033677Y-65989078D01*
X142034149Y-65986760D01*
X142043528Y-65978007D01*
X142061247Y-65967392D01*
X142091271Y-65952075D01*
X142193424Y-66147792D01*
G37*
G36*
X141471363Y-65213968D02*
G01*
X141572482Y-65410257D01*
X141547662Y-65423541D01*
X141544478Y-65425225D01*
X141527358Y-65433578D01*
X141517643Y-65437151D01*
X141517489Y-65437156D01*
X141513840Y-65435281D01*
X141508343Y-65428757D01*
X141500259Y-65416266D01*
X141488852Y-65396486D01*
X141473385Y-65368100D01*
X141453119Y-65329786D01*
X141427318Y-65280227D01*
X141395244Y-65218102D01*
X141308303Y-65049279D01*
X141339274Y-65033479D01*
X141370244Y-65017679D01*
X141471363Y-65213968D01*
G37*
%TD*%
M02*
