%TF.GenerationSoftware,KiCad,Pcbnew,6.0.10*%
%TF.CreationDate,2023-05-25T16:41:47+02:00*%
%TF.ProjectId,saw_carrier,7361775f-6361-4727-9269-65722e6b6963,rev?*%
%TF.SameCoordinates,Original*%
%TF.FileFunction,Legend,Top*%
%TF.FilePolarity,Positive*%
%FSLAX46Y46*%
G04 Gerber Fmt 4.6, Leading zero omitted, Abs format (unit mm)*
G04 Created by KiCad (PCBNEW 6.0.10) date 2023-05-25 16:41:47*
%MOMM*%
%LPD*%
G01*
G04 APERTURE LIST*
%ADD10C,0.150000*%
%ADD11C,0.120000*%
G04 APERTURE END LIST*
D10*
%TO.C,U1*%
X126873095Y-113117380D02*
X126873095Y-113926904D01*
X126920714Y-114022142D01*
X126968333Y-114069761D01*
X127063571Y-114117380D01*
X127254047Y-114117380D01*
X127349285Y-114069761D01*
X127396904Y-114022142D01*
X127444523Y-113926904D01*
X127444523Y-113117380D01*
X128444523Y-114117380D02*
X127873095Y-114117380D01*
X128158809Y-114117380D02*
X128158809Y-113117380D01*
X128063571Y-113260238D01*
X127968333Y-113355476D01*
X127873095Y-113403095D01*
%TO.C,C3*%
X103333333Y-101107142D02*
X103285714Y-101154761D01*
X103142857Y-101202380D01*
X103047619Y-101202380D01*
X102904761Y-101154761D01*
X102809523Y-101059523D01*
X102761904Y-100964285D01*
X102714285Y-100773809D01*
X102714285Y-100630952D01*
X102761904Y-100440476D01*
X102809523Y-100345238D01*
X102904761Y-100250000D01*
X103047619Y-100202380D01*
X103142857Y-100202380D01*
X103285714Y-100250000D01*
X103333333Y-100297619D01*
X103666666Y-100202380D02*
X104285714Y-100202380D01*
X103952380Y-100583333D01*
X104095238Y-100583333D01*
X104190476Y-100630952D01*
X104238095Y-100678571D01*
X104285714Y-100773809D01*
X104285714Y-101011904D01*
X104238095Y-101107142D01*
X104190476Y-101154761D01*
X104095238Y-101202380D01*
X103809523Y-101202380D01*
X103714285Y-101154761D01*
X103666666Y-101107142D01*
%TO.C,C11*%
X143582142Y-101107142D02*
X143534523Y-101154761D01*
X143391666Y-101202380D01*
X143296428Y-101202380D01*
X143153571Y-101154761D01*
X143058333Y-101059523D01*
X143010714Y-100964285D01*
X142963095Y-100773809D01*
X142963095Y-100630952D01*
X143010714Y-100440476D01*
X143058333Y-100345238D01*
X143153571Y-100250000D01*
X143296428Y-100202380D01*
X143391666Y-100202380D01*
X143534523Y-100250000D01*
X143582142Y-100297619D01*
X144534523Y-101202380D02*
X143963095Y-101202380D01*
X144248809Y-101202380D02*
X144248809Y-100202380D01*
X144153571Y-100345238D01*
X144058333Y-100440476D01*
X143963095Y-100488095D01*
X145486904Y-101202380D02*
X144915476Y-101202380D01*
X145201190Y-101202380D02*
X145201190Y-100202380D01*
X145105952Y-100345238D01*
X145010714Y-100440476D01*
X144915476Y-100488095D01*
%TO.C,J2*%
X139066666Y-110452380D02*
X139066666Y-111166666D01*
X139019047Y-111309523D01*
X138923809Y-111404761D01*
X138780952Y-111452380D01*
X138685714Y-111452380D01*
X139495238Y-110547619D02*
X139542857Y-110500000D01*
X139638095Y-110452380D01*
X139876190Y-110452380D01*
X139971428Y-110500000D01*
X140019047Y-110547619D01*
X140066666Y-110642857D01*
X140066666Y-110738095D01*
X140019047Y-110880952D01*
X139447619Y-111452380D01*
X140066666Y-111452380D01*
%TO.C,C9*%
X139108333Y-101107142D02*
X139060714Y-101154761D01*
X138917857Y-101202380D01*
X138822619Y-101202380D01*
X138679761Y-101154761D01*
X138584523Y-101059523D01*
X138536904Y-100964285D01*
X138489285Y-100773809D01*
X138489285Y-100630952D01*
X138536904Y-100440476D01*
X138584523Y-100345238D01*
X138679761Y-100250000D01*
X138822619Y-100202380D01*
X138917857Y-100202380D01*
X139060714Y-100250000D01*
X139108333Y-100297619D01*
X139584523Y-101202380D02*
X139775000Y-101202380D01*
X139870238Y-101154761D01*
X139917857Y-101107142D01*
X140013095Y-100964285D01*
X140060714Y-100773809D01*
X140060714Y-100392857D01*
X140013095Y-100297619D01*
X139965476Y-100250000D01*
X139870238Y-100202380D01*
X139679761Y-100202380D01*
X139584523Y-100250000D01*
X139536904Y-100297619D01*
X139489285Y-100392857D01*
X139489285Y-100630952D01*
X139536904Y-100726190D01*
X139584523Y-100773809D01*
X139679761Y-100821428D01*
X139870238Y-100821428D01*
X139965476Y-100773809D01*
X140013095Y-100726190D01*
X140060714Y-100630952D01*
%TO.C,C1*%
X98108333Y-101107142D02*
X98060714Y-101154761D01*
X97917857Y-101202380D01*
X97822619Y-101202380D01*
X97679761Y-101154761D01*
X97584523Y-101059523D01*
X97536904Y-100964285D01*
X97489285Y-100773809D01*
X97489285Y-100630952D01*
X97536904Y-100440476D01*
X97584523Y-100345238D01*
X97679761Y-100250000D01*
X97822619Y-100202380D01*
X97917857Y-100202380D01*
X98060714Y-100250000D01*
X98108333Y-100297619D01*
X99060714Y-101202380D02*
X98489285Y-101202380D01*
X98775000Y-101202380D02*
X98775000Y-100202380D01*
X98679761Y-100345238D01*
X98584523Y-100440476D01*
X98489285Y-100488095D01*
%TO.C,C8*%
X137107142Y-100666666D02*
X137154761Y-100714285D01*
X137202380Y-100857142D01*
X137202380Y-100952380D01*
X137154761Y-101095238D01*
X137059523Y-101190476D01*
X136964285Y-101238095D01*
X136773809Y-101285714D01*
X136630952Y-101285714D01*
X136440476Y-101238095D01*
X136345238Y-101190476D01*
X136250000Y-101095238D01*
X136202380Y-100952380D01*
X136202380Y-100857142D01*
X136250000Y-100714285D01*
X136297619Y-100666666D01*
X136630952Y-100095238D02*
X136583333Y-100190476D01*
X136535714Y-100238095D01*
X136440476Y-100285714D01*
X136392857Y-100285714D01*
X136297619Y-100238095D01*
X136250000Y-100190476D01*
X136202380Y-100095238D01*
X136202380Y-99904761D01*
X136250000Y-99809523D01*
X136297619Y-99761904D01*
X136392857Y-99714285D01*
X136440476Y-99714285D01*
X136535714Y-99761904D01*
X136583333Y-99809523D01*
X136630952Y-99904761D01*
X136630952Y-100095238D01*
X136678571Y-100190476D01*
X136726190Y-100238095D01*
X136821428Y-100285714D01*
X137011904Y-100285714D01*
X137107142Y-100238095D01*
X137154761Y-100190476D01*
X137202380Y-100095238D01*
X137202380Y-99904761D01*
X137154761Y-99809523D01*
X137107142Y-99761904D01*
X137011904Y-99714285D01*
X136821428Y-99714285D01*
X136726190Y-99761904D01*
X136678571Y-99809523D01*
X136630952Y-99904761D01*
%TO.C,C4*%
X106402142Y-105666666D02*
X106449761Y-105714285D01*
X106497380Y-105857142D01*
X106497380Y-105952380D01*
X106449761Y-106095238D01*
X106354523Y-106190476D01*
X106259285Y-106238095D01*
X106068809Y-106285714D01*
X105925952Y-106285714D01*
X105735476Y-106238095D01*
X105640238Y-106190476D01*
X105545000Y-106095238D01*
X105497380Y-105952380D01*
X105497380Y-105857142D01*
X105545000Y-105714285D01*
X105592619Y-105666666D01*
X105830714Y-104809523D02*
X106497380Y-104809523D01*
X105449761Y-105047619D02*
X106164047Y-105285714D01*
X106164047Y-104666666D01*
%TO.C,J1*%
X102466666Y-110452380D02*
X102466666Y-111166666D01*
X102419047Y-111309523D01*
X102323809Y-111404761D01*
X102180952Y-111452380D01*
X102085714Y-111452380D01*
X103466666Y-111452380D02*
X102895238Y-111452380D01*
X103180952Y-111452380D02*
X103180952Y-110452380D01*
X103085714Y-110595238D01*
X102990476Y-110690476D01*
X102895238Y-110738095D01*
%TO.C,C2*%
X101322142Y-105666666D02*
X101369761Y-105714285D01*
X101417380Y-105857142D01*
X101417380Y-105952380D01*
X101369761Y-106095238D01*
X101274523Y-106190476D01*
X101179285Y-106238095D01*
X100988809Y-106285714D01*
X100845952Y-106285714D01*
X100655476Y-106238095D01*
X100560238Y-106190476D01*
X100465000Y-106095238D01*
X100417380Y-105952380D01*
X100417380Y-105857142D01*
X100465000Y-105714285D01*
X100512619Y-105666666D01*
X100512619Y-105285714D02*
X100465000Y-105238095D01*
X100417380Y-105142857D01*
X100417380Y-104904761D01*
X100465000Y-104809523D01*
X100512619Y-104761904D01*
X100607857Y-104714285D01*
X100703095Y-104714285D01*
X100845952Y-104761904D01*
X101417380Y-105333333D01*
X101417380Y-104714285D01*
%TO.C,C10*%
X142107142Y-100642857D02*
X142154761Y-100690476D01*
X142202380Y-100833333D01*
X142202380Y-100928571D01*
X142154761Y-101071428D01*
X142059523Y-101166666D01*
X141964285Y-101214285D01*
X141773809Y-101261904D01*
X141630952Y-101261904D01*
X141440476Y-101214285D01*
X141345238Y-101166666D01*
X141250000Y-101071428D01*
X141202380Y-100928571D01*
X141202380Y-100833333D01*
X141250000Y-100690476D01*
X141297619Y-100642857D01*
X142202380Y-99690476D02*
X142202380Y-100261904D01*
X142202380Y-99976190D02*
X141202380Y-99976190D01*
X141345238Y-100071428D01*
X141440476Y-100166666D01*
X141488095Y-100261904D01*
X141202380Y-99071428D02*
X141202380Y-98976190D01*
X141250000Y-98880952D01*
X141297619Y-98833333D01*
X141392857Y-98785714D01*
X141583333Y-98738095D01*
X141821428Y-98738095D01*
X142011904Y-98785714D01*
X142107142Y-98833333D01*
X142154761Y-98880952D01*
X142202380Y-98976190D01*
X142202380Y-99071428D01*
X142154761Y-99166666D01*
X142107142Y-99214285D01*
X142011904Y-99261904D01*
X141821428Y-99309523D01*
X141583333Y-99309523D01*
X141392857Y-99261904D01*
X141297619Y-99214285D01*
X141250000Y-99166666D01*
X141202380Y-99071428D01*
D11*
%TO.C,U1*%
X113665000Y-102235000D02*
X128905000Y-102235000D01*
X128905000Y-102235000D02*
X128905000Y-112395000D01*
X128905000Y-112395000D02*
X113665000Y-112395000D01*
X113665000Y-112395000D02*
X113665000Y-102235000D01*
%TO.C,C3*%
X103364420Y-101740962D02*
X103645580Y-101740962D01*
X103364420Y-102760962D02*
X103645580Y-102760962D01*
%TO.C,C11*%
X144084420Y-101725000D02*
X144365580Y-101725000D01*
X144084420Y-102745000D02*
X144365580Y-102745000D01*
%TO.C,J2*%
X141645000Y-109550000D02*
X141645000Y-112450000D01*
X143550000Y-114355000D02*
X146450000Y-114355000D01*
X143550000Y-107645000D02*
X146450000Y-107645000D01*
X148355000Y-109550000D02*
X148355000Y-112450000D01*
%TO.C,C9*%
X139134420Y-102760000D02*
X139415580Y-102760000D01*
X139134420Y-101740000D02*
X139415580Y-101740000D01*
%TO.C,C1*%
X98134420Y-102760000D02*
X98415580Y-102760000D01*
X98134420Y-101740000D02*
X98415580Y-101740000D01*
%TO.C,C8*%
X137260000Y-103140580D02*
X137260000Y-102859420D01*
X136240000Y-103140580D02*
X136240000Y-102859420D01*
%TO.C,C4*%
X106555000Y-103150580D02*
X106555000Y-102869420D01*
X105535000Y-103150580D02*
X105535000Y-102869420D01*
%TO.C,J1*%
X94145000Y-109550000D02*
X94145000Y-112450000D01*
X100855000Y-109550000D02*
X100855000Y-112450000D01*
X96050000Y-114355000D02*
X98950000Y-114355000D01*
X96050000Y-107645000D02*
X98950000Y-107645000D01*
%TO.C,C2*%
X100455000Y-103150580D02*
X100455000Y-102869420D01*
X101475000Y-103150580D02*
X101475000Y-102869420D01*
%TO.C,C10*%
X142260000Y-103150580D02*
X142260000Y-102869420D01*
X141240000Y-103150580D02*
X141240000Y-102869420D01*
%TD*%
M02*
