%TF.GenerationSoftware,KiCad,Pcbnew,7.0.4*%
%TF.CreationDate,2023-05-28T10:47:35+02:00*%
%TF.ProjectId,saw_carrier,7361775f-6361-4727-9269-65722e6b6963,rev?*%
%TF.SameCoordinates,Original*%
%TF.FileFunction,Soldermask,Top*%
%TF.FilePolarity,Negative*%
%FSLAX46Y46*%
G04 Gerber Fmt 4.6, Leading zero omitted, Abs format (unit mm)*
G04 Created by KiCad (PCBNEW 7.0.4) date 2023-05-28 10:47:35*
%MOMM*%
%LPD*%
G01*
G04 APERTURE LIST*
G04 Aperture macros list*
%AMRoundRect*
0 Rectangle with rounded corners*
0 $1 Rounding radius*
0 $2 $3 $4 $5 $6 $7 $8 $9 X,Y pos of 4 corners*
0 Add a 4 corners polygon primitive as box body*
4,1,4,$2,$3,$4,$5,$6,$7,$8,$9,$2,$3,0*
0 Add four circle primitives for the rounded corners*
1,1,$1+$1,$2,$3*
1,1,$1+$1,$4,$5*
1,1,$1+$1,$6,$7*
1,1,$1+$1,$8,$9*
0 Add four rect primitives between the rounded corners*
20,1,$1+$1,$2,$3,$4,$5,0*
20,1,$1+$1,$4,$5,$6,$7,0*
20,1,$1+$1,$6,$7,$8,$9,0*
20,1,$1+$1,$8,$9,$2,$3,0*%
G04 Aperture macros list end*
%ADD10C,0.150000*%
%ADD11C,3.200000*%
%ADD12RoundRect,0.225000X-0.225000X-0.250000X0.225000X-0.250000X0.225000X0.250000X-0.225000X0.250000X0*%
%ADD13C,2.050000*%
%ADD14C,2.250000*%
%ADD15RoundRect,0.225000X0.250000X-0.225000X0.250000X0.225000X-0.250000X0.225000X-0.250000X-0.225000X0*%
%ADD16RoundRect,0.500000X-1.000000X-0.500000X1.000000X-0.500000X1.000000X0.500000X-1.000000X0.500000X0*%
G04 APERTURE END LIST*
D10*
X126289160Y-58462200D02*
X126432017Y-58509819D01*
X126432017Y-58509819D02*
X126670112Y-58509819D01*
X126670112Y-58509819D02*
X126765350Y-58462200D01*
X126765350Y-58462200D02*
X126812969Y-58414580D01*
X126812969Y-58414580D02*
X126860588Y-58319342D01*
X126860588Y-58319342D02*
X126860588Y-58224104D01*
X126860588Y-58224104D02*
X126812969Y-58128866D01*
X126812969Y-58128866D02*
X126765350Y-58081247D01*
X126765350Y-58081247D02*
X126670112Y-58033628D01*
X126670112Y-58033628D02*
X126479636Y-57986009D01*
X126479636Y-57986009D02*
X126384398Y-57938390D01*
X126384398Y-57938390D02*
X126336779Y-57890771D01*
X126336779Y-57890771D02*
X126289160Y-57795533D01*
X126289160Y-57795533D02*
X126289160Y-57700295D01*
X126289160Y-57700295D02*
X126336779Y-57605057D01*
X126336779Y-57605057D02*
X126384398Y-57557438D01*
X126384398Y-57557438D02*
X126479636Y-57509819D01*
X126479636Y-57509819D02*
X126717731Y-57509819D01*
X126717731Y-57509819D02*
X126860588Y-57557438D01*
X127241541Y-58224104D02*
X127717731Y-58224104D01*
X127146303Y-58509819D02*
X127479636Y-57509819D01*
X127479636Y-57509819D02*
X127812969Y-58509819D01*
X128051065Y-57509819D02*
X128289160Y-58509819D01*
X128289160Y-58509819D02*
X128479636Y-57795533D01*
X128479636Y-57795533D02*
X128670112Y-58509819D01*
X128670112Y-58509819D02*
X128908208Y-57509819D01*
X130622493Y-58414580D02*
X130574874Y-58462200D01*
X130574874Y-58462200D02*
X130432017Y-58509819D01*
X130432017Y-58509819D02*
X130336779Y-58509819D01*
X130336779Y-58509819D02*
X130193922Y-58462200D01*
X130193922Y-58462200D02*
X130098684Y-58366961D01*
X130098684Y-58366961D02*
X130051065Y-58271723D01*
X130051065Y-58271723D02*
X130003446Y-58081247D01*
X130003446Y-58081247D02*
X130003446Y-57938390D01*
X130003446Y-57938390D02*
X130051065Y-57747914D01*
X130051065Y-57747914D02*
X130098684Y-57652676D01*
X130098684Y-57652676D02*
X130193922Y-57557438D01*
X130193922Y-57557438D02*
X130336779Y-57509819D01*
X130336779Y-57509819D02*
X130432017Y-57509819D01*
X130432017Y-57509819D02*
X130574874Y-57557438D01*
X130574874Y-57557438D02*
X130622493Y-57605057D01*
X131479636Y-58509819D02*
X131479636Y-57986009D01*
X131479636Y-57986009D02*
X131432017Y-57890771D01*
X131432017Y-57890771D02*
X131336779Y-57843152D01*
X131336779Y-57843152D02*
X131146303Y-57843152D01*
X131146303Y-57843152D02*
X131051065Y-57890771D01*
X131479636Y-58462200D02*
X131384398Y-58509819D01*
X131384398Y-58509819D02*
X131146303Y-58509819D01*
X131146303Y-58509819D02*
X131051065Y-58462200D01*
X131051065Y-58462200D02*
X131003446Y-58366961D01*
X131003446Y-58366961D02*
X131003446Y-58271723D01*
X131003446Y-58271723D02*
X131051065Y-58176485D01*
X131051065Y-58176485D02*
X131146303Y-58128866D01*
X131146303Y-58128866D02*
X131384398Y-58128866D01*
X131384398Y-58128866D02*
X131479636Y-58081247D01*
X131955827Y-58509819D02*
X131955827Y-57843152D01*
X131955827Y-58033628D02*
X132003446Y-57938390D01*
X132003446Y-57938390D02*
X132051065Y-57890771D01*
X132051065Y-57890771D02*
X132146303Y-57843152D01*
X132146303Y-57843152D02*
X132241541Y-57843152D01*
X132574875Y-58509819D02*
X132574875Y-57843152D01*
X132574875Y-58033628D02*
X132622494Y-57938390D01*
X132622494Y-57938390D02*
X132670113Y-57890771D01*
X132670113Y-57890771D02*
X132765351Y-57843152D01*
X132765351Y-57843152D02*
X132860589Y-57843152D01*
X133193923Y-58509819D02*
X133193923Y-57843152D01*
X133193923Y-57509819D02*
X133146304Y-57557438D01*
X133146304Y-57557438D02*
X133193923Y-57605057D01*
X133193923Y-57605057D02*
X133241542Y-57557438D01*
X133241542Y-57557438D02*
X133193923Y-57509819D01*
X133193923Y-57509819D02*
X133193923Y-57605057D01*
X134051065Y-58462200D02*
X133955827Y-58509819D01*
X133955827Y-58509819D02*
X133765351Y-58509819D01*
X133765351Y-58509819D02*
X133670113Y-58462200D01*
X133670113Y-58462200D02*
X133622494Y-58366961D01*
X133622494Y-58366961D02*
X133622494Y-57986009D01*
X133622494Y-57986009D02*
X133670113Y-57890771D01*
X133670113Y-57890771D02*
X133765351Y-57843152D01*
X133765351Y-57843152D02*
X133955827Y-57843152D01*
X133955827Y-57843152D02*
X134051065Y-57890771D01*
X134051065Y-57890771D02*
X134098684Y-57986009D01*
X134098684Y-57986009D02*
X134098684Y-58081247D01*
X134098684Y-58081247D02*
X133622494Y-58176485D01*
X134527256Y-58509819D02*
X134527256Y-57843152D01*
X134527256Y-58033628D02*
X134574875Y-57938390D01*
X134574875Y-57938390D02*
X134622494Y-57890771D01*
X134622494Y-57890771D02*
X134717732Y-57843152D01*
X134717732Y-57843152D02*
X134812970Y-57843152D01*
X126908207Y-60119819D02*
X126574874Y-59643628D01*
X126336779Y-60119819D02*
X126336779Y-59119819D01*
X126336779Y-59119819D02*
X126717731Y-59119819D01*
X126717731Y-59119819D02*
X126812969Y-59167438D01*
X126812969Y-59167438D02*
X126860588Y-59215057D01*
X126860588Y-59215057D02*
X126908207Y-59310295D01*
X126908207Y-59310295D02*
X126908207Y-59453152D01*
X126908207Y-59453152D02*
X126860588Y-59548390D01*
X126860588Y-59548390D02*
X126812969Y-59596009D01*
X126812969Y-59596009D02*
X126717731Y-59643628D01*
X126717731Y-59643628D02*
X126336779Y-59643628D01*
X127717731Y-60072200D02*
X127622493Y-60119819D01*
X127622493Y-60119819D02*
X127432017Y-60119819D01*
X127432017Y-60119819D02*
X127336779Y-60072200D01*
X127336779Y-60072200D02*
X127289160Y-59976961D01*
X127289160Y-59976961D02*
X127289160Y-59596009D01*
X127289160Y-59596009D02*
X127336779Y-59500771D01*
X127336779Y-59500771D02*
X127432017Y-59453152D01*
X127432017Y-59453152D02*
X127622493Y-59453152D01*
X127622493Y-59453152D02*
X127717731Y-59500771D01*
X127717731Y-59500771D02*
X127765350Y-59596009D01*
X127765350Y-59596009D02*
X127765350Y-59691247D01*
X127765350Y-59691247D02*
X127289160Y-59786485D01*
X128098684Y-59453152D02*
X128336779Y-60119819D01*
X128336779Y-60119819D02*
X128574874Y-59453152D01*
X128955827Y-60024580D02*
X129003446Y-60072200D01*
X129003446Y-60072200D02*
X128955827Y-60119819D01*
X128955827Y-60119819D02*
X128908208Y-60072200D01*
X128908208Y-60072200D02*
X128955827Y-60024580D01*
X128955827Y-60024580D02*
X128955827Y-60119819D01*
X130384398Y-59119819D02*
X130479636Y-59119819D01*
X130479636Y-59119819D02*
X130574874Y-59167438D01*
X130574874Y-59167438D02*
X130622493Y-59215057D01*
X130622493Y-59215057D02*
X130670112Y-59310295D01*
X130670112Y-59310295D02*
X130717731Y-59500771D01*
X130717731Y-59500771D02*
X130717731Y-59738866D01*
X130717731Y-59738866D02*
X130670112Y-59929342D01*
X130670112Y-59929342D02*
X130622493Y-60024580D01*
X130622493Y-60024580D02*
X130574874Y-60072200D01*
X130574874Y-60072200D02*
X130479636Y-60119819D01*
X130479636Y-60119819D02*
X130384398Y-60119819D01*
X130384398Y-60119819D02*
X130289160Y-60072200D01*
X130289160Y-60072200D02*
X130241541Y-60024580D01*
X130241541Y-60024580D02*
X130193922Y-59929342D01*
X130193922Y-59929342D02*
X130146303Y-59738866D01*
X130146303Y-59738866D02*
X130146303Y-59500771D01*
X130146303Y-59500771D02*
X130193922Y-59310295D01*
X130193922Y-59310295D02*
X130241541Y-59215057D01*
X130241541Y-59215057D02*
X130289160Y-59167438D01*
X130289160Y-59167438D02*
X130384398Y-59119819D01*
X131336779Y-59119819D02*
X131432017Y-59119819D01*
X131432017Y-59119819D02*
X131527255Y-59167438D01*
X131527255Y-59167438D02*
X131574874Y-59215057D01*
X131574874Y-59215057D02*
X131622493Y-59310295D01*
X131622493Y-59310295D02*
X131670112Y-59500771D01*
X131670112Y-59500771D02*
X131670112Y-59738866D01*
X131670112Y-59738866D02*
X131622493Y-59929342D01*
X131622493Y-59929342D02*
X131574874Y-60024580D01*
X131574874Y-60024580D02*
X131527255Y-60072200D01*
X131527255Y-60072200D02*
X131432017Y-60119819D01*
X131432017Y-60119819D02*
X131336779Y-60119819D01*
X131336779Y-60119819D02*
X131241541Y-60072200D01*
X131241541Y-60072200D02*
X131193922Y-60024580D01*
X131193922Y-60024580D02*
X131146303Y-59929342D01*
X131146303Y-59929342D02*
X131098684Y-59738866D01*
X131098684Y-59738866D02*
X131098684Y-59500771D01*
X131098684Y-59500771D02*
X131146303Y-59310295D01*
X131146303Y-59310295D02*
X131193922Y-59215057D01*
X131193922Y-59215057D02*
X131241541Y-59167438D01*
X131241541Y-59167438D02*
X131336779Y-59119819D01*
X132098684Y-60024580D02*
X132146303Y-60072200D01*
X132146303Y-60072200D02*
X132098684Y-60119819D01*
X132098684Y-60119819D02*
X132051065Y-60072200D01*
X132051065Y-60072200D02*
X132098684Y-60024580D01*
X132098684Y-60024580D02*
X132098684Y-60119819D01*
X132765350Y-59119819D02*
X132860588Y-59119819D01*
X132860588Y-59119819D02*
X132955826Y-59167438D01*
X132955826Y-59167438D02*
X133003445Y-59215057D01*
X133003445Y-59215057D02*
X133051064Y-59310295D01*
X133051064Y-59310295D02*
X133098683Y-59500771D01*
X133098683Y-59500771D02*
X133098683Y-59738866D01*
X133098683Y-59738866D02*
X133051064Y-59929342D01*
X133051064Y-59929342D02*
X133003445Y-60024580D01*
X133003445Y-60024580D02*
X132955826Y-60072200D01*
X132955826Y-60072200D02*
X132860588Y-60119819D01*
X132860588Y-60119819D02*
X132765350Y-60119819D01*
X132765350Y-60119819D02*
X132670112Y-60072200D01*
X132670112Y-60072200D02*
X132622493Y-60024580D01*
X132622493Y-60024580D02*
X132574874Y-59929342D01*
X132574874Y-59929342D02*
X132527255Y-59738866D01*
X132527255Y-59738866D02*
X132527255Y-59500771D01*
X132527255Y-59500771D02*
X132574874Y-59310295D01*
X132574874Y-59310295D02*
X132622493Y-59215057D01*
X132622493Y-59215057D02*
X132670112Y-59167438D01*
X132670112Y-59167438D02*
X132765350Y-59119819D01*
X134051064Y-60119819D02*
X133479636Y-60119819D01*
X133765350Y-60119819D02*
X133765350Y-59119819D01*
X133765350Y-59119819D02*
X133670112Y-59262676D01*
X133670112Y-59262676D02*
X133574874Y-59357914D01*
X133574874Y-59357914D02*
X133479636Y-59405533D01*
%TO.C,G2*%
G36*
X124370000Y-56004644D02*
G01*
X124405414Y-56007465D01*
X124435473Y-56013019D01*
X124465564Y-56021999D01*
X124466329Y-56022262D01*
X124521426Y-56045327D01*
X124573399Y-56074590D01*
X124616138Y-56106551D01*
X124620664Y-56110690D01*
X124629690Y-56118887D01*
X124638081Y-56124084D01*
X124648143Y-56125696D01*
X124662181Y-56123141D01*
X124682498Y-56115833D01*
X124711398Y-56103190D01*
X124751187Y-56084626D01*
X124783052Y-56069549D01*
X124878130Y-56024535D01*
X124878130Y-56250799D01*
X124878130Y-56477063D01*
X124900382Y-56477124D01*
X124914748Y-56476522D01*
X124943021Y-56474786D01*
X124983049Y-56472082D01*
X125032680Y-56468573D01*
X125089758Y-56464425D01*
X125152133Y-56459802D01*
X125217649Y-56454868D01*
X125284155Y-56449788D01*
X125349497Y-56444726D01*
X125411521Y-56439846D01*
X125468075Y-56435313D01*
X125517006Y-56431292D01*
X125556160Y-56427946D01*
X125583384Y-56425440D01*
X125596273Y-56423982D01*
X125615373Y-56417566D01*
X125622571Y-56407916D01*
X125625081Y-56403147D01*
X125634126Y-56399823D01*
X125651977Y-56397707D01*
X125680905Y-56396565D01*
X125723182Y-56396159D01*
X125735855Y-56396145D01*
X125849140Y-56396145D01*
X125849140Y-56651035D01*
X125849140Y-56905925D01*
X125735855Y-56905925D01*
X125690167Y-56905682D01*
X125658338Y-56904788D01*
X125638051Y-56902993D01*
X125626986Y-56900051D01*
X125622825Y-56895711D01*
X125622571Y-56893788D01*
X125621465Y-56882855D01*
X125620548Y-56881428D01*
X125588798Y-56878288D01*
X125548498Y-56874812D01*
X125502285Y-56871173D01*
X125452796Y-56867545D01*
X125402670Y-56864101D01*
X125354542Y-56861014D01*
X125311051Y-56858456D01*
X125274834Y-56856602D01*
X125248528Y-56855624D01*
X125234770Y-56855696D01*
X125233398Y-56856011D01*
X125230831Y-56865071D01*
X125226509Y-56886460D01*
X125221042Y-56916499D01*
X125215040Y-56951506D01*
X125209115Y-56987802D01*
X125203877Y-57021707D01*
X125199936Y-57049540D01*
X125197902Y-57067621D01*
X125197754Y-57070850D01*
X125204992Y-57076052D01*
X125224469Y-57084270D01*
X125252835Y-57094185D01*
X125273341Y-57100584D01*
X125306120Y-57110694D01*
X125332739Y-57119485D01*
X125349586Y-57125735D01*
X125353499Y-57127753D01*
X125351684Y-57135961D01*
X125344978Y-57158242D01*
X125333787Y-57193375D01*
X125318517Y-57240139D01*
X125299574Y-57297316D01*
X125277365Y-57363685D01*
X125252295Y-57438026D01*
X125224770Y-57519119D01*
X125195197Y-57605744D01*
X125168809Y-57682648D01*
X124979547Y-58232972D01*
X124473678Y-58233189D01*
X123967808Y-58233407D01*
X123815691Y-58526515D01*
X123786766Y-58582227D01*
X123751356Y-58650389D01*
X123710452Y-58729100D01*
X123665042Y-58816456D01*
X123616117Y-58910554D01*
X123564665Y-59009490D01*
X123511676Y-59111363D01*
X123458141Y-59214268D01*
X123405048Y-59316303D01*
X123358462Y-59405815D01*
X123053350Y-59992007D01*
X122872406Y-60077431D01*
X122691463Y-60162854D01*
X122606182Y-60328926D01*
X122578296Y-60383643D01*
X122557345Y-60425895D01*
X122542578Y-60457462D01*
X122533247Y-60480124D01*
X122528601Y-60495660D01*
X122527892Y-60505849D01*
X122529482Y-60511031D01*
X122538621Y-60518505D01*
X122561002Y-60532575D01*
X122595410Y-60552567D01*
X122640630Y-60577803D01*
X122695447Y-60607607D01*
X122758645Y-60641302D01*
X122829011Y-60678213D01*
X122840256Y-60684062D01*
X122904745Y-60717592D01*
X122964702Y-60748819D01*
X123018620Y-60776952D01*
X123064992Y-60801204D01*
X123102312Y-60820786D01*
X123129071Y-60834909D01*
X123143764Y-60842784D01*
X123146141Y-60844152D01*
X123144291Y-60852188D01*
X123136411Y-60871510D01*
X123123844Y-60898998D01*
X123111804Y-60923798D01*
X123073776Y-61000350D01*
X122260502Y-61000350D01*
X122147280Y-61000324D01*
X122038734Y-61000247D01*
X121935945Y-61000123D01*
X121839995Y-60999955D01*
X121751964Y-60999748D01*
X121672931Y-60999505D01*
X121603979Y-60999229D01*
X121546187Y-60998924D01*
X121500636Y-60998595D01*
X121468407Y-60998243D01*
X121450581Y-60997873D01*
X121447229Y-60997626D01*
X121450874Y-60990190D01*
X121461423Y-60969523D01*
X121478298Y-60936741D01*
X121500919Y-60892961D01*
X121528707Y-60839302D01*
X121561083Y-60776881D01*
X121597467Y-60706814D01*
X121637281Y-60630220D01*
X121679946Y-60548216D01*
X121724881Y-60461919D01*
X121727182Y-60457502D01*
X121772919Y-60369688D01*
X121816948Y-60285126D01*
X121858623Y-60205053D01*
X121897301Y-60130709D01*
X121932337Y-60063333D01*
X121963089Y-60004164D01*
X121988910Y-59954440D01*
X122009159Y-59915400D01*
X122023190Y-59888283D01*
X122030213Y-59874617D01*
X122053290Y-59829132D01*
X120852846Y-58741772D01*
X119652402Y-57654412D01*
X121016139Y-57652366D01*
X122379876Y-57650319D01*
X122866356Y-57422506D01*
X122951665Y-57382543D01*
X123034308Y-57343802D01*
X123112844Y-57306961D01*
X123185830Y-57272697D01*
X123251824Y-57241689D01*
X123309384Y-57214614D01*
X123357068Y-57192150D01*
X123393434Y-57174974D01*
X123417039Y-57163764D01*
X123421615Y-57161570D01*
X123490395Y-57128448D01*
X124275402Y-57128448D01*
X124456294Y-57293021D01*
X124501643Y-57333886D01*
X124543233Y-57370610D01*
X124579558Y-57401923D01*
X124609109Y-57426552D01*
X124630379Y-57443227D01*
X124641861Y-57450676D01*
X124643356Y-57450810D01*
X124648423Y-57442254D01*
X124660014Y-57421026D01*
X124677228Y-57388833D01*
X124699160Y-57347379D01*
X124724907Y-57298371D01*
X124753566Y-57243515D01*
X124777280Y-57197919D01*
X124905033Y-56951811D01*
X124884414Y-56934937D01*
X124870176Y-56922717D01*
X124847366Y-56902512D01*
X124819321Y-56877296D01*
X124793905Y-56854189D01*
X124766248Y-56829587D01*
X124742980Y-56810157D01*
X124726588Y-56797891D01*
X124719606Y-56794725D01*
X124714746Y-56802889D01*
X124703574Y-56823315D01*
X124687215Y-56853895D01*
X124666796Y-56892516D01*
X124643440Y-56937068D01*
X124631618Y-56959746D01*
X124548041Y-57120357D01*
X124411721Y-57124403D01*
X124275402Y-57128448D01*
X123490395Y-57128448D01*
X123013859Y-57124403D01*
X122537324Y-57120357D01*
X122787290Y-57003708D01*
X122860539Y-56969521D01*
X122925199Y-56939330D01*
X122983603Y-56912040D01*
X123038085Y-56886557D01*
X123090978Y-56861787D01*
X123144616Y-56836635D01*
X123201333Y-56810009D01*
X123263462Y-56780812D01*
X123333336Y-56747952D01*
X123413290Y-56710334D01*
X123501167Y-56668976D01*
X123762783Y-56545843D01*
X123853158Y-56373177D01*
X123891103Y-56302231D01*
X123924211Y-56244197D01*
X123953970Y-56197093D01*
X123981868Y-56158934D01*
X124009392Y-56127735D01*
X124038030Y-56101515D01*
X124069270Y-56078288D01*
X124079259Y-56071680D01*
X124134978Y-56040204D01*
X124190229Y-56019337D01*
X124250033Y-56007690D01*
X124319409Y-56003869D01*
X124323845Y-56003858D01*
X124370000Y-56004644D01*
G37*
%TD*%
D11*
%TO.C,H4*%
X184000000Y-75500000D03*
%TD*%
%TO.C,H3*%
X116000000Y-75500000D03*
%TD*%
%TO.C,H2*%
X184000000Y-58500000D03*
%TD*%
%TO.C,H1*%
X116000000Y-58500000D03*
%TD*%
D12*
%TO.C,X3*%
X128450000Y-67000000D03*
X130000000Y-67000000D03*
%TD*%
%TO.C,X11*%
X177050000Y-67000000D03*
X175500000Y-67000000D03*
%TD*%
D13*
%TO.C,J2*%
X182500000Y-67000000D03*
D14*
X179960000Y-64460000D03*
X179960000Y-69540000D03*
X185040000Y-64460000D03*
X185040000Y-69540000D03*
%TD*%
D12*
%TO.C,X9*%
X170000000Y-67000000D03*
X171550000Y-67000000D03*
%TD*%
%TO.C,X1*%
X122950000Y-67000000D03*
X124500000Y-67000000D03*
%TD*%
D15*
%TO.C,X8*%
X168000000Y-68550000D03*
X168000000Y-67000000D03*
%TD*%
D16*
%TO.C,U1*%
X136000000Y-63000000D03*
X136000000Y-71000000D03*
X164000000Y-63000000D03*
X164000000Y-71000000D03*
%TD*%
D15*
%TO.C,X4*%
X132000000Y-68550000D03*
X132000000Y-67000000D03*
%TD*%
D13*
%TO.C,J1*%
X117500000Y-67000000D03*
D14*
X114960000Y-64460000D03*
X114960000Y-69540000D03*
X120040000Y-64460000D03*
X120040000Y-69540000D03*
%TD*%
D15*
%TO.C,X2*%
X126500000Y-67000000D03*
X126500000Y-68550000D03*
%TD*%
%TO.C,X10*%
X173500000Y-68550000D03*
X173500000Y-67000000D03*
%TD*%
M02*
